<mxfile host="app.diagrams.net" modified="2023-06-20T08:18:13.380Z" agent="Mozilla/5.0 (Windows NT 10.0; Win64; x64) AppleWebKit/537.36 (KHTML, like Gecko) Chrome/114.0.0.0 Safari/537.36" etag="EAQwYo5sz_xdRj9YhOhq" version="21.5.0" type="device">
  <diagram name="Page-1" id="xm03yqiKlhGp28QmwCZb">
    <mxGraphModel dx="794" dy="1107" grid="1" gridSize="10" guides="1" tooltips="1" connect="1" arrows="1" fold="1" page="1" pageScale="1" pageWidth="850" pageHeight="1100" math="0" shadow="0">
      <root>
        <mxCell id="0" />
        <mxCell id="1" parent="0" />
        <mxCell id="PzlkRYsVzpQkyw8jTia9-21" value="" style="group" vertex="1" connectable="0" parent="1">
          <mxGeometry x="570" y="150" width="200" height="330" as="geometry" />
        </mxCell>
        <mxCell id="PzlkRYsVzpQkyw8jTia9-12" value="" style="rounded=0;whiteSpace=wrap;html=1;" vertex="1" parent="PzlkRYsVzpQkyw8jTia9-21">
          <mxGeometry width="200" height="330" as="geometry" />
        </mxCell>
        <mxCell id="PzlkRYsVzpQkyw8jTia9-13" value="Database (NoSQL)" style="text;html=1;strokeColor=none;fillColor=none;align=center;verticalAlign=middle;whiteSpace=wrap;rounded=0;" vertex="1" parent="PzlkRYsVzpQkyw8jTia9-21">
          <mxGeometry x="70" width="60" height="30" as="geometry" />
        </mxCell>
        <mxCell id="PzlkRYsVzpQkyw8jTia9-15" value="                   Cloud Firestore" style="strokeColor=#dddddd;shadow=1;strokeWidth=1;rounded=1;absoluteArcSize=1;arcSize=2;fontColor=#999999;" vertex="1" parent="PzlkRYsVzpQkyw8jTia9-21">
          <mxGeometry x="17.5" y="135" width="165" height="60" as="geometry" />
        </mxCell>
        <mxCell id="PzlkRYsVzpQkyw8jTia9-14" value="" style="shape=image;verticalLabelPosition=bottom;labelBackgroundColor=default;verticalAlign=top;aspect=fixed;imageAspect=0;image=data:image/png,iVBORw0KGgoAAAANSUhEUgAAAOEAAADhCAYAAAA+s9J6AAAhB0lEQVR4Xu1dCXhV1bXeNwlJSDAECTNEJgVBQWbFicGCIqCI6HOu9NFqH7QotdXX0n7aWhWrT+VZtFL9nOCpFYoKVKyCIoqEGRKSQOINCYMEISa5NwMJ96117j3h5nKHM+xz7t37rP195xNhj/9e/117r7322oxRIgQIAUKAECAECAFCgBAgBAgBQoAQIAQIAUKAECAECAFCgBAgBAgBQoAQIAQIAUKAECAECAFCgBAgBAgBQoAQIAQIAUKAECAECAFCgBAgBAgBQoAQIAQIAUKAECAECAFCgBAgBAgBQoAQIAQIAUKAECAECAFCgBAgBAgBQoAQIAQIAUKAECAECAFCgBAgBAgBQoAQIAQIAUKAECAECAFCgBAgBAgBQoAQIAQIAUKAECAECAFCQAYEXDIMwuwYfO7l17H6igEsNeegq++9K8zWR+UJAT0IOJqEvlp3G7Z16hHGXB1ZUlvGTtcx5vMwdtFb/V2dxpboAZLyEgJGEXA2Cb++eg87VXcRc6W2xq/psM81vjTJKKhUjhDQg4CzBa2+/GwCInquTJev+IX5eoCkvISAUQQcS0Jf5Vd9mSsjPG7J7Rk79Nz/GAWVyhECehBwLAmZp2w4qLzIWCXnMF/h0w/rAZPyEgJGEHAuCWsLrlKMMZES7hOPLHnCCKhUhhDQg4BzSegtnhgTKNSGexc+GTMfZSAETCDgWOuob31fH0vpHhu6psOMjfoszdWud2PszJSDENCPgHM1oVasQBuy4ieXaM1O+QgBvQg4koS+qvy2ES2joQji3vCHdbOhDLCREiHAHwFHkpB53EOiWkZDcVa04WOr+MNPNRICjDmUhCUjolpGw2lDT95YOFu8gISGEOCNgENJWHylbiDRiFP463/rLkcFCIEYCDiThDVbZp7lL6pFVJqrevkOrb5KS1bKQwhoRcCRRxSajyfCoehrrHZdtQX82igRAnwQcKYmNIPd6bosuH94k5kqqCwhEIyA40gIxpXzNB9PhJMVdO52P/4uiREhwAsBx5GQ1RRdrut4IizSrmRf6Wv38poEqsfZCDiPhN7S0bqOJyJpw7I/vups0aHR80LAgSQsnmzIMhqKuP+q0x94TQTV41wEHGcdNWUZDZUTcO6GMBiOw9C5dLFm5M7ThDxx9F91WsyzSqrLeQg4ioRgGe1uyjIaKh/o3F359lyI2taOp+j4yteP9pWsuBmcxs/lWS/VlZgIpCRmtyzqVePJPuYtoyF98191egP+1vTZIZCuPdv84AFW+Lz/xkYpRGDceN8G15UvjbcIEao2ARBwlCZkNQVXmraMhtOGP6ybAQTqaXo+Nz9YCgGIc1hyJmv5Gr4f5/vqwZWm66YKEhYBZ5HQW2KNRvFfdfqHmVn2bX/ujywl6+zlZxIseavzbwSSdzVTP5VNXAScRcLqTZO4HE+E04aevDGw57zY8FQfW/s7hoQLl1KB5HsWrzFcNxVMaAScRUIMcW9VwqtOBx75yEj1oAWfAi0YvWj90WGmSG6kY1TGFgQcQ0JYzqVbjmjD97lw1WmC7naOrf11RC2oVob7xD0vvqe7biqQ8Ag4hoQQ0mIo1+OJcFObnM1YyaPL9cw6GF1WxdSCaoXNngFwfDFKT/2UN/ERcA4JG46dz/14Itz8nvZ2hqtON2qZejhfTAWjy/SYWjBYGxb91ZQBSEu/KI+9CDiHhN7SUdyPJyJpQ/fjyzRN4+4XVmjWgmqFvlO5pA01oStMJueQsOaL/7DEMhp2ql1t4arTndGkAPaomaAFr9esBYO1YeHzdG4oDMVid9Q5JKwv7xwbDk458OJv2R/fjFrbnsXrdGvBMxX2ALe2GZx6q7saX9ncZ307+vqUr2wu+c7qRrB1AeeQ0CRQuou7Mhm8cTgvXDnQgu1Y/dGxurVgsDYsfWOp7j5xKODbd3Ue+27tA+xUMlO+79bOhb/byqFqx1bhCBLC+VpPyy2joSLkf+PwhbCStWfxBsUtzUxytTkXtOENZqrQWxbItovVVIxUlvUucDtWPvhzTcUI34n3xumtj/L7EXAECeEtQvBkicO1P/9Vp1bPq4FRZTBowRGmBRC9a/a/HH3Ja7qRMxUAAfcC2YZE3FdXb7uOY3OOqsoZJKyvGGqLZTRUdPxXnVo/NLp/6SrTWlBtJyXrHF/+K/dbLbFAwHwg4OCohq3aLbOs7oes9TuDhNVb4ycgqA13zFWWpaAF+7BmTz9uwoTasPwfz3KrL0xFQMCdQMBB0S3LIEan3HBNjJIRBJxBQm/+cPuOJ0KmAbVh1Zp5YIxxsf1L13DTgme0YTr4nv7GyOTHKhMgIHgaRXAsVyvAvSElwwg4g4Q+r2GAuBRM78XYupmnoa6BXOoLrgS14bG1j/OuFwi4HTRgbAKqDZ9yMV/tZg2vrvLuqfj1SU9C0EBtbLeMhspFUzNjewsZO3nMGolJyUoGbfgYr8oDGnBYTA0Y2mBj+WBefXBSPdKTEBy3wRIZB8toy3IRztJKKuCmPPxF8TeMtcE/cE5+bbiQR626NWBwo9XbrubRB6fV4QASlpgP9mtGKlALlrr9h0F11UCWI2Zqi1wW7iPCjQxTzt1AwB2wBNWvAdVe1e+aaM3g5K7VASQsviZuU5gCWm/ft34tiAn/W/CJddqwOn8m3MwwpPYDGvAS3UvQFnBBlOqKhsUNa4Eblp+EtTuvMy5YJmf2hxrGKg6dcYlAtNE8U7LPZMURiuPt/N0v/FNv5aY1IDbot5Cm6W2b8jvBY6bpcHzs56gFD353Rguq0oZELM+zRvZwb+gpnQ7GqBixMs40DwTcBktQExowaCh+Cym93ahzduXXhDoB4ZY9VAsGV4za8GAxt6ZaVaSEwVi8VkvlASso3zPUxnJakmoBPyiP1CQEx+2OcTmeQC1YELCIhpsQRL3MIm2I7cENDRj7oGiyEHDG1n4OqFWw6sqGas1K+fwISE1CcNweHZfjCdSCVXAmGAtdS7XhixG1YcAXNLIzthl21H4WPxdBM/2OY9lYYhLHrnFourbgatsdt2NpweC9oZXasNmDYTDOioMKBCyI7QtqFHsQJ2/hWKOlnVpObhJ6i6fYbhmtPKlNC6oSh9rQigN83BvuX7oiWLADS9ALLcPEbyE1dETiVAI6YDmaZzwithGpQC1YdPhsi2ikuvAnsBT2hg11RlqLXabZ0x+0YTfMCATcE/U+YOzatOXwW0jP1ZaZcslPQjvnGAmIWrDmeOy9YHC/8AC/wm2dNnS/lu8rmnIUCHiRZRowFOemqlw7oRe9LWmXo3BWlma7ZTQfyKTXNdRKbYjL3M7HO7AfirrYRkBkhGfvVaITw87+S0tCcNwebtv2BLVgORzMo2+oEUSRuLs/56sN/QRkQEB/HBg7U5P7QjubE70tIyIjxpg9JfYE+1XRKIKrSnq1oFoWZwGPNHjtDeNJQPwVOrHmbjGEJDF6KS8JawvsCzyEWvAUTKgZNHlpw7gSEDDwW0gzEkO8xeiFGbFJ7BFWb7rWlmWYYhEFLdjGJByqNqw8aryieBNQ7TlYSClpR0BeElr5FmEwvqgF0ReUR0Jt6N5pbG+YKAQM4OCr+he5r2mUCXlJqBEA09n2gRbkhaJRbZhgBFQw9eylW/YahYuX+Ghszp5stkTcxmUohq3gnVAblmzXrg2RgJ0q42MFjTb2JjfFm9EoG1KSkNUUjbH8eCI4bIVGsDVlwxnBA38te0OVgNXg+mb3MUTUwcAgjn86W9N4KRO3hVRiQektvcxSx21VCxo9koiFFtZbtDm6NkxYAkLf0UKa1BCfy9SxsE3Af5dUE35xn6WawSotqAoIzkq0oFCJTEB1DOhDWpUvp3xxJrKcINWXm3zyKArKocGbOE9IS3WRQiSKQMCWQZST54wG+ZCThBoGbjjLKbjxEBy8yXBFMQrizDSCG1xwiEShCAj9bzhMJNQgH9KRECyj3Sxz3EYtWAjR06zaC4ZOGM4OhkjEJBoBsc+eXZdrkEHHZ5GOhBDSwrqI29GCN1klSugOh+Hz0Rk74ayg0QYNotUA4SYpxURAPhLWQ/i+pLYxB647g9awFborjlIAPXGyOzM2GAyN8bgNYWYsaCGtLx9gpgqnlJWPhNVbf2zJ5GkN3sSrcSTgOUDAKaDYqw8k2DmgxkGSD6kmoOQjoTe/H/fjCbu14FkEFPfIDUJd5GiSRAdnko+EVrxFaKcWlIiACq88BfRITIwfGKlICIfD6dwto6gF9xy0xyIqGwFR+OqKRzlYyWkaulQkhJAWF3H3GTUSvEkT9CGZZCQgekXWbplhBA4nlZGMhPAWIc+EWtBI8Ca9fZCSgAEQTrn76oXDafklI2HxZG7HE2oIQ6PBm7RKkswE9Ie6oOSkPSGr3Tmdq2V0125r94JIwAwwHrYcQ0gotP5gwH2IiZERkEsTNkH0ax5JDWFoNnhTtL6oBJwGdgvFE0ZCAqrj9xRcwWNaZK1DLhLynCUewZsi9Ucl4HVDBHNFMwhwXfElBks6opg0JATH7VxuxxM8gzeFilGwBvSWiekJo5ca9bvorDAKZtKQEBy3h3M7nuAZvCkY/LOWoDZHxtZLHi75QcTqiijymiNIyOMtQquCN+EEOG0JqgqdzHtdLj9S/IL1ceqOiWq8cDxhNmHYijI3f1ScuAQNngu/hZQu+EaQT4mWo3nmHr+0Sgs6cgkaRtoay8GbiVI4BOQhodn5tSJ4ExHwzKzUlYEpmJK0JATH7UxTllErgjcRAVvLW+1n/0kUDI+AHJrQ44Yb3CYeIeEdvMmpRpiILAMx8xZ2JRJKTcKSkYZ9RnkHbwomoFPOAWOxiyykURGSRBMWj4slBxH/nWfwJtkJiNKCX0qDvi8gZWAhvczwPElcUA6HxZottxly3EYteBCeNuMRwlBGAqo/0UlAOkiVJ7qwihM57NDJ9uy76kxWWZvOTnrTWNNpF2to8oOYltLMUpJ8rENGA+vUrp51yfKwHh1+YAO6V7CMxvLzIcvXEvPJ0NBMbKQMtWdJId/6vj6W0l1/3R4vY1/hC0j6i7YqIRsBFY0HxGtKYzvc/dn2su6s4Gh2K6Kp40fChUtITDUFE/TCAf3fHzZs2N9Gjhy5ziTq0hQXnoS+WreL5U04rZuEqAW/3gcvIEFMTzOLcpkIiMtMSMXl/dnG4j5s68GOLBmwUbUbD6lvbm5mjY2NrKmpqXr48OHvjBkzZsmQIUN28Khb1DrEJ2HlV31Y/k9LWXK2vjngoQVlIWBA820quIR9sKs/8zSmcCVepIlRCdm2bds9t9xyyzzQjp/rm0Q5cotPwtLX7mIHn32DJbfXPiM8tKAMBAyQb8eBwez/wOHILvKFm6i6ujoGZNx95513zgbNuE37ZIqf08xCLDFG7y29VPfxBAZvqjKxDG1FwHIxryPB0tNbn86eXDWN/X3TxcpcZqY2KUaVeCQgIDY75JVXXtn69NNP/yMefYhXm+Jrwi23lrGGQ7maAUQtuAG2IPjikZGfICRgahZj00bCATQSUDADc9DS861vBrKMVL81M5ESLlO9Xm/lrFmz5k+YMGFZIvXNir6IT0I9llE1eNNWiB1jxCIqAwFBiv6+/iq2o6KjovkSOeESFZamf5szZ87PErmfZvvmPBIa1YISEBCXn4+u+pFyrpdo2i+SIKMlNTU1dfOiRYukPeg3siAzS3xu5SGkxXmaHbfV4E1GQhiKTkDY/1VWZbOFKycJRUAUFCAgg+XppfPnz9/JTXASrCKhScgaT/bT5biNwZv0eseITkCYYfR0efTD8YroiaIBg3mSnJyMZBw6b968vQnGHy7dEZuENRBKT+tbhBi8SW8IQwkIqCxBgYA8D9y5SJ6BSsCCOhiICBt6uZLYJPSWTNA0Hcp9QdCCeowxEhAQ49rgHlAGAqrzDBrx4gULFmzRNO+CZBKbhNWbro7puI0ELILQgnqS6ATEsYLv55OrxdsDxpomXJpCGvXEE0/8O1ZeUf5dbBL6PLFx1hu8SQYCgiHmo7yxrKIqU8g9YKxJRSIePnx44ocffvjfsfKK8O/CkhBCWpwbE2C9wZtkICDMaNnRXLZ6b27CnwPGnL8oGdDDZs2aNY+Xlpb2NlNPIpQVloTwFuHwmMcTeoI3yUDAgET9df1olpWe2AfxPIT/nHPOYS+99NIaHnXFsw5xSdhwrH/U4wk9wZtkISAuQ7eNUM4C7Uzo2YIJ/4uH63YmaO9CWJb+1s42ebclmONj0PC9paOjHk+owZtiWURlISDGUvK2V5ahdmnBwM0Hds8997ARI0Ywj8fDVq1axb788kuWlpamHLRbnbANWJb+Htp53Oq2rKrf3p9MjqPwfX21j+FyM1xS3pk/wNiRQ9GdtGUhIGIAWnD5xnFwEbeT5cYYJB8K/2233aaQLzTZTUbUvqNGjXrhjjvu+CVHEbOtKnFJGM1xW8uFXZkIiFoQDuUXvHOdpVpQJd/111/Pxo/3e+BES3aSsaamhi1ZskRIeRay0xDSIh1CWtSFDWmhRQvKRMCAFsQjifXFPSzRgkg+PBaYPn26JvLFQzOiNpw4ceLD06ZNeyrWj0Oi/buYJKz8ajCEtNgbNqRFLC0oGwFRokATLlg+nTsBVSOLUfKFI+P69etxD2fJnhF+LI4vXry4U6KRLFZ/xDTMeMrgKniY3w/UggUVkZ20JSVg8aFeSiS0FE73A5F8eLF2xowZhjRfJKHLzMxkU6dOVeq0iIw5u3fvHiFaeAwxSVhfMSisZRQD+WLYinAWURkJqGjBBiUyGvqHmk1WkS+0XyoZkZAfffQRW7dunbLcNWtNxfLffPPNHGhPqBg1Yi5Ht9xazOq/Pb+V32i04E2yEjCwFJ375gzT3jFIQF7LTiM/BkjGTz/91DQRwUBTCQaazkb6EK8yYh7We/JaExDRixS8SXIClh3rwkV2cPmpxeIZrrFt27axBx54gC1dupR9//33hvqDWrGhwR/31ExKSUnpBK5s2WbqsLusmMvRUJSUmxKHz94LykzAwFJ0T3lPLktRI4KH5Hv33XcVTxn05SwsLGQLFy5kENRX2U927NjRSLWmyuCy1u12XwOVCBOxTTgSguN2Ftt565mJUoM31RxvvReUnYABBPBNCLtTKPkC4QqVfR36c8aTjNiHkpKSiURCK6XC4x59lmU0391aCzqEgAhz8bH23I8mIk3fnj172FtvvdWi+VTyheYPJWPfvn3ZzJkzWZ8+fayUDKVubBt+BCZZ3hDHBoTThMxTcibYb3DwJtUi6hQC4m4eHmyprk+x1EsGZU0L+XBPGbhw2yKeKhmPHj3KIKAvs4uMELO0G0eOWF6VgCQsntoKleDgTU4hYACAyups5cEWqxKSb/Xq1XiBVrFahtN8gUC9yj5w//79LVoyuE92kxGMM0o4b1GSeCSs3Tmm5WhCDd6EWtBhBEQB8zamWSJn3377LXvnnXc0ky/YCBO6X4wXGcFCei5o3hOWAMS5UvFI2ARWUHyLMDh4kwMJiHLQcIrfVSHUVgbI93ewgGJQ3kGqXOKtCvyCyYhaNHipGkkzggbjJt61tbW4JBWChEId1oPjdio4bjcoJCwB97Qyt3/SRH4bwqjYwTJ0R2l/5TEXXuHs1VsSoXs77KK67MR93b333lsB5DsCf10FH4YZOfs+U2Bc0cioDj3oiTSjaLQqh+OAO46XwVNrm7lUaHEl/H56LO6oUn3d4V4tIS2cTECLsI625wsxqvSALhTDtxM+XBN3hQ//7qykasZg4044zRjJ0mpiqMIoGLFI6CkbyJIy/FoQXSXbBl5HqoMfZdFeRzIhXXYUDdZ8YY4XUMDhmWOGT16jJsQlaVgSqn29+OKL2VNPPaVYWoONPeG0LqfxJdZTU1EGJRYJawv8y55Sd2sCcpo10arJTDPv5hU65hjkU7NXwR/2w4c+ah3g0/xCK5IRP6vJCNoW3r4TI4lFQm/xZawQQlagNRTfB0QN6OCU1oZvUCW8na7xLK8WYM+G70L4LoKvt95pCJBxPZBxL2jGn8IxSBrPJWm7du2EEQ6xSOjJu1aJGzMTot87nIAo9Bmp/DQh3qJ46KGHtHq14MXZK+FDFxhchiah47YBX9F+QMa58D0AZJwKr/T+kxcR4ccEnmMWI4lFwv3wxPM1w1gGEVA5F+2UVcWa8XiGQ8JlqA63MjTGXArf5xBH5gREWEvBCGsZGRkRgz9F6GI6rmngOwlE/FdTE59Yqbzq4QCrpiqEIaGvfH0qKxrPMtLBGMNJ8DQhlMiZIMKaXeENQ2EIBHGaopIPHbcxvf7662z58uVMYzAovPf3Y/iGw/c2L6ihL/AElzhJGBK6eo1v9JWsGMp23bSL9YRnCZPhoJrIyC7o/AMrOJptmxN3UAS1TIwtqpJPFXl1Obly5UrFCqqBjAOhLH4Rzxr10Ak1+sCBAz/RUybeeS30POQ/NFe/m3a7boLgMinz7mJlYCH3gWFCqBHwx2Rgt0r+lYapEcm3bNkyZd+Yl5enkC9aOAokIx4/IBl/9atfKTFlYiT4ZTWfkIT9+vVbab4m+2oQUoRdw+e/pZCx4UfPs+8cTMbTaeyCrkeUIE9WJSQfhp7QSj61H6oXjHowj2TE2/cayGhqKNhu7969hXo2TUgSqrPkuvKl+WxsfiY70X8DOwlkxNEIPSKd8ofGmXO/s+xmvUo+jP0SS/MFkw+POmBJ+OHs2bOvysnJ2Yf/j2TE74MPPrCUjKB9j4NlVJgzQsRNmD1hJPF0ZQ/2wr+NB8NNb7bjl/9mGbv7sQ5wfOWg/eLI3Equ4e+RfGps0NA9X6R5UA/5r7jiipcnT578X0A+NfzbILjRkAtEfmb79u03owUVl6lIRvx4BpfCPkA4/Fd0/pTFPbsw/nVakfLlvzKdFc1Z5RjjDb5HCMGenv54rClHbhRgNKLgslFv+EEsC6Qre+SRR3pHm6fjx4+nfPzxx8+BRfVnYNRJQc0YHGAYSWkm7CE6bsOSNwc0obFoU1qFjHM+6Uio4uPb/tztzD3/bUeQEY4qfrP8ZtOigYQwQgIkYdeuXbfDvlGzhROeM3to48aNi9ROG207eNDQj8PPPPNMVB9W0yBZUIG0Oygw3ixTjDe1l77pBOPN9KEHTL9LaISAQTJ5So98nnfeed906NChxeXHZNuKRgVN/gs9fUiUvNKSsMV4M+HtuwPGm0+kNd6AlfTyC/ZZaiXVILCaduGfffbZ3QsWLKgEF7XPT548yS00AMQsrZ4wYcL7GvqZcFmkJyEijsYb17UfT2ID1ucq54uqJTXhpsNgh1D8YUl67aCDprWhwR4oMEcrC+S7b/78+c2w53wd9pw5vHxEsU3UglOmTHnARN/jWtQRJGzRir3GlytL1G5gvJHtsB+04dRh2+KpDcMeVsLe75F58+Y1g9FlCSw5k3iST51X2AtWwJNor8aVSSYadxQJW8g4eM6HChmbbviDNGQMaMPbRhUyT2NcTp5ayRKQ7+H777/fB0cTfwbiJZnd80WScbSIQqCpn5jgQNyLOpKELWQc++xjAePNy1IYbyAO6eWDdrKe2R7bl6XZ2dlwxwy8sN9++8kA+Z7QesBvlAVole3evfsK2AviDX9hk7RHFHpnBMLrZ7IvbvsCDvuHK4f9mDSZGvS2ZHF++FmtrMpmv1813vYbFuqLvlZpvVDkwBPHCy8w2f8OAOcpdLQmDMYSjDce1/TdI1ifFSOENt4EXNnuHGP/shT3e3YREAk/a9asGZz5EJfqiIQhsMNNje0B480Nwu4XA8vSYT2/t31ZaocUozUUXuP9s+jLUBUrImEEqXENnvOB0MYbIOJPJn7COrWrl4qIuA/s0qXLu3PmzPmtHYS3ow3aE2pAGYIOJ7HND73JGt+7neUIdKEYf2Jhefqb96YpRExJEiYKYNhZCTw6s2nRokVXaJg2YbIQCXVMFdzU6AU3NdaC8WawMMYbIKK3Pp09uupHQhMxQMDNQECMcSpVIhIamE4IszEMwmxsZx36MpYFnleJbkUNaMQnV09ilbXpwmnEgHP350DAcQamK+GL0J7QwBSB8WaHsl9s/4vbhTHewEw/PPp5dl56ZbV6fcjA0G0vglbQHj16vCorARFQIqEJsYKbGssT2nijRhpAX1l00xuwYuov//Rq+4kTJ86DMzaPiaHbUhT6WD9p0qRb4IqU0B4xscCi5WgshHT8u+9fk9ew0x9fx3LOh2hw4DoWz2UqErAabgqdLIX42M/9HH4wlgQPBW67d37xxRc3wV6rv11ne1qhRE0NTt474W7gMK1lRM5HJOQ8e2C86QnGm0/AeDMwLsYbJF8zBNGtgKciuj74F9fYZx+KNkRwM3sMbrovVMNOcIZDV3WBEBlVECJj4R133PG/ugoLnJlIaNHkgfFmDBhvNttmvFHJdxzI1+bGteyy525wteut+aItvCn/PmjHm+JBxqBHaF6Dpedsi6YkYaslElo8NRBm404Is/Em62nRElXd1WPox6YhB9iw52+EQMn5RoYFJGwDtx6ehoBMcyEGTLLVy1RcdsJl3Bp47/4FOHz/nZE+y1CGSGjTLPo23vcXVvnSAm5kVMmHRhcM8Dd0xTVgtf2U13DgKtLsDRs2LASi9MbAT+pnpn7UeOoHBP923Lhxv4N7gMvM1ClDWSKhjbMINzUy2OYH3wfjzbWmjDfK0hOij1eUoNFlHhhdLN0/ASFvLywsnAWa8nJ4Vz4HWndpIaVKOMgPb7Q0YTzQzyEe6btAvBU2wp7wTREJ4zBFYLzpD8abD8B4c6Eu401ro8tiMLrEJbDR1q1bex85cmRMdXV1H6/X272qqioXSNYWoQSS1sHdQjfsLQ9lZWWVduvWbTO8Ha/cNaQUHgEiYRwlA2Kk3ggxUle2GG+i9QUtnmh0SZr8Jbvi5YlgdOH7QmgccXB600TCBJAAMN7cBcabN5SuwMtvLBnc4dRUB+d89fA/GZO/YIMf/rlRo0sCDJO6EAEBImECiQbsGduwQ19NZQ2eHFZ/8HyWnlvC2ucWgMFlYwJ1k7pCCBAChAAhQAgQAoQAIUAIEAKEACFACBAChAAhQAgQAoQAIUAIEAKEACFACBAChAAhQAgQAoQAIUAIEAKEACFACBAChAAhQAgQAoQAIUAIEAKEACFACBAChAAhQAgQAoQAIUAIEAKEACFACBAChAAhQAgQAoQAIUAIEAKEACFACBAChAAhQAgQAoQAIUAIEAKEACFACBAChAAhQAgQAoQAIUAIEAKEACFACBAChAAhQAgQAoQAIUAIhEHg/wGFCcdWdygPhAAAAABJRU5ErkJggg==;" vertex="1" parent="PzlkRYsVzpQkyw8jTia9-21">
          <mxGeometry x="17.5" y="130" width="70" height="70" as="geometry" />
        </mxCell>
        <mxCell id="PzlkRYsVzpQkyw8jTia9-22" value="" style="group" vertex="1" connectable="0" parent="1">
          <mxGeometry x="210" y="150" width="290" height="330" as="geometry" />
        </mxCell>
        <mxCell id="PzlkRYsVzpQkyw8jTia9-6" value="" style="rounded=0;whiteSpace=wrap;html=1;" vertex="1" parent="PzlkRYsVzpQkyw8jTia9-22">
          <mxGeometry width="290" height="330" as="geometry" />
        </mxCell>
        <mxCell id="PzlkRYsVzpQkyw8jTia9-7" value="backend" style="text;html=1;strokeColor=none;fillColor=none;align=center;verticalAlign=middle;whiteSpace=wrap;rounded=0;" vertex="1" parent="PzlkRYsVzpQkyw8jTia9-22">
          <mxGeometry x="110" width="60" height="30" as="geometry" />
        </mxCell>
        <mxCell id="PzlkRYsVzpQkyw8jTia9-8" value="" style="strokeColor=#dddddd;shadow=1;strokeWidth=1;rounded=1;absoluteArcSize=1;arcSize=2;" vertex="1" parent="PzlkRYsVzpQkyw8jTia9-22">
          <mxGeometry x="55" y="50" width="180" height="60" as="geometry" />
        </mxCell>
        <mxCell id="PzlkRYsVzpQkyw8jTia9-9" value="Firebase Authentication" style="sketch=0;dashed=0;connectable=0;html=1;fillColor=#5184F3;strokeColor=none;shape=mxgraph.gcp2.firebase;part=1;labelPosition=right;verticalLabelPosition=middle;align=left;verticalAlign=middle;spacingLeft=5;fontColor=#999999;fontSize=12;" vertex="1" parent="PzlkRYsVzpQkyw8jTia9-8">
          <mxGeometry width="32.4" height="45" relative="1" as="geometry">
            <mxPoint x="5" y="7" as="offset" />
          </mxGeometry>
        </mxCell>
        <mxCell id="PzlkRYsVzpQkyw8jTia9-10" value="" style="strokeColor=#dddddd;shadow=1;strokeWidth=1;rounded=1;absoluteArcSize=1;arcSize=2;" vertex="1" parent="PzlkRYsVzpQkyw8jTia9-22">
          <mxGeometry x="60" y="150" width="160" height="170" as="geometry" />
        </mxCell>
        <mxCell id="PzlkRYsVzpQkyw8jTia9-11" value="Cloud functions (API)" style="sketch=0;dashed=0;connectable=0;html=1;fillColor=#5184F3;strokeColor=none;shape=mxgraph.gcp2.firebase;part=1;labelPosition=right;verticalLabelPosition=middle;align=left;verticalAlign=middle;spacingLeft=5;fontColor=#999999;fontSize=12;" vertex="1" parent="PzlkRYsVzpQkyw8jTia9-10">
          <mxGeometry width="32.4" height="45" relative="1" as="geometry">
            <mxPoint x="5" y="7" as="offset" />
          </mxGeometry>
        </mxCell>
        <mxCell id="PzlkRYsVzpQkyw8jTia9-18" value="" style="shape=image;verticalLabelPosition=bottom;labelBackgroundColor=default;verticalAlign=top;aspect=fixed;imageAspect=0;image=data:image/png,iVBORw0KGgoAAAANSUhEUgAAAkEAAAGxCAYAAABlfmIpAAAACXBIWXMAAA4sAAAOLAH5m+4QAACAxklEQVR4Xu2dB1xUZ9bGZ4beu4iIBUQUe4u99941dVNXU0xM3Zr9dr/sbna/ZLMxphhjui323nvvBRUQRRABAem9DAzfeS93JneGacCd/swuPwNz71v+7517nznnvOdIJHiBAAiAAAiAAAiAAAiAAAiAAAiAAAiAAAiAAAiAAAiAAAiAAAiAAAiAAAiAAAiAAAiAAAiAAAiAAAiAAAiAAAiAAAiAAAiAAAiAAAiAAAiAAAiAAAiAAAiAAAiAAAiAAAiAAAiAAAiAAAiAAAiAAAiAAAiAAAiAAAiAAAiAAAiAAAiAAAiAAAiAAAiAAAiAAAiAAAiAAAiAAAiAAAiAAAiAAAiAAAiAAAiAAAiAAAiAAAiAAAiAAAiAAAiAAAiAAAiAAAiAAAiAAAiAAAiAAAiAAAiAAAiAAAiAAAiAAAiAAAiAAAiAAAiAAAiAAAiAAAiAAAiAAAiAAAiAAAiAAAiAAAiAAAiAAAiAAAiAAAiAAAiAAAiAAAiAAAiAAAiAAAiAAAiAAAiAAAiAAAiAAAiAAAiAAAiAAAiAAAiAAAiAAAiAAAiAAAiAAAiAAAiAAAiAAAiAAAiAAAiAAAiAAAiAAAiAAAiAAAiAAAiAAAiAAAiAAAiAAAiAAAiAAAiAAAiAAAiAAAiAAAiAAAiAAAiAAAiAAAiAAAiAAAiAAAiAAAiAAAiAAAiAAAiAAAiAAAiAAAiAAAiAAAiAAAiAAAiAAAiAAAiAAAiAAAiAAAiAAAiAAAiAAAiAAAiAAAiAAAiAAAiAAAiAAAiAAAiAAAiAAAiAAAiAAAiAAAiAAAiAAAiAAAiAAAiAAAiAAAiAAAiAAAiAAAiAAAiAAAiAAAiAAAiAAAiAAAiAAAiAAAiAAAiAAAiAAAiAAAiAAAiAAAiAAAiAAAiAAAiAAAiAAAiAAAiAAAiAAAiAAAiAAAiAAAiAAAiAAAiAAAiAAAiAAAiAAAiAAAiAAAiAAAiAAAiAAAiAAAiAAAiAAAiAAAiAAAiAAAiAAAiAAAiAAAiAAAiAAAiAAAiAAAiAAAiAAAiAAAiAAAiAAAiAAAiAAAiAAAiAAAiAAAiAAAiAAAiAAAiAAAiAAAiAAAiAAAiAAAiAAAiAAAiAAAiAAAiAAAiAAAiAAAiAAAiAAAiAAAiAAAiAAAiAAAiAAAiAAAiAAAiAAAiAAAiAAAiAAAiAAAiAAAiAAAiAAAiAAAiAAAiAAAiAAAiAAAiAAAiAAAiAAAiAAAiAAAiAAAiAAAiAAAiAAAiAAAiAAAiAAAiAAAiAAAiAAAiAAAiAAAiAAAiAAAiAAAiAAAiAAAiAAAiAAAiAAAiAAAiAAAiAAAiAAAiAAAiAAAiAAAiAAAiAAAiAAAiAAAiAAAiAAAiAAAiAAAiAAAiAAAiAAAiAAAiAAAiAAAiAAAiAAAiAAAiAAAiAAAiAAAiAAAiAAAiAAAiAAAiAAAiAAAiAAAiAAAiAAAiAAAiAAAiAAAiAAAiAAAiAAAiAAAiAAAiAAAiAAAiAAAiAAAiAAAiAAAiAAAiAAAiAAAiAAAiAAAiAAAiAAAiAAAiAAAiAAAiAAAiAAAiAAAiAAAiAAAiAAAiAAAiAAAiAAAiAAAiAAAiAgN0RkNrdjDAhEAABELAjAvn5+SF37tzp5ezsXNOxY8fbwcHBj+xoepgKCIAACIAACIAACDQmkJWV1fadd97Z3L9///p+/fopXn755UMnTpyYWl1d7QpeIAACLSfg3PIm0AIIgAAIgIApCJw9e3bi8ePH5/JtSy9fvjwuPj5+4PDhw3fFxcV93r1794tOTk4KU/SNNkHAEQhABDnCKmOOIAACNkmgoKAgVCqVSurr67nxs38rKyt9Dh48+CQJpMkTJ05ck5iY+H3Xrl2v2+QEMWgQsDABmYX7R/cgAAIgAAJNIMCEEPspLS0N2LJly+u///3vt6xatepP2dnZ4U1oBoeCAAgQAYggXAYgAAIgYKMEmBh6+PBh5Ndff/33pUuX7iNR9GJRUZG/jU4HwwYBsxOACDI7cnQIAiAAAuIR4F1lsnv37vX417/+teLPf/7zL4cOHZpTVVXlJl4vaAkE7JMAYoLsc10xKxAAAfsgYHQaE14MuVy4cGHi9evXh7Hg6WvXrn3es2fP8wieto+LAbMQnwBEkPhM0SIIgAAIWIwAE0O0hd7r8OHDj58/f37C1KlTf7579+630dHR8RYbFDoGASslAHeYlS4MhgUCIAACzSUgCJ4O3LBhw5u/+93vtnz77bd/zM3NDW1umzgPBOyRAESQPa4q5gQCIAACPAEmiNLT02MoePrDN954Y9/27dufKy4u9gMgEAAB7A7DNQACIAACdk9AaRkit1iff/7zn6v+9Kc/baAkjNMQPG33S48JGiCAmCBcIiAAAiDgIAR4MeTMgqdv3bo1cOjQoXtu3LixnIKnLzoIAkwTBNQIwB2GCwIEQAAEHIwAE0Pl5eX+lHn6qbfeemvPJ5988jFZibo5GAZMFwSQLBHXAAiAAAg4IgGli4ySKwavX7/+nffee2/r6tWr3ywsLAxyRB6Ys2MSgDvMMdcdswYBEAABFQESRNKMjIzOn3322cdUpHVMZmbmkvDw8AdABAL2TgDuMHtfYcwPBEAABIwgoIwXOnPmzHSqRfY+gqaNgIZDbJ4ARJDNLyEmAAIgAALiEWBiiHaOzUlJSYkVr1W0BALWSQAiyDrXBaMCARAAAYsRYBXqExIS+llsAOgYBMxEACLITKDRDQiAAAjYEgEKmEaAtC0tGMbaLAIQQc3ChpNAAARAwK4J1Nv17DA5EOAJQAThUgABEAABENAkABGEa8IhCEAEOcQyY5IgAAIgAAIgAAKaBCCCcE2AAAiAAAhoIyAFFhCwdwIQQfa+wpgfCIAACIAACICAVgIQQbgwQAAEQAAEQAAEHJIARJBDLjsmDQIgAAIgAAIgABGEawAEQAAEQAAEQMAhCUAEOeSyY9IgAAIgAAIgAAIQQbgGQAAEQAAEQAAEHJIARJBDLjsmDQIgAAIgAAIgABGEawAEQAAEQECTAHIE4ZpwCAIQQQ6xzJgkCIAACIAACICAJgGIIFwTIAACIAACIAACDkkAIsghlx2TBgEQAAEQAAEQgAjCNQACIAACIAACIOCQBCCCHHLZMWkQAAEQAAEQAAGIIFwDIAACIAACIAACDkkAIsghlx2TBgEQAAEQAAEQgAjCNQACIAACIAACIOCQBCCCHHLZMWkQAAEbIVBvI+PEMEHAJglABNnksmHQIAACIAACIAACLSUAEdRSgjgfBEAABEAABEDAJglABNnksmHQIAACIAACIAACLSUAEdRSgjgfBEAABExLAHFBpuWL1h2YAESQAy8+pg4CIAACIAACjkwAIsiRVx9zBwEQAAEQAAEHJgAR5MCLj6mDAAjYBAGpTYwSgwQBGyQAEWSDi4YhgwAIgAAIgAAItJwARFDLGaIFEAABEAABEAABGyQAEWSDi4YhgwAIgAAIgAAItJwARFDLGaIFEAABEAABEAABGyQAEWSDi4YhgwAIgAAIgAAItJwARFDLGaIFEAABEAABEAABGyQAEWSDi4YhgwAIgAAIgAAItJwARFDLGaIFEAABEAABEAABGyQAEWSDi4YhgwAIgAAIgAAItJwARFDLGaIFEAABEAABEAABGyQAEWSDi4YhgwAIgAAIgAAItJwARFDLGaIFEAABEAABEAABGyTgbINjxpD1ELh79263q1evDi8oKAj18vIqiY6Ovtm7d+8zHh4elQBnWwSq5NVuTjKZwsXJRW5bI8doQcB+CBQWFgaVlZX5+vv75/v4+JTYz8wwE0YAIshOroP8/PyQPXv2PPWHP/xh0f379ztLpVJm5av39vYuHjx48P6bN29+2qNHj0t2Ml27nsaN9LihJ2+fnPvhzn+0k5II+un0jzdHxIzc3DGkY6JdT9yOJieXy52TkpJ6JyQk9KXPYn337t0vderU6ZaLi0utjUyz3kbGabJh0vr13Llz57PvvvvuABJBfgEBAY+++eabY9OnT/85LCwsw2Qdo2GzEpCatTd0JjqB8vJyz3Pnzk386aeffk833H50w3Wur//1/kW/c336+fk9mjZt2g9z5sz5tn379smiDwQNtphAam5q1x1Xt792LOHo46Xy0iCppGHtFPUKSSvvVmkz+s5cMaHbxJ9DfEOyWtwZGjAJgbq6OtmNGzcGrV279s0rV66MLSkp8aOOpGRBKB40aNCB+fPnf8Uss05OTgpjBrBq1ao/rly58kPhZ9qY80Q4pvaVV175y0svvfRvEdqyqSaysrIiduzY8ez27dsX5eXlRQgHT+tQz8QsrePy8ePHb6L7arFNTQ6DbUQAIsiGLwq6yQ7ftGnTyydPnpxZU1PjZehGSYKorkOHDrfnzp27YtKkSevpm02BDU/fboaeX5oXeij+0NN7ru9elFmS2VlCj0fNtZTKpNzfYsO6nZ1JYmh45xFbPdw8KuwGgh1MJDU1tTM9OF/YvXv388XFxa0arSF9IaGHZi5ZEr6fMWPGD5GRkUmGps2LoH9SW+a+VzucCCJrj/fRo0dnr1+//q07d+70pvulVNs9lf9iWccs7AsWLPhyyJAhB4wVtYbWG++bn4C5P1jmn6Ed9pient5x69atvyVT7Yvabrb6psw+wPQj79Onz+mnn376P/RBPmhDJnq7Ws2qmir3C/fOT9l4cePbCQ8TBpMDU1av0OOFoE8rE0OuUtfKAZGP7Z03YN6yHm17npHJZA7vurDkhUGfQb99+/Y9SV9IlqSlpXWhsch0fSFhnz/2Hn0ZSZw3b96XU6ZMWUvCqEjX+HkR9Hc6x8nMc3QYEcSsdyyOkqx3b124cGEiuTLdDX2hZGvB1pLCDQrHjh274cknn1weFRUFd7WZL1IxuoMIEoOimdrIzc0NPXLkyJxffvllaUZGRgzr1pgPq7bhsQ+wq6trxejRozfTt5mvevXqdcFM00A3ROBm2vVhm69ue+PcnTPTaqW1Hpz4MVLKcN9EKeLLy8W7YEK3CT9P7zN9ZYeQjrcB1rwEKisr3c+ePTuJLAdvXrt2bTiLwzP288hbE+r79u17nD5/nw8dOnS/ts0LvAj6X2rXxbyzkziECLp9+3Yvst69SCL2NxRa4Gfs+inXQhluEBoamjZr1qyVLF6odevWmWZeK3TXAgIQQS2AZ65TWZAlubymbdy48TX6xjKCPqiuTf2w6hor+xCHhISkkXmemeh/DA8Pf2CueTliPxn5GVF7b+5+6cDNA78prChsw62jkeKnES9mGaL1axfYPn5yj8nfT+415XtfD1+dVgVH5G2qOd+6das/fR5fOXbs2DwSQ77N/Tyy9XN3dy+lLyNbH3/88c+7det2RThmEkF/oJigv1H7bqaai4527VoEsY0ku3bt+g1Z1F/OzMyMJAYtShfDW/jqafPJuYULFy6n9dxB61pl5jVDd80gABHUDGjmPIV2dQ3YsGHDa+xmW11dbTDupzlj4z/ACjLn3qQb8Wdk3t2KgL/mkNR9TnFFceDRxCOPb7uy9fX0oowu7INXX9dc9aPej9SJWlNIFN3De5ye13/ep49FDdzv7oobsLgr2NAaBc223bJlyyJ6gL5ID9I27G/NFUDK8SmtCUFBQQ/JkvAtxex9S7uP0mlrtv+f/vSndZcuXZrc0j6awcIuRRCz3rEvlOvWrXuHhOxAXXE/zeDFncLWksILKilOaC+FG/y3Z8+e5yheSJwPenMHhfP0EoAIstILhMX9kJn2eYr7eYFuhuHmuAnyN+OagQMHHqZvM18iXqjlF4e8Tu5y7u7Zqduvblty7cH10Y3ifsS6PXLxQjKKF3KpGNZ5+LbZfWd/3i2iO1ycLV9CroXS0lKfgwcPLmBxP8nJyb3Y807sz6Qy4Ja+jMSxnWQUaN31zJkz06gvS6QysTsRdPny5RG0fouPHz8+l+KA3MReP+GlxtaS8gplT548eTXbkduxY8c7Il2KaEZkAhBBIgNtaXPsZrt///7HN2/e/Aq72TYlzqClfQu/mVKixcJx48ZtpODNr7t27XpdrLYdqZ2krNt9t13duuTk7RNzqxRVvg2WHx0fOVHFkFQS5BGUMTZ23LrZ/Wd9EeoXlu5I3MWcq0KhkFKw7FiKw3udBc3W1taa9OGptCbQvyyfEIsxapGbpgUs7EYEkburPbOmU9zPM/SFsrUpxY+mEOKD4BMEQfDYUt+Ci9IUp0IEmYJqM9okV5cb3WTHkJl2KZm/x5H4cTLXh1XbcAUm+nT6AK+YOnXqmjZt2uBhasTaZhU9bL//5r7nd1/ftaiwsjCMnaK+60vPx04kMcR2kbFYo4jAiATaRfbp8M4jt/p7+SMlghHrpzyEZV8n8fPagQMHnqqqIhEryL/VhGZs9VCbF0HkrgymL5RPsC+UZFnvyn0OLbCG7F5KYrqWduSeZTtyycp3iILgES9kJZ8MiCArWIjExMTe9EFdfPjw4YW0QyHAEh9UAxgUsbGxl8ms+/WECRM2kpWo3AqwWd0QKqorvI5R3M+uuJ2L7+QkDaAAgQbxo1fYmNYyxMQQ7byX92nX58jc/vOWDYgacNhJ5lxndfCsaEBsFybLFMxSUJAVobMVfh7NQYuJoPcpWeL/maMzMftgG0nIjTiJrD+v0xfKsdS2Rb9QKufGxBDdO4tHjRq1lcINPqd76jUx5422mkcAIqh53EQ5Kycnp822bdtepCDL5+m/21OjRm+xFWUATWiEfYApwI/FCx184oknPnvssceOIkFYA0B5rdz5WtrVMVuubF56Ne3KuDppnatW8aNTDJlWCDEPHAue9pB5FA/vPHzLvAHzl3VqHX2zCcvvEIdS0KwHxYvMIOvPG3zQrFU8PC0E3+ZEEHNdUpLDnmvWrHmL1nEOWe98rE3AKi3stCM3nXbjfkvb6r9HCQ4LXeF8txBBFuBPydX8WWZS2mK7hD60rLaQRcy0zZk6GyuZcksoydtPtIvlm86dO99qTjv2cs7d7Du9dlzb8cqx20eeqKyjrdL6LD8WtAgx3sr8QixeaFqfGVSCY8KasIAwh0+JwJLlUZ6foZTvZ+np06en0++ipaCw4evcpkQQ5U3rwLJ1i7lrz5Rrp7znUwmOOPpSuYy21G/DjlxTEtfdNkSQGbmzbyoXL14cQzfbNyj+ZwIFWRqVmdSMQzS6K/oQKyIiIu6wEgCzZ8/+ztFKcBSWFwbvubHrtyz252HJw2jDbi8BWkuLIVaCQ1Ff37l1zOXZ/WZ/PjJm1BZHLcHBdmGS5WcJ7fx60pxBs0Z/0Cx3oE2IIAof8Dp06NB8tmuPEh/2scRGkpYsEb+lvortBmQuMvr3SEvaw7lNJwAR1HRmzTqDD7J8nY/78bc2M21zJqXML0S+7Ussv9DIkSN3Uhp5u44XKq8q9z6TfGbm1mub30jKTnqMtrw35PtpTkBzU91jbJGa04+2xeVdZLI6mXxAxwH75j02f1nPiF6nXJxtpsp5cy5Z1TksWR7bhUkPz9damn29RQOx3pOtWgTRRhJXljiWXF/v0Nb3MbZuvePjhYqopuNq2oiyMjo6Ot56Lw37GhlEkInXMzs7O5y2Zj7BMpNSorUoexA/msj4eKHKESNG7GIlOPr163fSHutZXX9wdQRLdngu5dy0WglZ8bQlO2yOSLGkZYivR+bt4p0/vtuE1VN6Tf02KjTKbm/AbBcmuby4UhfXr18fRteysz1+JkW4rVmtCEpKSurJCkdTCaGFlFIk0J7Wj+6l9bQLN5ltQqEduWspdihHhLVEE3oIQASZ6PJgQZaU5XkWu9nS7q/+1I3VBj2LhYBPEJbD8guRn3t5+/btk8Vq25LtZBSkR7Gg5+O3jy0olheF1rO9VdxWWxEDmi0phNhM2JZ6eoX5hiVP6zV95aRek38M8ArIsyR3sftOSEjos3r16rdJBM2kz6fVBc2KPd8Wtmd1Iojt2tu9e/czyi+UnGHUAlveW8jV4Ol88LSCleCgwqyfDB8+fC+V4Kg2eCIOaBYBiKBmYdN9EguyJPPsSFbni26200ydmVTk4be4Of4DXN+2bdu7FDj9FZl3f7HVbzP5ZfmtDiccfHpX3I6XH5ZkRTPh07jKu/0IIbb4bBcZE3ld23Q9N6ffnOVDoofu8nTztGkXJ1V2j2Jb3nfs2PFSUVFRQ94mO3x4tvjDq96A1YgglkCW7qVTmOuL4n7YRhKH2LXH7qVkUa9ideXIwr6id+/eZ7EjV+SrXPdXWfE7coQWKc19Z/qW8ltWkZhutq0c+UbLiyE5JQg7TfFCy4cNG7bXzc2txhaug9o6ufPZe2enbbu65Y24jOsjyODjpBI/5rDYmKMPAwvBLEOuTq7lQ6KG7pxFwdM92/U8ZwtrJxwje3hSDN5cyhfzBsXk9cb9rkkraBUiiHbtDWEpC9gXSlPVTmwSFQsczO6lVFcuk+3IZfFCKHIt7iLAEiQCTxZkuXfv3ifJ+vM6xf10oCYd4puKMejYB9jV1bWCRNBuypb6CVXJvmyt32YU9Qoplbrov/HyL++cIxFUI6nx0hr0bK6AZnP1o2MhOSFL//d1882leKGfZ/Wf/WV4QHiqMetuyWNY0CxZY0f9/PPP71Lcz3CyxtrsLkwLcrSoCGJfKGnL+4vk/nqeUoqEOPIXSs5C25BGpb5Dhw6J8+fP/5wE0TpfX98SC14fdtM1RFALlpKScblRUq6ZbHsmC7KkC1X0oootGJ5VnUpmXa6g4LRp076fOXPmj/RhvmtNA8woyIjce3P3S/sT9j1XVEWlLijoWa/HxFzWGgsLIeUNmImhdgHt4qf1nr5yXLfx66gER741rZ9yLMrs62zLO8X9OFqpCzGXRE4Zo/9i7ozR7AslK1TLvlBS+oLO7Pnv6AJIuKi8hb2uf//+R5mFfejQofupaj2rM4dXMwlABDUTHImewawo38mTJ2c5qpm2qej4D3BtZGRkIpl1v5g4ceIGSycIK60s9T1+5+jCbde3LEnNS+nJfeNiCQ+VQc+GdntZXAxxMkX7UhgaexMXkMULyepltb3a9To+u9/c5QMjB+6zli31eXl5rchy8Dz9LKYdmR3x4Gzi4jY+3KwiiJW6IJfXZLaRhCWupPUzeaHaFhOyYAPKLfVUgmMLWdg/xZb65i8GRFAT2d2/fz+aSl28xOoKUcxBEDsdN9ymQeTFUA0F+p176qmnPhk8ePBBc+9+qJZXu115cGncpisb3o5Lvz5S4sTH/SjUvnc1/GJITDiSEGIuMsqN5ColF2fnYdvmDpj/KQVRX2naFSDe0Szuh+3CZHE/fNCs3e/CFI+e3pbMJoLi4uIGkTX9FdryPo/EkCfup8atsLIER3BwcBqV31jFLOxUgiPTuLNxlJIARJCR1wK72bLtmSSAFqekpHSnDyo9CvBqCQG+BEfxmDFjNrPdDxQvZJaHKRU37b0rbtsrx+4eXVBRW+mvyvejKWZUv/MfE0NiyKBg0vJxM6ZNTcjmEl36FpfPLxTiFZI2vtv4NdP7zFgZ6tc6vSXXQ1PPpeKYI1i2ZyqWOd2Ws683dd5mOt7kIoiK07Zn1jsqdfESWfLCIX5atLJyVuSaZZ0eO3bsdiptVNmi1hzoZIggIxabpdZftmzZ/5HrawbMtEYAa8IhwoKCixcv/h8qw/ETBU43RxoY7LWooihwx41tr+6+uWNRfmVehISsPmpb3usNiRR635iRmSuOx1z96CHL5ReicUQGR8bN6T/v07Hdxq53czHtLkBmjSXx8yrFjjxTUlIShIenwUu/OQeYTASxWEqWQJbW8K3k5OQGFzRSFjRnjdTO4UtwVFCR6wOLFi36gETR9RY36gANODvAHFs0RdqZ4PfBBx98dOLEiTmw/rQIpdaTlTc/SoQWQULzE4oRYgG3u8TuKa8sr/V/Dv1rxZn7Z2YxqaMSP9wvfG9KDSQUF8L32WHajtEcrOY5qvc1OxKcqPMcfQpEMHa1w/QkchQZLMeRxp5akNpr2cH/rnxYlBFVVVP9T3dXN9GTu7G4EbIcPLd06dJ3yYoQw6aCh6fIC2ri5phF/fPPP/8rub9ep1qKrlhD8YCzz0JNTY0nWUZn0xeFmCtXriyi7P1nxOvBPluCS8fAupLJfQwF7E2FADLtB4B9gKkYYiBLaMeKIord29brG984m3Z6loTMP/X1aoE/DcKGEzdMPLCHesODXfXSfJ87RiCItA1W7/t8P9rEU1Ntszr7UfahYS5SHt/UfvQtCHWhqFNIautr3TZd2vzOlfuXxom9fqw9ckc/TUJ5GRNA7HqBADIFZdO2SXmb5m3evJkTQFg/07AmthKqhxf73Xff/ZmKAgeYphf7aRUiyAgRxPKM2M+SW+9M2E3x1q1bAynXUnsxR1lAmZ9P3TsxhxMuKmOMIb+WhhBiA1ITHPz5hsSEQTGkZaaG2tQlunRC0zHX5vSjZ2GYVahWIvc8GH/o2eqaajcx1/DevXtdWMZg+qbrhYenmGTN1xZZ1QNY3h9bL3ZqPmLN74l9RqjA7Ei6nz7W/FYc40yIIAPrTNtt2QNZ5MeFY1xcTZ0l++BSugEPyu8iqiUorzwvrLiyOJgTQGoWHg2rTyMrieB9fZYhQ1ahRgJKSMaAVagpV55BwaVFDBkz9iYuZG5xTkR5dZlvE0/TezjV/er74MGDzuxbLl62SYCy6AeRFa+jbY7e9kZNmwVcHj58KOoXStujYHjEEEEGGLH8h4Yx4ghrJlBdW+VVp6j9Nf6tkbDgxY5wEmrH6BEq3DlKN5oRFHSKGj2XWVOEkF7BpRyrlnGKKIbqFHXOtYo6FyNoGH0IWRGCSADhfmU0Mes7kD2UyQqEOFTzLU09xdFxcVd46SaAmwquDscgwD3kBUJD20NfU2xoHmPsOYaI6hVCIrqumtOPobFb6H2yEjZVClpopOgWBEDAlghAlRtYLbIEwf5uxiva5A87pRBSPlOVj1ZOewjigITPXNUxwjgg+qMqvogHpNzmyx3Pn6TLwKPWryZgzYb59/Weo2ORmtqPUGrABmrGKx9dgQAIWIIALEGWoI4+rYCAll1TwlEZ9ILqCJxWtWFLgdMGBJQVrBaGAAIgAAKmIAARZAqqaNP6CGh1bRkhhLQGRCunJ5IQ0kvLwu4x63FCiRi1ZH2XJ0YEAiYgoLkVxARd2H6TcIcZWEOqfl5nK8uszL5MGZdrqBZXOQUhyminlTf93QnbinW4lPS6x9g5Wlxkhlxoai4lHS40zYtKrxvKgHuMH6ZR16m5+jFqMPZ/kPIzic+fba41n826ho2e/hu5jWxzGfWOGiLIThaVfVi9vb0Lhw0btmPcuHFbwsPDU9nOgJs3bw6k2jzPJSYmDqBjHLO4JPfg19jhxf4mNLIwMaQ1DkhwgTQ6R7MN/li1drUcYyjWRrMf1RB0iCHuDq3RjzHXtd5+rMcEpLECxszM4sewzyP7MtK9e/dzbEcU+/whP47Fl8XoAbD1ox85FXk+Q/fTjc7OznIq1DuHJc+ldbSVCvc6trUajcEhDoQIsvFl5r+p1Pft2/fIE088sVxLRfZrlHxwDytUSJXvX6BChe0dMtuuypnCxA6vGjSDhoVxQMYGTmu1+mgEResKrNZnwWlqQLNSCOlrU9u1rrMfTSXHn4zAab13DN7yUx8VFXVj9uzZK8ePH7+JZZvnK90vSU1N7YFaWdZ701WuX0RExN25c+eumDRp0jqq0v6IjZjSNGymjNfzKeP1q3fv3u3NfdRQ88x6F9PIkUEEGQnK2g7jb6SK9u3bx8+bN+9r+rD+EhAQUKBtnGFhYay69we3b9/esXbt2qV0Q55HRQx9HPYDzFlABO5yrRYRDXe6IcuRGnilC4xO0qYllDvRmPnGkAXHoBjSYrEx1KYuMWTIQqV5XnP6sbYPkojjYZ9Jf3//rJkzZ35LAuj7tm3b3hc0/w0VYj60devWl9iXEXqgtnbYz5+IzMVsiq2fj49P3owZM76fNWvWdx07drwjbJ/qGhbR76voS+UBKu/zAn2xfIm+VIZDDIm5CuZvCyLI/Mxb3CP7sAYGBmZMmTJlNX1bWUXfWlKNabRLly5x5CJbxNxlGzdufPXChQvj6TwXh7gZa2oFQ0JI6ULTdJE1yYXG4ok0hFAjsWSEENK7uDpiH5sjUMzlhjPmYrWhY9jn0dXVtWLMmDEb6QvJSnKhnH/99dcbzYD/nP75xo0bO9avX7/k5MmTsyhDuuN+GbGSNWbrRzGUZRRKsHvhwoVf9OnT58xbb72lc3T0pfIBvfk3cnHuYFahI0eOzC0rKwtwiPuolayZmMOACDJAkwKjrSZPEB9nUDlixIgd9GH9in1YKe6gSeNzcXGppSnvocJ65/fv37+QPsQvp6Wldae/Sa3kQyylzMBOYl7kqrYaub+473CN3WP8n7nzVIHT3C+Nq8ibyoWmCUCvGwqB0ya5Xgw0yltj5b169To9f/78FSNHjtzt4eFRaWgsPXv2vEgPzVdHjRq1c926dUtZvTxqyzG+jBiCY8b3levXo0ePi08++eSyIUOG7PPy8io3dghdu3a9Rhb112jdt5OoXXrx4sVRWEdj6VnPcRBB1rMWOkfC+6nl3bp1u0Af1s9IBLGbbVVLhk6us3w6/yuq5bPnl19+ee3AgQNPFBQUtLUSIdSSqek4VxAj2Mi1pRRDAqWh7Ridri2+yxadw1t0jLHgmMtio7cfLW44XieaYPGUTero1IQ9amlaueOLNh8kLViw4IvJkyevJ8ss+zwZ/aJNDGV08GZyp5zct2/f4/Rl5BX6LHax38+f0WhMfqAy7odCCZLIcvfVhAkT1gcFBeU1p2OyILGdY3tKS0tPULzQgg0bNrxO8UIs7ssqduTa0u7m5vAX4xyIIDEomrAN9oEl82vynDlzvib31/rQ0NCHYnZHN/I0srz8nr7N7KIb8SKKF5pLNX48xOzDKtpij09uB5hSsAiep6q/8f/R4sBpgQtMzYIjiBXidRc3GpWFSvm+4I+64nQMxgppUSR6z9GxSjrP0RM4zbKPWYVcEf/Ko4eKhKwFBVOnTv2R4ka+j46Ojm9JL3zQ7fLk5OTDmzZtepm+jDxJVqIgiKGWUNV9Lls/itvKoRjKtXRP/YbifpLE6IliiZio/Z6E7BEW80U/z5PAjbBkwV+6hurpy26zxJ0YTGylDYggAytlSSXNBBBtsT39zjvvvEUm28umuqhojuyJdopyCl0mE+/Vb7/99n8qKir8TdWf5dpl7iylENIRS6PUDi0KnGaxQNSQZrkrlWXFQQKnLbfQovfMu6KrBw0adIC5Tvr373+iqa5ofYPq1KlTAsXrvU1xRdtWr179Dm3FHktbsd0hhsRbSgoFKKcve3toF+1ndF89T9veDYYSVMorPS+knZqTUfig6/CosWvbB3ZM0Dci9qWS3v8rxQttJwv7G2Qdmk0uMz/xZmFcS/yX57SYmJg4485w3KMggqx07dlFTCbadBJAb5tSAAmnz+IZ6Mb7GbnFWq1Zs+Y9es80sTmWYC60TKiJES1xPsYIIa49Jqj0udA03le1qwTgAIHTllhrkfukz2IdPUyusBQUo0eP3t6UuJGmDIWP1ztWXl5+kR6ec8ky9Ao9TB+jNpDZvykgtRxL7sciCnZ+m215JxdWtaHmWKLZhOzrIz87/uEbVzLOT62X1bucSjn65LYbv3w1InLs2iDvEL0WeRYvRG28yETzf/7zn+VFRUUhhvoU63327HBzcytkoRORkZFqO9zE6sOe2oEIMrCadEEZ/LZgogtCQbE/u2JjY6+YqH2tzbJvt3fu3FnLYoSUOYXM2b9p+mJig//htcuv7hotgdFqccbmCpxuogtNE1RLAqd1udy0LYZBN1xTGjPNaovZKnugsMDn999/f5Hmlmkx+xG2xYusn+/fv3/uz3/+85qkpKTHYBFqPm0mYil/2v7p06f/ZIz1LqPoQeefL61cfDLl8NNl8pJWCmYVproB+ZWPOqy9vOrfV9MvTD2bcvzzAe2H7nBx4jaa6LyX0hu//P3vfx9FW+pfojU06ZdKPtZJQV+eHzz33HMfkbv2x+ZTc5wzIYKsdK3pA1PTr1+/48Z8aMWeAgUM3qXtvPeYCBK7bYu2p3SFad22LnCPaQ1w1nCftSgImqeg1gZvFVKKNCUobVYrQzqjqQHNosYKaU7AoisuRucK+jYdby4BJBxwhw4d7n744YcXSQT1p7/DGtT81VRQ8spbhu6lxZWFwcza869Df3o9pzy7E3clK379sLH/pluH7HbezZF3TiYOHNBuyI6knFufdgrueklf23TtMBcaE0smE0FMAJElv5jSn2ygncNfUjqUG83H5VhnQgRZ8XqTSbNFO8CaOzUWB8VqjzX3/JacR+KPbdUXN6xW1ZoyJkjDDaUWmMz/olMIsdnpOkZgNdIKQUuskKYQ4s7TmL6hWCJtfTVVCCm7NSSwNPvS2U9LrgKrOpeVmmFpG6R87JzZBsdcMh999BFbEXsSQE29wsTgza5SnfeUanm169WMC9M+OfaP125lXx/tJJNKheJHOABmFKqvqycvuNz9QvrJhYnZN0aO6jThx4fFGava+LVN0TNYk6whv82ffWE+yWKdhg4dup93q4rBzSHagAgysMx0kVniQ8tGZZIPTROuanGFSBM6NsmhLPZbbSkFy6pWIkMpZNhtk0eg5h5joxPLhSYQU3yzDRpI0GGjvln3vJhS3td1XaE6XWTCE7QILuFYjFmM5liSjGkXx1jq3mNv5PXey44m7Vm09tr3H1Yrqn3YR14hsP7oAqEUQ8X1Ra13Jm78Q3L+nf65pTnPhfiEZmo5R68Iaw5s5TZ/CsROJvHzKW3z30RpGrATrBkwIYKaAc1Mp+AGKDZoTXeY5q1RKDi4/+ZdYNoe8pwFxIALramB04360bBYNeIhGF+zrxYNN5+yj+ZYeCCGxL5i0Z4ZCNwlAVMjqfZR1DU9/JOzGDlJJan5d/vmlGZF0nC1iSBRZ8GXZ8mh/FSrKU/VV8ZWDBB1EHbUGESQ9S6mfVliLM2ZC4zm3WG/JgvidY6GZURNFzTD6qPWHP8L9w/rnwehElzK9wXLrXaMwOqjaRVSCTXWtIbVSpO3XoGizdzUMFzu1RSBJfp3XktfOBbvH/cBEy+BTCqr0+X+Mqpr+nzIpE51erwGonwq+DQNVSzI+6mnnlpGFQNO0zZ/CtnGqyUEIIIM0LPg7rCWrCvOFRKgWxB7jpMn/9e/Ki053L8afqPmBE4LrT46LUeCQWkVQ/xAlYepWWN4EScUJZpiyZQFWZsqhnAFgoD1ELAGIdnsMShdX5Sm4erTTz/9Mds1TDsIK6wHr22PBCLIetevOQ4J652NkSMzSWA065u7BbGARvafvNhQEta8PXExNwJBohIbAouJ1tXRsKhoHqNK1KjrfshbfXTmHtJjsWmKVUjJQ6uFR4d7TO85Ri4uDrM1Ak2xAdra3Mw93maJICaAWrdunUrb+3+YOXPm9/TfJne3mRuMpfuDCDJsCcKNwNJXaYv758UF5zJi9qCGJeXEEPfiXV5Kl5Lyb8p+1QKn2eH8JaErcFr5vlb3l6A/be9zAxOIHU1Nwv2u8b5K5Cmno2N8mhx1uruEl7zGvbs5LrIWrx8asBCBZj24LTRWu+qWiR9XV9eKsWPHbmIZyin54vXFixfb1RytZTIQQRBB1nItmn4cwtphvBzidEiDeUhd3KiJD/4XoSFGZXnhz+W1Da+ueG0laKSRVUgphvjnjFZxocUqo81FplOm8+cbsinqfV+HZchQm6ZfTfRgmwTs+UulPtGox8T660Iy8UOpGGp79+59klxfnwwcOPAwpUphRVrxMhEBiCADYEXPWWOihbSXZk2WkoDdnrjgaCWpX+9XWi1DSjWjunXpsM4YbfVh/fN9qhla+F8aWZv4cSqtPpouMpXoUs5Jm/tOoMysJXC6+ReqPT88m08FZ9oKAb3XrzLbM6tsP3v27G+oQO/PVPy0wFYmZ8vjhAgysHomeyjb8lVji2NXah5VHBBzgQmsMEqxo2bt4QWGvsBplUVEzxc9TSuPNqsPZ6USfJFsdI6GNYqtgTarkED3qO/uaoJVSNiG2lrrsQrpPMcWLxaM2c4IWIOAZvvvtWaMZgKIapsVkPD5af78+StYpnA742/V04EIMiyCmp48wqqX3FEHR8uoEkDEgHueC4QFM6TwSQi1Bk4Ln/+GAqd1Wl2ECktTxPDj4Q7RZVXXIso0hRC3vBrnawo1ra43jetCp7vLCLHnqJeYaeZtDQ9w08zMSlqlz70IiWnZNxi9me4bCSB+y3v18OHDdzz++ONf9u/f/+R777G61XiZkwBEkDlpN60vzoHTtFNs/2iTuR91usPUfFMcQDUx1PAXHqxwOTTcY0LtYa7AaU0XmnKo+gKnVe47dnVpcc8JLyGdYqkxM9VpDnnV2v7nzgFmoFNMBnkFZ3AfX0p6yEpiNOUllVEMj7NU4ucekOPrHvBI27mUyTlHKLR411dldHR0PEt2SPW+Nvv4+JQ2pV8cKx4BiCDxWKIlaycg1DCa7ieliBG4xbhYITpHb+C00iqkqZW4e6nABaVNSzUl47QxLjThHJTiTTPnUSPLkRE6W6dVSDBHa197jM+RCehVNjN6zP/Ew9mr5NCd3YtzK7OjuJIYhkpn0GdC5iSTuEhcKnqG9j00u+eT/wr3j0jSBpnqep0gK8/hy5cvj2HhFSEhIZlU4X0lq/IeGhr60JEXxhrmDhFkYBUoUh/uMGu4Uls6BmVQtNozn4/DUQkMgbtJKDo03WicOGLWb/b1kWkd/h6rmVtIKIS0jV91Lt+ZNrGhLVZIzRBjZKyQNuONcnyGLEJKcSUUcmrz0eMia+m6Wcf5TTMPWMeYMQoBAX1Jb73dfIvo0I9T81P2H0ratfhUypGnquoq/LkaYlpWnll/2CvKP+b8pNiZXzzWbuh2T1dPnQWnmdDJzMx88fjx4zMqKyu9hgwZcjA2NvYatrxbxyUKEWQd64BRmJKApsjhHubMxCN8qmtxdfHHNN49puM8YWFTzRgiTkgI+lDzsClvtsox8TBUx/D/oWsHGW+x4iak6blTCR1eyWgVQwIRp1Po8GMy6CKzO71Qb8HNEUpZzL6IiRC3YsoPmXW3XVpa6mdohB2DIm/W1smXDmg3eOeehG1vXMu4NEnmJHFSiiEmfpgrK8AtMH1czNRvxnSa/H2wT4hRlhwqdPqA+v/C0BjwvvkJQAQZYG7BG6D5rwZ77pE9TthjRFVpR+Cq0rTYqCw/AisL0xdaA6d5q5CQnaHAaW3lLYQWJWUomKZlSDPjdCPLkcCSpRyPpvtLW0kQ1TECJsaIIfPrHUuYnOoVCoUTWYTNPlsnJyfFX//6V097/liaaW7O58+fn5iWlvYtbUFP1tens5MLu0McrKipOH0u9cTCvYnbXk8rutdH5iyTuMs8Cwa2G751Wrc5y9oHRsabaezoxsQEIIJMDBjNN40AC4xmD52mnWXE0VywsKZg0Wo20WPyaDCD6M44zd7VNJXwv+uzDDUahuAPWpvTYjlSs/DosBxxg+eFEjcTbZYjQUOG3GQ6rUJGrIftHCKLi4sbQQ/RsYMGDTpizmGfO3du3IcffjhGnN1L5hy5dfXFvrwkJyf3JpZfnTlz5j9UgPSQIVFL7i1Wm+uHh8UZJ08kH/pNTllW5OD2Izf0jei/38XJrda6ZojRtIQARFBL6OFc2yCgfFizf5XWFOEDXhl3I3yo6wuc5mfNxBC300MpcLRalASuJqHYER7byOKj7ECgnLQdoxlY3aDQfn1pm4PaivGiUNNFpvrdSMOLtlgm27gyDI6SPUBTU1Nj//SnP63/+OOPV1Mel69NnceF+uu8efPmRdTnsyUlJcEGB4kDjCJw5cqV8fHx8QNpN9bG27dvf9GlS5c4Qye28Wt7j475K7nJnHgrkaFT8L6NEYAIMrBgcIfZ2BWtZbjcM50TQPybwoe20PXVKHmihghQWlFU8UQNLrJGQkgj/1CDMNEQHNpcUJoOF5WLjB+4TquQ8g1+jo2sQtosPkpQOoSQSlAJrGf6HEKCIdj+FdN4BiRGQjZs2PA2WRKmrlmz5qvJkyevCwoKyhNzrrm5uaGHDh2a99Zbby1JT0/vwm+lFrMLh26LfVYpMNl39+7dL124cGHi119//S0VJf0hLCws3RAYCCBDhGz3fYggiCBdBCz2WDNFrqB6EiYNW961+XD0/E3TfcTREribOH3R8PuvBVkFxwhTPekKnNZWwFXNRSZwfykFnVoXOtxfQosON0VdYkjpIhO8r9aP0pql0Ya2K0coNm33vtho5Fw8GL0yMjJili1b9smpU6dmHDt2bPmwYcP2uri4tMg9IpfLnU+ePDntj3/84xvkehtGfblwyyvM6WRHLC09FcaVBGfEqlWr/nL69OlpO3bs+HLChAkbPTw8Ki09NvRvfgIQQYZFENuZYaRfwPwLiB6bQIA943l3mMp6wz3XmcigN9XcOvySa3P16LAeqQKn1SxKQuHFj1UzcFo1BYHy0en+EqoTjbkbEzitM5s0r6q01jfjPwHK7izn/tJni2rChdD8Q3lh4kyulbE3btwYMnr06C23bt36rHv37peb0+r169cH/+///u/LR44cmU9iyAPCpzkUm36Och3JLTbgH//4x8rDhw8voBisZX379j2BgqVN52nLZ0AEWe/qWcwSY71ImjsyJkR4awdPVc16w+kdNdOLUq3w/zbNeqQ7cFq4pIL+NCW2sRmnm7LlXtWdQEdozTitw+qjQqB8XzAXi0uT5l4XzT+PPURramo8Dh48+PS1a9dGfPnllz/OmTPnW2NcK6xXsih1JAvEs7///e9fys/PD4f4af5atORMxp1+3EgATSExO5AsQhsoiPqrTp06YfdXS8Da0LkQQYYXC2LEMCPrP4JbRQ3rDu/KUrmxlGKI+1elltQtRapmtFiPVBaihq64wGm17e4aQksZ88P9qy2uR4c1SpcmE4oRbZYk5dhVFh1+DjpXj7diaW1Xm2i0/stA7BHyrpV233///fvMRbZt27bl48eP30QFMcu09VVWVuZNcT/z33nnnaX0sO1JFkkpBJDYq9L09tgaUC6hoC1btrx89uzZST/88MM306ZN+5GyO+c0vTWcYUsEIIJsabUcZKymiAn61aEpsGTw/6kSKxoihsOtw/WlKsAqCJJWbT8XBk4rhZDS2qOyOvHxN8I+hSJFJWL0uOU0MyNqiiOldUurwOIvJkPV6zUDuoVMuCYE7j4HtAhxBBosdzJ+G/bX5FqZRwHUn1GphONK1wqL+yFrwwSK+3mZ/h1Px7sLznWQT7bqE2WV81WuY1ZWViRZ9v5OLsq5e/bs+WzEiBG7qLZXiVUOGoNqMQGIIAMI9aVbbzF9NGA+Ao3KZqhbMjgXFvc8b5rrS29x1SZlnG7ov8FwJBBISqEhtE4pxZLKeMSfK7Q6qQkqpdrjT9AllpoSOK3m2RO40ExnNzVdyyJdhbxrxZV2Hk1hsSYUL7T57t27X9bW1rp89NFHL5E4WkjWhmBYfkQCbqJm+PVxYWv4z3/+8xsKgN9PMWDLqAbYKRN1iWYtSAAiyILw0bUZCSjdYWpuLu5rvFodMDUxpNJJWlxfmq41Yey8DuuR3sBplQDSGJMaIoFw0+buUu0m0qEXDNUh0xb/r9aPDqtPo2NMtq42YWti61xcXByyffv2RSdOnJhDyT+l9DvL9yODADLZtSF6w3zclyfV/JpDImjk//3f/62dN2/e11FRUYmid4YGLUYA9Wgshh4dayNgElcYe0izK539qwqAVv7O/417T8cPG6jQkqQ6jokC/hzVMRpWES3ncTvUuOMFY2rUN9+22nGCvoR/V4IUjkXzPNUxgna1HaOt0KxwbJxQ0ph3o7HYhFYx6QeQtwo5FRQUhBYVFbWi3yGATErcNI3z6yihPFFBmzZtWvL222/vWLt27Ru0xb61aXpEq+YmABFkgDifLBF3dXNfmaL3JxQV7L8FD3OlgFHG2HDeKPofyy2kJgo0zlNZlwSiQCm0hEJHKBx4wfBr3iJ+osrxCFM+c33z4xTy0PybpuFHdZ7gJLVjdLWrPF7JRt9lr8FPKMREXzuuQS0gTNMRWuUIWL370dzrxIQsVYOP/vTTT//7u9/9bgu5N+dUV1e7mXsc6E9cAhBB4vIUszUILzFpKp+jylu7ymqiYXHRFCzc01dgudH1eBBamFSCQDNWRik++EcML7bUMlmrRJRSHAn+FT6WlAJMc2xNEktsHBqXmTZBpdam5uNRw7Ik+pqhQQsRwP1HC3ilhe/mzZtD3n///XX/8z//8xO5yobX1dVBNFroQm1pt4gJMkCQCu2p6o63FDbOtyABlUWHf2hzt3jlfUt5vxfex9T/1rTAaW3taOlPW+A061YlcDTOUb3HqSfBd3X6hftd0K/a8Pn3ldXrlcugOob/D828QZrvGxM4bdolxoPZtHzN0bpdiAUmhmjHnxvtIFtICS9HTJ069ccHDx58165dO1ZrDC8bIgBLkJUuFssf4uTkZBEBRsJPQX23qBSANWF1kvIcG1lrtFiB1GJ82CzUXV2N3VhMfGhaijQsPpowVNYo9We60gWnOlzlbuP/os16pda2wGPUyKLDz0XfwhiyCglddcp2tLnZ6G+ouWdNn4BmjYXlL7ILwdKs2Rt5EhNDlOwy7Keffvrj0qVL91B9uVcoBszfyNNxmBUQgAiygkXQNgQ/P7+C1q1bGyzsZ4rhkwBSUKVsu9kB4e8WmOvp6lXKsVLGy+h1hwmoqlllBGKEa0t4nIYQUvYlPE4YqyMUQsqx8H9TBU6rztVwOWmKI+VxWoWPnrkIBZ9K1BjhHjMgljxcPErdnNxErcMEi6wpPul625S6urpWi9kr5UyqZD9itmkNbSl3/FHR2xhKhbBcGS9UVVWFeCFrWCADY4AIssJFohu+hAoz7iTT6h1LDW/cuHFbSIjl2EMl61aerTIi/aJvSJ2ZiYIXL2piiLfcNHpPaAVSP6ZR0LQqlkfdctRIdGk7jrM2abE4qf1NeYxAbKnmIBAuyvaFsUJqYk0gBFXCR4ugEwZfa4g0NTGp0QZ7IHQN63bRy81L1ORyVLE9x9nZ2W6sk5b6XBvbL2PdsWPH28Yeb8xxbA2pxto5Y461xWOU9ciuXr065m9/+9uP//rXv1bEx8f3s8W5ONKYIYKsbLWZAKIifoefe+65j9zd3UX9JtaUqbKCkK+88sr7lP6/0NaFkIuTW82T0S9+FOAc+FDaUJ/7VyuO5i4ulYVGKQy0uMwE56vcYyqrDS8yNGEbCpzmjtdwo3GhP5r9K0UM30Gj8Qr/rsc9puxPbTeaxqBVgkrw90bWpl8FmMxZJokM7HRtWo9p3zBrYlOuN0PH9urV63x0dPRNW78WDc3TGt5n9yBiHdejR4+LYo6HVWmfPXv2tySGMlkf9vpiYoisQD6Ubfr5N954Y+8XX3zxAVmJOtrrfG19XvZ7JYq0MuaKbWA3d0rNXjh37tzltOtgMX0Ls5gVSIlu5syZP/71r399lh5Ax2l8dbb8AOrTauCJpb3eX9LeM+qW1IUqejnxIqeRZYYe6jJdliFd5zRUp1cJFrU2dVuTVHmLGuUSUhdDxlmdeMGjbEspyoSWIU2LjtDypWk50nT1CUWchhtNyrZX0J2kZ1ivo2+OeefV8ICIFJE+fqpmqDBpxgsvvPAhWSezbPk6FJuL2O0xtv7+/pkvvfTSBwEBAflit89Kibz55ptvk6v/Lru32utaKvMLsRxRP/744x+Zi4zyDC1itePEZor2WkYAu8MM8DO1CGI3AfrWXDN48OC9Tz/99KckOM66uLhYhdmfH8cuCvw7v3fv3ic2b978CuXJ6MweebaY+XZk+IRtmaVpcTtSN7xyMH3nM0WywlAJhZ7XM5sF0xDsQa8WC8rECGeO4WuI8b+za0b1N/49/jri6pApa4cpj2EHq/2N/c6rFCYoNPvW9jfusAZBxbWvemmMkRub4G9q17dqQL/WRFO+z/UpeF/b50KDj9RJyp3S2ivs3uxe8z4fFztxbYBHQF7Lbkm6zx41atQuFrBPxS3/QBW/B9CR7rZ4HZqKT0va5cVIHd1/Tr/44ov/GDRo0JGWtKfrXFo/dpFtpHIi8Rs3bnzl4MGDT5SXlwfa8zrS3Jxpvn0+/vjj5ZR9evbp06c/Gzhw4GFruc+bYp1tqU2IIAutFrvpsA9+z549T5GJ+BsWg8PMxRYajt5uyXydSwcsT0tL28NuXKwGEgmjtrZ44wr3ac+sFO/dyru2Zcu91UvP5hyfXi2r9qpnslMpRjgayihlLUJIGBHNCQPB8bxY4arHK8UM97amEOLUSmNxxP1ZcC5ngRGIHu4UgdDijtcQPUpBoxRwwuEJhY5wfMpjNN/nh6m6QPjxSGVkMXDzzxnXeeKaad1nfNMuqIPJLZfkQmEw9tK1d3H37t1PU1mKl8nN0Bm7mFp212Bf9Cj+8DZZflfNmDHjZ1NYgDRHSO62eMqt8wa7761fv/6N8+fPT6Qaax62eE8xhj6bF83XjerKTYqLixs2fvz4dYmJiSu6du163ZjzcYzpCEAEGWAr9q4U/htXfWho6H0mfqZNm7aaTMOZplti8Vpu3779PbpR/X7MmDHbf/nll9dOnjw5iz7Yon8bp1pLJnfTdg/uc75cXnbrXNbxadtS1y2JL7g+VEIPdk4McS9O2fACRPjfGqpAVTFe/RhlgkVODKlemu1o9qOtbzaUBguQUAw1bl/ZNjueF1HCeB+1HEAalqhGw+Db0swbxEZAjMgxWju4/dDds3rO/7xPRN/jTjJx438MXbEkypm1aVlSUtKRbdu2vUixF89WVlb62+sD1BCP5ryvdEPRF69iluOG3PCrmDBpTlvNPYePGztGJSmuUo216evWrXvzzp07fWhsNmlpNoYDu0bpWvXetWvXby9dujR2xYoVP1E9slUhISHZxpyPY8QnABEkPlOdLbIbDwUaF0ycOHHt/Pnzv+7UqVOCGbsXpSvaNcJyF52mwL9Lp06dmkJi6A32zYb+5izGQ8ic3+q9XLzLaNy/FFbmHz6QvuPZnambFj+sehAtUZDEUCjdYEJrjRbXk1C3CC0wvLDgtrtzGkbDuqNhPWrsimOKQ8NSpAySFliKOPeb0GXHjYe3HimNSEJjkpq2E/yiaRXiNNevYom5viQKiaJzcJfL83s//t8hkcN30Vb4ClEuqmY2EhMTc5ME81tjx47dumbNmrcvXrw4nhLYeYpxHTZzSDZxGrteyBVTNWTIkF2PP/74F7QR47TYgexNAeHr61tMx6+helyHd+7c+RtWeDYrKyuSuwJVRYGb0qL1H8vuc9nZ2VHffffd31iRXRLzn5FVbDPFhbJ7El5mJAARZAbYfNxPNW17303fuFaSP/iIJW86YkyZ37m2jVwTp+mb+FM7dux4idxlXVl9HTHaN2cbAR6cZeGTlOK7+3alblx8KGPX02V1pYH1TO5xOkHDKqQSDNr8ScLjOSXByxJeDAmzOqu1y5/HCZYmWI9491hDT4L4JV1tq7nyeMrKB42WjNNStpr0E+oRmjqt26xvxsdMWt3KN9RqLJe8i+xkaWnptaNHj84hd+3rZCHqRaMWRZSb8zo0dV+8C17RpUuXy2R9+IpcMlu8vLys5qHLW0M+ovgZzu1+6NChxymQOMiOhRBbcllycnLvf//7318eO3Zs9rlz55Y/9thjx2z9+WDqa1nM9iGCDNBsSQFV5U2HvrFeeeKJJ5aNHj16B910ysVcQEu3xccLLUtNTd1LgdOLKID6N/RACrHFGxflEkqQ18nfHhI2ZufWlDWvX8g6OUXhXO9SX0dKgwVPawucVooKXXE4jUJ6DARO85Kp4R9N6xEvjoSB0wJRY1zgtEDQNfL4/TrYBvEjlbhLPEpGR4/bMLvnvC86hXS+YenrTVf/9A2aJcP8iSwIR0mQP0vfrBezuDUOo51aE4xdC6XrKzg4OI3Ezwpyf61lu+2MPd/cxzG3HFn03pwwYcKm1atXv01xNOPJ7W7X8UIUZuB59uzZGVSTbNiUKVN+JBfh/5KFTNRcW+ZeR1vpDyLIRCvFxFN4ePjdWbNmrWJxP/QtJ8dEXVlFs/yW/nepmOB22gr6CrnKZlKFZa/mPIDM6RLThOfi5MLsP0cqayvPnsg4MG976vrXEgtvDuR2QrF3VFvFldYaTdeTwGXGGtcWOC0MbFaF8vDt6A2mFsTq6BBCDbHWegKnVcPWHCdPggSD1Ekmcap3qu4bPuDIgl5PftK7bZ8TTjLODWr1L3q4syzr/7h9+/YuctUuod04c8maENCc69DqJ2vEAHkXfCELxCUBtJK5EI04zeKH8DunTlD8zAXaiDFv69ati27cuDGEVROy17Vk86IvkIFUeuONtm3bJtMirLD4QjjAACCCDCxyUy1BLAmYp6dn0aRJk1ZT4PN3ZHqOc4DrSDXFfv36naYtr9fIz72LxNCrrNoyvWlzNy4PZ26n3uqs8swTB9N2/GbH/Q0vF8jzwplFiNtSb2zgtLYirQIXFqeTmlDItQG00ITDfuWCjriWlC/dgdM6XGasCbL8sCYi/SLjZvWY//nIqDFbfNx9i2zx+mWfO3qAvk7W1+0UcLv08uXLI+mz7GqvD1DNNWLih+Kl5ORaObJw4cIvKQXHQSpZUWNra0mB21U05jU5OTlHWbwQc7tTLI3dxgux65PWzpmPs4QIMsMFCxFkHGTV93Vdh7ObDgUNV9FN5xDl+/kvBRue4oOIjevBjo7iXX6/kDviyP79+xeybzYPHz6M5h7fBlwT1pY8Lcwr/AEN+x93i27v3Ja8dsmxzAMLqmQVfgpNF5nKHcYmqdydxesVldVGKVh4saI0IjXc+H7VN1qsR9oDpzXaNyZwWiiYlMYn1jX1H+Qekj4pZtqP07rOWBXqy1lUbPrFP0D3FBcXn6F8NPPpOnyd3Lax9mxNULrgqfZfwlNPPfUJ28lJCSZtUsgKLz7aTfuQfv/3vXv3drB4oQMHDjxFFj67yy/Er18NfZk8ZtMfPhsaPERQCxeLv2jrunXrdoF2fH1pj3E/zUXExwt9QTeuI/QN7jkKoH6OHkitDAmh5vZnyvOi/bvcqFPUvjw8fNy2Lcmrl17JvTC23pn+x8RQo3w/vDjhBsTrZ82ki2q7xRrEofoOMuW5WsSRSjDxFiC9oqshyaLaDjJO/DQoIObm85B6lAzrMHLbnB6PfxbTqus1iWSxKVGavW1eBKyinEKHya3y0r59+36Tl5dnk3mu9MFja0xxP+mU6+c7+vmJXCr3zQ7bxB1GRUUlUnzQm8zCRzGIiynx4HR7yS/EvA60fhkUs/U9eRI2mBglmucJQAQZdykIt+twZwjy/aTOmTNnJQs2tJV8P8ZNWbyj+BvXH4cPH76Xvo2/xrbW042sWfFC4o2q6S1RXAxzhO0rrCq4eDLz8JzN935660H5/a6cEK5tFGXMdyCMHeKuHP7vGi4tTi41/E3lHlOJFeF5AmGl2Za2/EDK3Wm8BUgptJjriwm4Hq36HJ/X/Yll/dsOPOjhap3JOpu+UtrPiIiISKXr7i+UeXony0lDea5m2MOWen7Le8XIkSO30pb3LykB6wV+15xY6KyqHX7n1FGyBF2kmK8ZzMKXkJDwmC3mF1JagMlVWUrrt23BggUrWM027A4z3yUHEWSANV2cLDaEVZpSvdiFS98uH9G3kc206+sL9pA335LZZk/8h/oE5Rc6z0QQ5XV5l25cfcgCorbrg1lE6FirDsINcA9kNZVWPSzLOLjn/uaX9qdtfy5fSpYFzkXGBfwIwnOMDJwWZHdWC2zWFzitvBTUgqSZmtLYVdZoW3y9pINv1M3pXWavHN95yhpvN59i27yqmj5q/jq8QEH7z9J1OJXlubp+/bpoea6aPqLmn8HuQ/RTS6UuTj7zzDOfsNQbliy63PyZNO9MyrnGtvevI6veYUo++AzbEUhu9yhbSdPBp06pGTBgwCESr5+z9UMpjeZdCy05CyLIAD36VnWObixF9PAO4A+Vk0VjFyn2r6gY4AlctE27/JT5hSjQ8QKL0yCT9mtUj4wFOjqxmwIlkLxBZvx7TWvVMke38W6bRj3/5Wbe1b3bUtYtOf3w6Cy5U42nKl6IG5badi9+oIIQM20Zp40OnBaGqgmNlY0Dp7mgZ/rxdfbLnRRNcT8xc76J8G/HdqA45IsPEt5GCfrOkpv2GUrQ99uMjAxWF89g3JqlgSmt0LT7NIlc8CvIdfILuVEeWXpcluqfn/snlB/qIK3jCyxNR0VFRSAFhltqSHr7FeRrukSbZ1ax0iH2ELdllbCNGFQjN48R5zjUIWQul1GdIpbF9Leurq6VVF/nezJb7uLzkjgUC1NMlgJVO2/ZsuUlSiE/jm0LpW+0/+3du/d5U/RlyjYrays8rjw6P279ne9+F18QN5hsh071csGWdu7pqtRAgo+dsjSF6j2lcBIer+EiU7XF7/RSTkyzLd4CxASQs8K5aki7kTvndXvis9iQHudhble/GlJSUmLIrbKEAm6ftOaAW94KnUPCZw1tef+GT01hykvbptomd6fs6tWrw9iOQEo8OInl37GWGERe/EjatGmjTJ2ylg/4tinG9jZYiCAjV5RujN7MTWOtRU6NnIbVHkb5MXxJZFbZ4jZeIVSKFwo6lL77qd0pmxY/qEyJ5bbTc1XqBQHOyszOQmHU6G/C4xsEkVqsEHeuUEwpBdavIorzsCkk9b1a9T05o8v8r0Z0GLXdxcn2tkmb66Ily4GU8lyNoN1HLG6NBdyKXhevuXPh434qhw4dupt2fS0jF9g5e477aS4n5XmUHsGDMojP4tN0DCR+LpYUQ2z9AgMDMykB5HpWpw3itaUrLN75EEHisURLIKAicL/4XpedqRtePvBg5zMVCtrKy9Uj0xRDWn4XiiGh0BF4vqSNLD7q7XCuL2qnlUfr+zM7z/9qfNTUNSFeIVlYHuMIsC88VMJgFsULLSUXSx86y2J5rpSuE6o2fpny/XxOQd07YIU2bh3ZUZRBvC1Z9xaQGHqNXPAd2QfDnGKIF6/ltG5bmfjp06fPGVhhjV8/cxwJEWQOyujDYQnceHRlyMZ7P75z6dG5iTX1VV4KtouskQVH4NbixI6mm6vx3xoJIS7+umHLu4/MN29sh0nrZ8Ys/KpDQMfb1gS/sqbCq6KmzJ+Nyd3Fs8TLzZuVu7DKF8ULtWYxJvTzEnuAmvPhya24VKqgDNgpbMs7xY78QLEvdp113pQXAXO7k4XvVYpDfMIcaTr4vHHVZLE79eSTT346aNCgw7Zu5Tbl+liybYggS9JH3w5BoEJe7nXm4dGZW++tW5JQfHMwbU6n7el8wDSrVs/+k6tNpimGNMSPDoHE7xKSyOqdagaGDd03O4Yqg7d+7Kg1feOMf3h95M2sa6PvF6b0yit71I5594K9QtIjAjrc6tG61/HY1r2PuTi71FrjBZGYmNib4tYWsQcoBdz6m1oMsfWkhKNcqQsKfLaZUhfWuHbCMfHxQsNZmg7KLzTNFPmF+KD1WipPcp1Sp3w9duzYbf7+/gXWzsaRxwcR5Mirj7mblUBe5aPW++9vf25n6qbFuTUPO9STRYjbVt8oOFpP4DQbseB4ZvmRUEIBKv4at7Drs/8ZFjFyh5crV0zUKl7pBamx+xJ3vHYm9fiC8tqyYG68gvyRCnITesg8ix5rP3T7lNhZX0QFx1yxioFrDII2SDhTIc+x69evX8r+pbdFL8HBi1lW6uIgWQ+W0+7T47AeiH81MHcniaApbC3j4+MHUg8tdncK8sbdJ6vdN3yRWpvPui4+fetrESLI+tYEI7JzAveLk7tsubfujROZB+aX1BUHN+QXamLgNHN9UexPqFtY6tTI2d9Nipr5QysvrrSAVbxyyx6Fn7x3+OmDt3e9kl+V255Lqs0SNgp39fOGLu4BQv/3dfHLGR8zbeXo6Ik/tPZtc98qJqIxCPYApRiTheRaWZKcnNyT3paJNE4F1Tu7zKq8s+rpfOkZkZpGM9oIUFmfEMovxOqR/ZayiUc3N78Qu34DAgKyWd44luyQ0nwkgLjtEIAIsp21wkjtiIBcIXe6knNu/NZ7a1+/kH1qstRZJuWq1CtTm2hup1el/pFKZCR+XOvdy0ZHTNg4O/rxL2OCu121FjTyumrXc6mn5h64vfOV27kJQ+n5IGNB4ca8uCzWJJQiA6MvMzE0MmrsWjcX68xinZaW1ok9QClB329LSkpas3E31U2mzBZM7pKsWbNmraKfH+yx1IUxa2/JY+7evduNL6fyDIncIDYWY9aST3ZYzYKeSbyupNQeZ5A3zpIr2by+IYKaxw1ngYAoBMpqSn1OZByctzVl3evJJbf7NJTgEDQtiAOSOkslTnVONT2C+556MuaFj/pQ3I+Lk3XE0dQp6mRJjxIG747f8uaV9HPTFdI6N+bqamT5MUSN5XRku9sU0tre4f0PTImd81mPsN7HnZ1c5IZOtcT7N2/eHEBuldepBMcsSqjqY8zDkzOA0TpT4tAysh5sYlXeu3fvbpVuQEswtUSfLF7oxo0bg9auXfvm2bNnJ9fU1HjrWkte/MhJ9BynTM/LWdAzX6zXEkNHny0kABHUQoA4HQTEIJBd/jBiT+qWF/c/2PF8bk12O2YRathS3xAvzfxFkb4x12dFLvxqVNsJm3zdracyeGbRg86HkvYsOp586DfltSUhXDoAPcYfYf1XneyYh4zEkKeTZ9HQjqPXT+oyc0X7oMibYrAWuw0SP24sxoQF3FKivhH6ctLw1h85VQk/zrLOjxgxYjesB2KvSPPbo8B3D6pHNpMC4V+Oi6Okp4LYLz5dQW3nzp1vsLgfcltuJCteYfN7w5nWQAAiyBpWAWMAAZ5AQv6NATsp0eK5nOPTyqtL/VlakxCP0MxR4RM3TouatyrcOyLVWmCVV5f5nUw++MyBpN2LM0sedGe6R5/ri8tfRP93l3mUKBR1TnJJDRXRNXwOE00hHmHJYztP+W5czORVfh7+rHab1b1oS33o4cOH57L8QlQKJooGqFZzkCwLCsoWnEL1BpexuB9HLnVhdYunMSC2liy/EFULeJ5yDUWyRJq0XllTpkz5cfLkyb/AbWntK2j8+CCCjGeFI0HALATItSTNKEuLzq/MbUOV62tbe7S5H+odlmGWzo3opLq20iMu8+q4XfGb307IujFS5kwJbfS5vpiLy0kmcZO6lfSLGLxrUpcZX9XW1rjvSdz++o2sKxPk9Xy9NT19c7vKyDIWFdTl/LTY2Z/1jRi4x1pzDLF4IUrOt/j8+fOTsrOz25MFoZ7KI6QPGzZsJ0uYx6rZG4EZh1gBgcLCwiAq0BpG7jKnoKCgnJCQkGwrGBaGICIBiCARYaIpELB3Asm5SX33JWx//cKD07OrFJV+3M42XS/epcWsQ11b9TwxtevML/q2HbzHzdWtkp1CliTfi2lnZu1N3L4ktfDuAPY3Q0HUTAy5SFwr+kcM2jW56+zPY8N6nLFG5izGhCqat6eaZLFU3qKuQ4cOSVTw9D5KXVjjamFMjkwAIsiRVx9zBwEjCeTTlvfDFPdz6M6+F4prCtoadGORWJGSPgr1bnNnIll+RkSNW6PLjZVfnhd2lNo9cmffS7SdnvInsRIjusUVc6tJaWO6j7NfznDaQUbxQl+G+YWnGDkVHAYCIAACKgIQQbgYQAAEdBIorSrxv/jg7Kw9CVuWPihK7W3QWsNZf2QSP1e/7GGRY9dNipm+Isy/bbIxiNMKUrrtIxfZufsn51fUlgUq9FmZqEFODFF/rb3DbzMhNKTDyI0BXkGPjOkLx4AACIAAIwARhOsABECgEQFFvUJ6M/PaaBI/b8U9vDqOdqy76xMlXL5DZv2pk8n7txu8c3KXWV/EhvU85SRzYtmPjH7J6+QuNzKvjNubsO2N65mXJxqMN2I3MepXVi+Tx7bqcXJa93mf9mrT/4C1luAwGgQOBAEQMAsBiCCzYEYnIGA7BO7np3Q/kLjj1dOpx56oqqdaWSRj9OW/kZEIIfeVolNw1wtTKa/PQCqB4ersVt2SGVfKy73PpJxYQPFHS9KK7vWRsESKeixDXMkJ2ovlUu9aPrDD8C00juWdQqyzBEdLuOBcEAABcQlABInLE62BgM0SKCzPa33i3pGnDibtfjm3PKsTReY05CrS8eKEB8XmhHi2vjeu89RvRnYavzrIKzhLTADZxQ87HL27/4Vj9/a/UFRVEM7Go0+QcTmISDAFugc/GNNp0vejoyf9GOrbOk3MMaEtEAAB+yEAEWQ/a4mZgECzCFTLq9wvp5+ftpu2vN/JTRxIlh2ZftdXg9XFTepRPDxyzDqKx/mKEhnealbnRp5051HiAGYVOp92al6tRO5Zr1DoT8jIb6lv5x95fSptqR/SYdQmDzePciO7w2EgAAIOQgAiyEEWGtMEAU0CLO6H8vwM3397x2uXHpydyUpdGMr2zFxfzhKXyp5t+h5iJS16hfc7ai6yFC/kfD3j0qQ9FC+UkBM3SiFVuBizRV9SJ63t01CCY3n3sN5HES9krhVDPyBg/QQggqx/jTBCEBCdwMPijKjDSXt/ezz54LMl8qLW3JZ0fSl/WLZnOqB9QKdr07rOWt6/3dDtPu6+RaIPzIgGiysKQk6nHF+47/b217PLHnZmpxjKL8TEm6eTdz7bsTYhZupKslzFG9EVDgEBELBzAhBBdr7AmB4ICAmUVpcEnL53/PE9CZuXkoCIYftD9QYcM/FDcT9BrhRjEz35u3GdJ38X5NMq0xqoMiF3KGn3ohPJh54trS0ONRTArSzbEewRcp9tqR8ZNX41banPsYa5YAwgAAKWIQARZBnu6BUEzEqgllxJV9IvTN2fuPPVG1lXx8mcJHrjfpg4YqUuqM5X0cD2w7ZOpezMHYOjr5t10EZ2lph9a8je+K1vXM44P53FC1GdJ71WLValXkEJGbsEdzs9MXbml4+RVcvdxb3KyO5wGAiAgB0RgAiyo8XEVEBAG4F7uXf6UBLCJefvn5xXXV/la7DOFxMJtRJF97Bex6d3n/+fHm36HHVr4ZZ3U69MZU2F17XMS5N23tr07t3cxEHM/WXMPF2kruX92g7eNSV21uddW/c4a+pxon0QAAHrIgARZF3rgdGAgGgEckpz2h27u+/5w3f2LCqqLmzDYn4MlaNgJpQI38i4SV1nfDUscvQGKlJaLNqAzNBQcWVh8PHkw8+Qm2xxdnlmDNtCpnebP1/Z3svZO38sufvGx0xdFeZnXIZrM0wHXYAACJiYAESQiQGjeRAwNwFW5Z3F/Ry8vXtxcsHtgSyfjyHxw+JlfF38s0ZFjf95XMzUb2y9Fld6wf3YfZTw8QwlfKxQlAeyuCe9+YUo7om9Ivwi4yju6dtRnSb8TAKwxNxrh/5AAATMSwAiyLy80RsImIyAvFbunJhzc/iu+M1vUcmJSRT146LPJdRQ6kJGWZZdyvu3H7Jzeuy8/0YFd75iL5XO6xR1sts5t4buuLXxPSrFMb5OVkelP/TEC7E4KGYZolwB3Vr3PkZZp5f1btv/oIuTi9xki4aGQQAELEoAIsii+NE5CIhDIL0wrQtLJng69ciTlXUVAYby/XA7perrFd1a9zk2pevML/tGDNptrw97Fi904cGZWfsTd7x2Ny9xsEHLGJ912lXqVsaKsk6Jnb08Mjg6TpyVQisgAALWRAAiyJpWA2MBgWYQuPzg/JR1V777ML3kfi/m8jHo+iITUGuvNknju0z/emTkmLV+noG5zejW5k7JLc1peyz5AMVI7X2psCq/nUFWzFImk0laeYbdebzv838ZHjV6o81NGgMGARDQSwAiCBcICNgwAcqgPO6LUx//VCwvbKPP1cO5vsj64+Pil8MSBk7uOvMLW4/7ae6ypRWmxu6J3/Lm+fun5lZSvBBXIkRPokiWKsDT2bPglaHvvjiow/Dtze0X54EACFgfAYgg61sTjAgEjCKQX54b9tGRv21NKbozSFGro9IpF+cik1BaoOoBEUO3TyDrT2xoz5NOTk56SqMa1b1NH0QlOFziMq+MYy6ya5kXJ0upXpq+rNkyZ5mkrVe7m++O/duccP+IZJuePAYPAiCgIuAMFiAAArZJ4GzKiQXJebcHssSG2l4sVw7tiqqPCux8YWrXOZ+x4GcPF48K25ytuKPm45/2lVWXnjmbemIhy6OUXnS/JysMq614LLOypZem9TidcvRJGskH4o4GrYEACFiKAESQpcijXxBoAYHy6jK//x7/x0SZi0yqkGsYdZjri/xfIR5hyeNjJq+ichc/+HkGOETcT1ORerv5sG3wq/LLcvceSNq1mEpw/KagMrc9yyit5iKjX6XOUklc5uUJheX5X1O5jUdN7QvHgwAIWB8BiCDrWxOMCAQMEigozw3PKEyLbRQEzZX6ksnHdpr0/YQuM1ZgV5NBlNwBQd4hrB7a/yQ9Sti959aWt86kHV9Av/PZgxraYLmGMovTu+SWP2pPv0IEGYcWR4GAVROACLLq5cHgQEA7gQp5hU9lbaW3ZkAvswCF+0YkPT1g0R/IylEEfk0jENMq9mJuWc57d/ISB+ZVPOqoJjLJOlRVW+VVUVPu17RWcTQIgIC1EoAIstaVwbhAQA8BcteQlaJeazSQu4tnGdXEstmCoNXyate6+jqXeonCiYqhUv5CGdu7pXB2cqqVSZzlLs4utaa8ODyIn5uze6PYqYYNZPVS2lqvZiEy5VjQNgiAgGkJQASZli9aBwGzE6CHtFQhVdjEg7q0qtSfXHtt7+Xd6ZdenNatqDI/7OOjfwuQ19V40I8bC8WRSWkyUqc6J6mT3M3Fo+yLk/9X6Ose8Kh9QIeb7QIibwZ6hWT4uPkUipXpup6EF2No9oVDhyAAAmYnABFkduToEARsj0BWcUbUpQdnZ9TUyd2lEs4yQ544BcUKO8l7hfc/2DG40w1jZ8UyOKfkJfW/mnl54gcH3p2QXZodWVFT5s/UDstnxL3Yv8LcPRq/s7hliUKiIKtNSYh3aFpsaI+Tl9POHohp1e2cj4dfgbFjwXEgAAKOTQAiyLHXH7MHAaMIHEras2h30ubfaVZkp/w6kqzSzGhyX71Mlho9KQcburmReXX0l6c+fvlW9vUxZbWlwdwfFbyjif412ID6aGWVteX+D4pT/Vm27CN397/QNbT76ZPJR34a2H7YVjcXt2qjJoeDQAAEHJYARJDDLj0mDgLGEyiuKmrFgoQ1c+hQvI6Ecu0EkguJMuxIdMbqlFaV+O+6tfntT4598GqloixIweqY8uLH+FE0PpKzCLFSIfQ/uazG6+ajaxMTcm6MvJJ+bvrD4oy/tPFre68l7eNcEAAB+yYAEWTf64vZgYAoBKQSqc4M0+TDYu/pNOIUlue1Xnnm08/OPTi1gLm7xBA/2ibFFY1lP7J697Ppx5/ILs2KvJt7e0l0SJfLokBAIyAAAnZHwCaCJ+2OOiYEAvZHQGsgcXlVme/ay999eCHjFOXd0V/clSFR1jhjbjaW8Vr4w2qfsR9dGbKVSDmLVW29JKXwzsBvzy3/ktx1kfaHGzMCARAQgwAsQWJQRBsgAAKNCNTV1cnIBbboRMqh3/CR1FopccKHipQyt5aiTqJwd/Yoc3d2L6PSFtWU+JHZdqR1ijrnmrpqjyp5lbe8vsaD1fJiL31FY9l7KUV3H1t/+Yd/VNRU/NbT1bMcywQCIAACQgIQQbgeQAAExCDQyBL0qCy748E7u16mvMtOLNtyoxdX3FUqcZV6lMS27nGyQ2BUXLBPqweBHkEPfd38H3nSdniKOSIpUy+lgqduLElhUWVB68LKwtb55Y/a3clNHEhb6/vXyWrddRU/ZX+/9ODMzAERg3dS/7+IMVG0AQIgYD8EIILsZy0xExCwKgLn75+a86giO0qXAGJ77Ae2HbF5UtcZX0YFRV/1cPMqa8oEiiuLgpLzkgbsSdi69MbDKxPITcby+6g1wURQrXOt54nkw89QvbU9Xm7epU3pA8eCAAjYNwGIIPteX8wOBCxCgCw3rv84+IeJmul+BIOpn9J19udP9n3+/aaKH2Ubfh7++fTf+2nn2fktcWvf33d7x5JahdxNM0SbibD47LiR9wtSetPxpywCBJ2CAAhYJQGIIKtcFgwKBGybQGlVcVBeeW6EhmGGmxQLbg7zbps0o/uC/zRXAAnp+Lj7FpGV539zyx61owDs+ZqWJ2YdksvkXvfyk/pBBNn2dYXRg4DYBLA7TGyiaA8EQEBSWJEfxvIHaUPB4oB6tulzOMSnVYZYqJiba07PJ/7l7eKTq8o6LWhcSuah+Ky4UXUKKj+GFwiAAAjwBHBDwKUAAiAgBgG1YJwyKoNRS8HM2hpmiQ193HyZK0vUV7vAjje7hfY+LpU1vq0xi9QjyhtUWVPpK2qnaAwEQMCmCUAE2fTyYfAgYJ0EnGXOct0JFqWSkqriELFHTlvqa3uH9z/A3F8y58Z5hkrJMlUhr/ARu1+0BwIgYLsEEBNku2uHkYOA1RLwcw/Icact7lXVlX6ag2QxO5fSz8249fD6hu5tep8UcxJdQmLPxbbqeexReXZHrpYG/2KVWTsHdznv5epVJGZ/aAsEQMC2CUAE2fb6YfQgYC0E1NxhtHPrka+bX15RTUF4IxFElprCqvy2X5/99JvN19f+xHL4tPGLSHJxdtFZe8zYSYYHtE9cOuIPzxRXFQeTJUptTIFeQQ+xRd5YkjgOBByDAESQY6wzZgkCZiXg5epd3CEo6np6WWovbUXFWP6e7PLMmPVXv//wwO2dr4b7Rdz+4fxXN7q07nG6lVerB56u3gXe7j6FlD26lNxcdcYOXiaTse4y+R9jT8NxIAACDkoAIshBFx7TBgFTEmBi5OqDi+vPph5fUC+t9dBMYsj65rayUyIhZhUqqs5vG//o+jhKfPimh4tHibebb0GgZ3AmVYFP2nD1p3Q/j4BHvu5+uX7u/o+CvELS/cjK5ObqUU4ZpXUWbjXl/NA2CICAfRCACLKPdcQsQMDqCHRr0+vEwPbDt1JF96fqqaCp1hf9mQkkwbuyytpK/8q6Sv+8qkeRdwoShnMCimqKOctcqt1d3Mt83QMeBXoGZvl7BGb/fPGbDLI4xVHG6Wv0exa5u0qsDgQGBAIgYLUEIIKsdmkwMBCwbQJuzm5VGYUPPsgrz2l/pzBxmKJWwQrJG3xxoof9n1xm3IsVWKXNXrUSuUeZXO5RXlcWklWe3o0VXOWSMSokdcxyFOQZnPHdueVnYlv3PhYZGHU91C88xWBnOAAEQMChCUAEOfTyY/IgYFoCbQPa3UkrTHn5pwsr/nsj++oECSVK1FXsVOdIGjQRV2We+0cpjpQnSCVOZTUlIWXykpAHJSl9DtzevYjcaHd+vvTNnqEdR22ICu58zbSzROsgAAK2SgAiyFZXDuMGARsh0D4gMr64ouDpg0l7Fh25u/9Fsgx1lLqQGKKYIKXVp0VT4UQSbz1ihiNpnWtmaXr3jIQH3U/dO/LUxqurV06OnfkFK6/Ron5wMgiAgN0RgAiyuyXFhEDA+gj4eQbm0qj+mVmUvvFMyrGFiTk3R6Tk3+1bLi8LklJiwwbrEB8bZITLTN8MOW9aHbneyI3GAq43xv30d7JG9cwvy30zyDvkofXRwYhAAAQsRQAiyFLk0S8IOCCBcP+IuzTtf5RVlQSkFtzrlVaQ2iO9KLX7nUeJA4sqC8Mq5OW+tfVyd1ZkVVUDjP2H0hXGBJKxYomOVfA70C6kn5rv6uxWUS2vfNnNxaPKAdFjyiAAAloIQAThsgABEDA7AW9330Lq9Dj7UdQrpKVVpQGl1cXBxZXFrYqr8sOySx5GZhVnRrO/ldWU+1eSOKqsKfctp/8moeRHeRCdmQWJ84KR1UdbtXrVpBoCiiSnU4481TOsF+vzR7NPGB2CAAhYJQGIIKtcFgwKBByHAJ/rp4BmzH7uCGcur5U719bVuFfVVnlVUd2vvIq8tkwc5ZU/isgty2mfWfygawb91CiqvTmpw+8s06TH/ix1kTifoBihsuqSHbSbjIkwvEAABBycAESQg18AmD4IWDMBvpRGGY2R/eTQTzL9HGdjlsurXctqSgMzSzI6Jz1KHHIu9fj81ILkPuRKkzbaQcYEErnG2Pspecm96ddj1jxvjA0EQMA8BCCCzMMZvYCAwxCorq30yChMj62SV3oKMzorKKEPqxEW0BAk3eKXi4tbDTWSzf+cLK4sWnUoaffiHTc3vltZXx6g6SJjVqKy6rKgzOKMLhBBLcaPBkDALghABNnFMmISIGA9BC4/OD/9p0sr/1NdW+Upqf+1iKlMJpEM7jD6Fxrp66YYLRVtzSf32UelVSVBexK3vM12h6klZySXmMxJKimpLgwxRf9oEwRAwPYI0G0JLxAAARAQj0B64f3YInl+BNv+Xl5bGqz8KasrC47PvjamtLokQLze1Fti7rPe4f0PuDq5l0lV28sEx5AwqpJXeZmqf7QLAiBgWwQggmxrvTBaELB6Ah4uXiWsVhiLy1H7oZicooqiVnlluRGmnIS7i0cpbR1jrjKtL9p838JMRKYcPdoGARAwJwGIIHPSRl8g4AAEvN19ChQKCsBh7ijBi4vJkZcG3nx4dawpMVC+odY1ihoPbXXK2Bg8XDxLTdk/2gYBELAdAhBBtrNWGCkI2ASBQI/gTGaNaeSOaojJkZ1JPb4gtzSnrakmk5yXNIASLnqo1aZnnbG0QrX19RSYnWWqvtEuCICAbRGACLKt9cJoQcDqCYT5hd9t7d0mhWV91nwpKLHhvYI7A2gH13vV8ip3sSdDmacHnE89OY9cXo0q1tPOeYm/Z0B2hH+7RLH7RXsgAAK2SQC7w2xz3TBqELA2AirF08qndVq3sF7HqKJ770aD5OqcKpwOJO18tbZO7pZVnPGfML+2LPdPi17yOrnz7Zz4oavOffZJTkVWtLY8QayCfceg6Gvh/h3iW9QZTgYBELAbAhBBdrOUmAgIWAcBlhsoMfvWppP3jjxdVl8S0kiQsJpeUoXz4Xt7F9/MvjZ29aVvN8eEdD1DdcWSAr1CMt2c3CplMpne4GWFQiGlLfgeeeW57R4UpHb/5uxnEy8+OD27orY8SKsAIokmrZPKB7UfvsXbzbvEOkhhFCAAApYmABFk6RVA/yBgHwTUREvnVl0vjoqe8NPuxM3vap0eVzS+XpJTntVpR/wvf3CTuZcGeYWkh3qHpfq6++V+f+7LIg8Xt3InJ5dqqcSpTiZzUtSRtadWIXerlFd5f3HqY//iqsLQnNKsyLyyR+1qpXIPysXYUDZDy8vJSSbpEtT91OAOIzbbB27MAgRAQAwCEEFiUEQbIAACagScZE51+eX5n6Tm3e2TkBc3lqvmrkWfKK021ZIqn6zy9Nis8oxYtSrxfPFT9g8X58Ocbvw/XJl5vqI8K4mh6yUjARTgHnL/yf4v/NkLViBcqSAAAgICCIzG5QACIGASAkFeQdkvDHptaUxQ95MyZ7rVNI6TVvXLxJCCcgspaqm4BgkaJmq4HENM5DB9w1uOuL/Re+wY1bH0N50CiCrN+7sHZjw34OW3u4R2P2+SiaJREAABmyUAEWSzS4eBg4D1E2gfGBn/2rD3nh/Udtgmab20zpAYEmtGrDyGlH4ifDvGvTr03RcGdxyxTay20Q4IgID9EIA7zH7WEjMBAaskQFvmUyprKp7vEdbv0MHbuxenFtztSyJFSgkVtbrIWjIJti2fecn8XAMfDoscvX5S11lftPYNu9+SNnEuCICA/RKACLLftcXMQMBqCHi4epbTYFbllGQdvPTg3IzL6WdnJD1KGCyvr/FSlvjiw38aXF+aAUQNQUGql2Z8EOcxq1XUh3q1Se4fMXj3wA7DtsS06naOYpMoXBovEAABENBOACIIVwYIgIDZCIT6hqVRZ59XVJf9mF70oOvd3MSBCTk3RmaXPIwqrykNqKip9K2uq/SqU9S5chmn2f+VeQ9/jQ2qd5I5V3u6epVQCYwSlgG6Y0Cnaz3a9D0SGdTpGu0yyzC0xd5sE0ZHIAACVk0AIsiqlweDA4HmESBLSV3zzmz2WXrCnhu36enmzep3XWQ/dXW1X5XVlPmXVZcGFlXkt8kpy+5QWlUSVFNb7Ulb4l3r6hVOZOeR0jb5WheZa7W7i3uZv0dgdivv1qkBngE5Pm5+ebylqdmDVztRKoP1SBySaAUErJ4ARJDVLxEGCAKNCZCbp5YsJY0f1mQtySt/FJFWcK83nXXBFtg5OTkzwZbP/9ylf09YctwpebcHFFUWtNbMOcTtzifmzjJZrSXHh75BAATEI4DdYeKxREsgYDYCPm4+hT6uPgXaKrVTEsE2/z3+940br/78l9zSRyYrVGq2yZqpIyrhEUXZq//16Yl/ramQlwc2ymtEQdferj6F3u5+eWYaEroBARAwMQFYgkwMGM2DgCkIBHoGZ0QFd76Sk57dWTOImFkw8ivz2m2I++mDKxkXp5xIPvz5oHbDt7q5ulWZYiy23mZ5danfmdQTCz468rcl6SX3e7L5aMs8zXaedQzsdI2yWqfY+pwxfhAAgQYCEEG4EkDABgm4ubhXnUw+vOt82uk59dJ6N82HNpeJmfw3KUVJg1ac+aTX2dQTCxOzb37UuVVss3ZMUaCyiy5MzjJnud5CX1bKlwq4OsVnxY0h8fP7hJybIyQyhQvHUctkuOBseX1d34iBezzdvMqsdEoYFgiAQBMJwB3WRGA4HASshcCAiMG7BrQbtl1CSQG1vlihUsrATMHFHlezzs/495G/7Pj+/JfLHhTe79qUOVTXVHrklme313oOde3m7FEuIwXRlDYtfey9vKR+K88u+/rjY3/bnJB7Y2y9pM5FV2kPNlaWeLF3eP8DwzqO3mDpsaN/EAAB8QjAEiQeS7QEAmYl4EEWicyitL8+Kn0YmVqcPIArNaGlgChXeoJKUpQryoIO3Nn5+o2HV8bvvrVlxciocWt8PPwKDA36VnbcqLTC1J5aa5OS0PJ08Sx2crKNfDyF5Xmtj9w98PzHR/53UV7low5c7TE9Ziy2TZ8JoDCvtvFP9H3hfWN4GeKJ90EABKyHQJO2tVrPsDESEAABJYH0wvtdNlz7+W+UgHBWnbTWjdXg0vmiT7yMYlvI6qGIaRV7fnq3Bf/p2abPYSosyrasN3pRAdReK88t+/peQdIgzlIifHE5fKSSZ/u//Ob07vM+s+YVKasu87364Py0nfEb300tvNeHxffoK7rK5sJKb0gU0tq+bR/bu6DPc3+NCo6+bs1zxNhAAASaTgAiqOnMcAYIWB2B8qoyn7P3jy88mERlKQrv9mcBQcoK7VoHy4khmcRF6lrWq03/g/3pQd+5VbezgV7B6ezcQsrXE/8obtT+hB2vpReTFUiLs4sJCXcnj+K3Rr3/eL+IgfutDgo/oLjMK2MO3N756pX089MU0jq3RmJOY+BsXuzV1rdd/LjO01aOjCaLmZtvobXOD+MCARBoPgGIoOazw5kgYHUEckqz2lHA9DMkhl4uqs5vy8X56qmyztXaYg/9Wkkty7Ts5+7/iMRRXUlVUUhOaU4HqVO9sy7RwIqhRgfEnH1v7AdzKGtzjrXByCxKjybx88qJ5EO/qagrC2qoSq97lA0syL0n884fEz3p+3ExU1eF+0ewvEV4gQAI2CkBiCA7XVhMy7EJpOYn9zx4e9crtCtsQYWiPJAFSOt7cSUqSAAobwicVqBTtMUYqdohY9PTfV740+zeT/3bmmizuJ/Tqcce35e4Y8mj8uwoNja9VjF6n8X9uEpdy/tHDNo1qcusL2LDep6xpjlhLCAAAqYhABFkGq5oFQQsTkBeJ3eJy7w8nomBuIeXJ5CVw0msyu3MChTmFRH/5wn/mhLqE/rA4pOlAchr5c6X089P35+4bQmrR1YvlTgZI36YeahTUJfzU7rO+nxAu6E7RC3BYQ1gMAYQAAGdBCCCcHGAgJ0ToGSAvhfTzs7aHb/5Ldrl1VtKlbgMxcXotRqR1cTTyavwtWHvPU/V2ndYA76knITH9iZsXXoh7czsOqncwxjXFzN7BXuEpk6Mmb5iZKfxPwd6BVmdS88a2GIMIGDPBCCC7Hl1MTcQEBDILc1pdyz5wLPHkw8++6iC3EQsXkhHckCt4Phgah8X30e0XfxP47tM/c7SgLOKMyOP3t33wtHkA8+XVBe2MSR+mPBhAeEk4gqGdBy5YVKXmSvaB0XetPQ80D8IgIBlCEAEWYY7egUBixFIK0jpxmKF2M/DkvTO5NrikqZyriMuGKihEAd3c2B5cvjdUhRXpIgO7nJxfq9nPujddsABS+YGqpSXe59KPvbEgaSdr6QVpvRhgzW4G45teaccAr3a9Ds0tdvcT3uE9T7u7OQit9hCoGMQAAGLE4AIsvgSYAAgYBkCLID4WuaVCVczzk/NKHrQNb88N6JKXumtkNRzsodVTHd39iijnV9ZYb5t7zzWfuh2Fjjs5xHAKr5b5FUtr3ZLyLo+emfC5rduPLw2TuZEqapV4k37kLicQPS/jv6drk6OnfX5kPYjNrNEkxaZADoFARCwKgIQQVa1HBgMCJifANXQciEBFJ5ZnBFTVJnfulZR68rsQFQTrMbfMyA7zCc8mQq2ZrJ6ZeYf3a89puan9GBBz+fSTs2rrC0LNBTXpNz+7+fi/3B09OTvx3ae9F1r3zb3LTkH9A0CIGBdBCCCrGs9MBoQAAENAvlksTpGpS4O39nz2/zKRx0N5T7i4n6cKBGkxLVsQMSQHTO6z/tvVEjMVYAFARAAAU0CEEG4JkAABFpE4C7tzDp7/9S8AM+gh8MjR/0S4BWc3aIG+ZPLq8t8Lj84N2Nv4rY37uXfeYzlMTJU6oKLX1JIFN3Ceh+bTFve+0UM2uvi5Iy4HzEWBG2AgB0SgAiyw0XFlEDAHASoeGvMoaS9L50jAVRQndtBUiep6xra4+SM7vM/6dP2sX1OsuYXVU3Mvjlk561N71zPvDSpViL3NMr1RUHcoV5hSRO7zFgxInLMOj/PwFxzcEAfIAACtksAIsh21w4jBwGzEqhT1MoKyvPbJufd6Xs5/dyMG5SAsaiqIJySEnIWmoaK6xJyQ7mVDekwcuP0bvOWNXX7eWZhWsz+27tePpVy5OnyutJgVrPM8K4vmcTb2TdnROTYdVO6zvw81C881axg0BkIgIDNEoAIstmlw8BBwLwE0kmgfH3mv6vu5CUMIdeUExM+2spqsAocEnJLtfJsfW9il+krRkVN+NnPM0CvVaa4sij4dMqRJ/Yn7nw1qyyzC5uZQfHDdvYrJPKB7Ydvo36+ig3tecqS2/bNuxroDQRAQAwCEEFiUEQbIOAABCrllV6Hk/a+uCt+0zuFVfntmADSJ1RklJeHLDl1MVSdflb3hR/1iRiw31nmUitEJa+rdr2WfmXizviN795+dGsoV9qDxJW+F9+uJCoo5sLUrrOWD+gwbLuHi0eFAywBpggCICAyAYggkYGiORCwdwLphfdj98Rvff3c/ZNUnJW2qtfqFi3MKiQli42zxKV8SIcRmybHzv68E79T63ZO/KD9t3e8euH+6bks7qdeQRmK9Okfri2yMHm0vje28+TvxtAP5TB6ZO+8MT8QAAHTEYAIMh1btAwCdkuAFWe9nnFx4q74LW/FZ8WNkjpLZb9mnNYybSZgSBGRiyyZylVsovPdzqWdnFdQlddO73nUlDDWaETkuDXjY6Z+ExXS+ZrdwsXEQAAEzEYAIshsqNERCNgfgbKqkoCT9448ybaxZ5c/7MzVI2MZnHW8pKx0hfJtPqBaHxWZs1Qiq3eq6RHW9/DU2Dmf9aR/Efdjf9cRZgQCliIAEWQp8ugXBOyIALnIuhy4vfPVUylHn6yoLQ9SkGtLJXaaMU9lvbL2fpHXJ8RM+3pY1Jj1Xm7eJc1oCqeAAAiAgO4vZmADAiAAAmIQIBeXM3ON7by18T2q6zVW6lTvZKiul2a/XKkL+mpGW94fTeg6/WvaWfZTmF94ihjjQxsgAAIg0OieAyQgAAIgICaB8upS39Mpxx/fl7hzSUZJag/Wtt7t7nznzPXlLvUo6U+lLqbEzl4e3arLZTHHhbZAAARAACII1wAIgIBZCGQWpUcfoN1fJ+4deaairiyoIQCa1XP/9cUFPbNKF3USSdfQbqcmd5m9vH/EwD1urh6VZhkkOgEBEHBoAogJcujlx+RBwLQE6urrZHeyE4bsTtiy9HbOraElVcUh9bJ6Z9Yr5QOq93L1Kg71CUsZEz3p+6EdR200lFTRtKNF6yAAAo5GACLI0VYc8wUBCxCopS31GUUPYu7kJgzOK3vUjqxBUh83v7yOQZ2udQjocNPHw7/AAsNClyAAAiAAAiAAAiAAAiAAAiAAAiAAAiAAAiAAAiAAAiAAAiAAAiAAAiAAAiAAAiAAAiAAAiAAAiAAAiAAAiAAAiAAAiAAAiAAAiAAAiAAAiAAAiAAAiAAAiAAAiAAAiAAAiAAAiAAAiAAAiAAAiAAAiAAAiAAAiAAAiAAAiAAAiAAAiAAAiAAAiAAAiAAAiAAAiAAAiAAAiAAAiAAAiAAAiAAAiAAAiAAAiAAAiAAAiAAAiAAAiAAAiAAAiAAAiAAAiAAAiAAAiAAAiAAAiAAAiAAAiAAAiAAAiAAAiAAAiAAAiAAAiAAAiAAAiAAAiAAAiAAAiAAAiAAAiAAAiAAAiAAAiAAAiAAAiAAAiAAAiAAAiAAAiAAAiAAAiAAAiAAAiAAAiAAAiAAAiAAAiAAAiAAAiAAAiAAAiAAAiAAAiAAAiAAAiAAAiAAAiAAAiAAAiAAAiAAAiAAAiAAAiAAAiAAAiAAAiAAAiAAAiAAAiAAAiAAAiAAAiAAAiAAAiAAAiAAAiAAAiAAAiAAAiAAAiAAAiAAAiAAAiAAAiAAAiAAAiAAAiAAAiAAAiAAAiAAAiAAAiAAAiAAAiAAAiAAAiAAAiAAAiAAAiAAAiAAAiAAAiAAAiAAAiAAAiAAAiAAAiAAAiAAAiAAAiAAAiAAAiAAAiAAAiAAAiAAAiAAAiAAAiAAAiAAAiAAAiAAAiAAAiAAAiAAAiAAAiAAAiAAAiAAAiAAAiAAAiAAAiAAAiAAAiAAAiAAAiAAAiAAAiAAAiAAAiAAAiAAAiAAAiAAAiAAAiAAAiAAAiAAAiAAAiAAAiAAAiAAAiAAAiAAAiAAAiAAAiAAAiAAAiAAAiAAAiAAAiAAAiAAAiAAAiAAAiAAAiAAAiAAAiAAAiAAAiAAAiAAAiAAAiAAAiAAAiAAAiAAAiAAAiAAAiAAAiAAAiAAAiAAAiAAAiAAAiAAAiAAAiAAAiAAAiAAAiAAAiAAAiAAAiAAAiAAAiAAAiAAAiAAAiAAAiAAAiAAAiAAAiAAAiAAAiAAAiAAAiAAAiAAAiAAAiAAAiAAAiAAAiAAAiAAAiAAAiAAAiAAAiAAAiAAAiAAAiAAAiAAAiAAAiAAAiAAAiAAAiAAAiAAAiAAAiAAAiAAAiAAAiAAAiAAAiAAAiAAAiAAAiAAAiAAAiAAAiAAAiAAAiAAAiAAAiAAAiAAAiAAAiAAAiAAAiAAAiAAAiAAAiAAAiAAAiAAAiAAAiAAAiAAAiAAAiAAAiAAAiAAAiAAAiAAAiAAAiAAAiAAAiAAAiAAAiAAAiAAAiAAAiAAAiAAAiAAAiAAAiAAAiAAAiAAAiAAAiAAAiAAAiAAAiAAAiAAAiAAAiAAAiAAAiAAAiAAAiAAAiAAAiAAAiAAAiAAAiAAAiAAAiAAAiAAAiAAAiAAAiAAAiAAAiAAAiAAAiAAAiAAAiAAAiAAAiAAAiAAAiAAAiAAAiAAAiAAAiAAAiAAAiAAAiAAAiAAAiAAAiAAAiAAAiAAAnZA4P8BygBmmV1Fot0AAAAASUVORK5CYII=;" vertex="1" parent="PzlkRYsVzpQkyw8jTia9-10">
          <mxGeometry x="40.02999999999997" y="60" width="79.95" height="60" as="geometry" />
        </mxCell>
        <mxCell id="PzlkRYsVzpQkyw8jTia9-19" value="" style="shape=image;verticalLabelPosition=bottom;labelBackgroundColor=default;verticalAlign=top;aspect=fixed;imageAspect=0;image=data:image/png,iVBORw0KGgoAAAANSUhEUgAAAbMAAACdCAIAAACxXgEiAAAAAXNSR0IArs4c6QAAAAlwSFlzAAALEwAACxMBAJqcGAAAQABJREFUeAHsvXegLltW1UtoMfMwR/BewICBNqAosW0BEVSMKGCjtAoooEiWaII2IKAIihHFB22LggFMNK0YCCbAACg+FFSC8B48EFCSv71/54wzeq6q2t+O59zLrj/WHmvOMceca1V99VX89it+53d+5yu90iu9wiu8wvd8z/d893d/Ny34Fc8XjbRZ4sViFCGCcATNhIMRSxvJgJFWr1F04ZwnP/MOviFnKueL4QlRwagwYzwFJEowQqzTwYZAIWakjXEEHnQNT94W0ZjJkalU+Jszf5Duaq7zyT4bJulInew9dpWxxItFQhepd6+MEb5Hw47OujqwdEnmorUAXCFgZEmFSWS4LqMI6fo3mVZCbIcrQqvXQLpwaFmSXXxue2A8V3r0MTSkU3d47BeCRAkG3zodbAiOyDbGEXjQ7cDGhKiWydGrlC4smzN/kO5qLhKxEEs6Uif7c0Q4ZEiym0wpMeQQsCQk/HgBEFjaZdfW2BAAYtv2alE5GADHNinSDS2uY9DpVqZqcuLtbnAzD2qA30zDwz/ohpMyrgBG9ih0SeJOZ1WQAcEd2+TYBSt/EBIbMAibXWTl05rCzVUcKbouazH3mzdz4kQxRT3J3Q1uZqa3ozLDzTQ8/INuOKvm6Rb0O3sC2yjudBkj4DnEpMqVNISa0F8ySTwAfMRZDBxt7NbgPjv1ADodZMU12gXbtZWAS69dt3uqzQdAO22MjiVRrRayYE2H3cARNbpDJ1ENGlutyrSddzPdqn9sSXkBzd80kjfrKORUiKW9TKmuMC8Ee/zNYmIEJFBjXGbUi7HtMcIJboKbxLrN9CjgE8ti4GhjN0UmB7sinW4Y7UKQY2sULr12rTBbskbbGB1Lolqt+eA1HUYDR9ToDp1ENWhs2SrTdt7NdKv+sSXlBTR/00jerCPID86jUw0xm2HqHns79yY2y6YL43W8e5rPGvs1Z/6252GUd7wqD4oh8Mqxe7LRtEjaPeYYxR5tz35c+XW8exmfNfZrzvxtzMOjY0bU9zYaVyre47W7WZ+aBLKsCvECWOAgInPUoyspIDcz9o4KR+NQaKNMRRpruaWWRMnlt7qJ/DoVW3OYp3/532DN1GAZFCZA/Nz2YGXRTc0SMi5cjRO+V14T1GTIrWAgNI3Nx9JGMfxwYhnZJeANcxAOuslI7KoQL4BFfZloYonySK0rzNA6KhyNQ6GNnahxy944JlFyPRM377M9Yy8ZjMYx3XYHp8MvxGezdb5B0A7x41ijjjn33u+dM5Bto7eozW01TCeq+Vg2Qy41peibgnaIH+sYdcy5997lDJztGbMu91aP63isackY96IyjCa0CHa6LhwgNM1YXF1eBI8BUUoZfkxub6LWSpp2UzjlpWCUSa3dGlKSSbuwxjdV0qZOEqVgaGC7w5vuCjbFN42Jxds4ZIydPXiPrM6mF5fhtp1C117UYNptEYvEwnK/eTs/zgnYWbVlfuIVhJDu7QFrQD9liM+uM56+nK3kh8M4PWqPuSeVWvcCL2U/L/nB1K+Bx96V/7gsT2CdT2BJ11w7Nzsi1Dbrud+812m52Zlf9a9geXQ23SsSvK6/WGQeXAbqOiQbq6w4aiHjVROLUSM2TEALtv1usIVt5sKV2jYJGCFI60nowcLpFND6Ss3Q724LRiTGkaLLO3ap4CW/FNZ5zZUjI6sNsxPdCI6ywJZ6uqTGlpfU8PXGAohFtfvNuycnOFPnLMXegJmUlinFKz+WDsf4BG7eL3cHxvFkGICMpLGjGkOF0Eu8KtBlEXcbO2DsFlsNLBPQJWGUhlEMaDz4kruFnG4UYmnQ3kRp3HSF0yLBejtQFxZdtr3FQJAfZmYMS9K1ZoyGdDdSGtslOW0zwXbhG9IVDteatMnRb6BCB2Ix0aBlzzXsdFuku5EKoZWD9drG2FmiiVcCZBZxt7EDsrLAQ01B7YZLCBNjvI2hNX+VbW8UVhqW9iZK46YrnE01vR0oDYsu27E9yA8zM4Yl6VozRkO6GymN7ZKctplgu/AfHTNC1ZqYGwfJOpRHXsoalsF/VnZdec+gge+Vumd/7GvttgtTf/0Qjrz3m/dj3xJOKeDRHRjWX1YqIBiV4IA2bqZp5iCvG0oUDlwRFIxuih8KUd4Em1ExjpBkxD6yDJfdwWk1CJ1FplG6Ql6lsGhMGXYjEu8gjG7ThotuLzAljxHZHcYOBLc3OoOzdk2nvXGYGFUe3u6KoQ2ACBaNI8WmMUkbNFPBeHvIp7siKBjdHkUSXQg2o2Ic4cmI/XgIMgen1SB0FplG6Qp5lcKiMWXYjUi8gzC6TRsuur3AlDxG9GjPKHu4W+LJwRkM4EkumNosz4LBroPMpF05Yca7ghG+Eh67hfMjh5lTISwO/5TarjbA46j2OsmnVPIYOZkuwJNcMLVZngWDe6qZQLtywjyY2BF+wLwD19wzmjIlOp5RR7zY1+kYContKANpMbY96TS2KzhgTWQxfhSTQtpmi5QZh+YeOfaDOq0BJsAFbCK6KpiOrsDWay5gu5LFtuqkBSQEHH6HxwihOeBoyhnMc/qDRpfhRIUZoBrdLE3GqBCxLOJTWgMJiUKiMDp297/KaoFjN1F2ExsCIJxNr4Q1vBUSOGgpvu1Jp7FdwQEqd5dwugxTY9RSwwDQUsZwrd2RSILG4bKLsgtMLMF2abF0eLbVhIepZe0mRDUJHU6KRDVnNQ4mhCy66FpwmC93nTHsJxOk6JTnYNINWJlx3THIWr/jvLeUzolt8R5gpr2NTb4pnDKS8aaUH6POOhYsmzO5Mh9X2ZvlPa5irp/XiVXn0Z5Ra3yOeXPkvWI2CUg3x0x7ym0fakMk3oQMQJcFWg4fSO1hBZac31mPbTTpEkvblma2d3A2Xc0BUwAti4kAXWTyWn+6FoCRRZwWi2pagpsZ4+DQbRrdwZSfqNVLeM+nYwkNwJIKwWvGTrGJEyUYnNWIpY3iDFOQrt7mR1/OAQFmcwzcU277SDdE4k3IAHRZoPWWc795Z8VlArOCNl0xCojqQI3M89mekT+07W4stdtjr8yVs1r2mMnVIW4TuKzWdq9roO06uugP0OmGi+6Bt11dJ/beiOOSTytYcw1LaIJ0MwnN17vpWmlYTmHK6exYkigYS5h6Gb4WPsBauoYVO11+2sMPCD8ZFbfdG4veFmkczYBjr7SVs1r2mJuJjkc0Bmgu23V00R9gr8Ir14ngs3jzfnTMOObxCe+ODSJbyfHqv+NBZYO+47x3k65Hl2lv492UQZaxMdxZ3ttLNEZ0v3nf3lTvKc9jxmziewGPy56PnCDdrifF91dZTjfi7ZAbx2QZmzUpRuoUH9BlDHK7HgumyK7T+aSSGCnYmrEIzg1nZ9DdBSdkbyDy9YYckKhYBOmGEJCkqSSuJwpkCAcjyuTcb943uO6YcOdczWzez9RjxkyNm0uPLa4nAWRrDqAqq8US8CSUel/DEzgD95v341opZ3vGzQ/t4ypoLy9Fpk6+Mzd3hTHKtL3jvU+K7IFQQxeTOgMg3/GxbZd3jDOiAPjBHr/QzRijFove2A+AE6K4bURGlF6NHTVodE9nrrF3ZqHI1Hm/ed/ZtPfmkfnXeLnf2rnLik/J5UfCVj7D6y5GusNyivJdcnqV3GXe+1xP+Ay43fbWe79539kqe3A2ndn3U0r3zj6upt5Mt+ca5O4SkisFbW+cyc0wTRS75M6+R1hlB1NNjDDjEidWr8wYU8wtgRRzir5kaxMnvI19/UvZQetcqyZSqkFLYEDHNgE8otJNSER00V05Id8sMPVmuj3XIHeXkPvN+5QV5NyewoTTK0JM+5y2RqhXRoy3BDqXxZBI43DZheMCja0EY3eNxQKwBYhbTWMsAdqHl+6FhATCdAeRLVgXxeBKSeLuNi1qxyDh0MSbdUakOWFqbFf4ASEnEXwGaFQbDXG9iLO7lJ9ErRncIMxkUZAWWns7Ss4ICUHv6Eb2NkDnSlUah8suHBeKcRq7ixEaFoCtNYNbTWMsAdqHl+6FhATC/F6yeT+z78Bk4+hVG2NW5xMLLLWLf2JLPaUwBnLNye8JybQEUEP0V2NbTqn2yeccDPbJLz4r6xm6Xh78v+mxDuje2XhMbbqRdNPVHDBLqgW7PgRuPS0ytqcEyok3Olgar4ROtHoTDhgpJBveIo0jOECk1vC9RJ1OHJHVpaXbrmrg1okrRgBGF43gLsBuXMPbNYgHgW4sEFadzgWWbFW6brtNScmejJuuHs7Z2O4374cbjPPmpGUOGzBX6Q5au8IJaG/wM/KYkeozAIbXOKO9AugtdQ0/9q781YLCKJXTJWhjLa6Be5ZWa7zHvz272TPAHhGu4T2xDEWIDTglMDUk6SlRTxTnbL7qQ974OnUeT+Ox95S8mfmQn9Gb99mekSFlVIAM7G6AGV392Qg0brrCWcsLPwDOMV9vp0tIi4DtmjRRm+Iac32NkISHj8WrSAqmDSEWgdn12mJZyTHK7yh0mq8rxnaN1HSHTqKwj8CDri5bAllaR9xeCckOYGmCFj9+YCdcwmAilUCj7qztYaY2jZuucNYKww/IMFcyFmg9aqMS0iJgu+okarMYjc/6zfuZ/dTO5gZxb3xyZqA/Wo1vqUJSJMv4tN9SxnvZZ+sMPLo3nU3qjofaefuLizKGy+7gdLUhjMAhlZDQApp5ujGCAis0vEWahj0DAYTWePDT7cAYA+LFElm9ujQeuCIVMMjYrRP7Zjr5uPSmbX5rBstEP5YV6JWJF5BWMhaXrj86Md4N6LxU1UmHK8U3p3EIIxBOWxISY0AzTzdGUOAoDG+RpmHPYAGhNR78dDswxoB4sURWry6NB65IBQwydqTOzqZ1dMoYE3w3ICWOYrqecPZKGoTR3Yu6QbsZ1yGMFNBktn216G27yljWFDHK7yh0RveUvM1pHKkAvKlHo13Odj3zovvKr/zK7WpB8bE3fKQGE4tXJ8hlXltog9mJIng3wErIZW2dNK6A9jYehNFt5i1hM65DGOmgyWz7atHb9qy4NQW0eAnsqLV7St7mNEb5GXkHpsdwj5/YGXDDzfY9tuPbKDu5bkP8XvN71Qw8Opt22L1L/l41EU/4YHu9ZBcT0MW3saOac9u48+Ygrgu7ZgHoe+Ml9wEQjxHxJDVRUndh16zhPvwGZ6DXS1ZWQCdqY0c150bw/R2YG5nGe5HdGcim7Ha8y7tpB3mT+qa17/We/TPw4JiRgboZ3epu+Nk/nbc2wv6QZx2t+xpo8Wad3lpRUzjZdVgJbW9aM+Ym+uqbnXRmzOGkGboG8U1kvte4mRnoNcLqQ9S1OdRjlN9Rg3n97tkx460muH6J9wrPxBnIRuV+im4stzccP1RD/w7yjoz33WfBDJy9Hdjbk5uRWzPDa1ePNltbE2IcgbEPcrJEWUL4se+BFoQzAlttMBWMEdCxsUNrnDKOjS2VkE2gzqbaEJGjMa6AFm9jR8kZuZrcIo07ZOV3imaC7RISgKz4zFePsDTu1Ht4aEpDJMeJELgQqWyLWz+WgM0UenGtscmVwD1ysoSpWvix74HODmcEttpgKhgjoGNjh9Y4ZRwbWyohm0CdTbUhIkdjXAEt3saOkjNyNblFGndI88/2jG5PMMDrhe1WCZZMt7WSA2PbEzWMdhMFjeyf/umf/g//4T9s4wiPa6iFBmHPFY4gzGhq78Ia/5Sf8lPe+Z3fGYvG/hwSqDEp1NQItpu88juk8SpiuJxoriHQ4kWkk6q5hiSX/A4Xj5Borl5c2X5Cw5KJIoWEJG1xsF34hEchgCgJtGq2mlFyCMEFDSATQFe+lqilmADJg4BRAjosIQcMo91EQTM7Fo22IzzGsxxbWSBob2/jCAJiJ4pFV09CcLyEGDVmSWPE5Ws8k34oDkF8plL1N15FEoJLJpY1JEb5tlFLbFsaj3D1R5ZoPnhqJzEt9FjwV37lV37u537uY0l9n/Q2ZiCb1tgEbyPXnmZq2CPc2+9nYMzA2TGjm6wgu0yN6Y4wvKvLEJirC+MIsUvLotdAY1/zNV/zzd7szcQSIptuLIBeQtgso5mXxT/+x/94xVNYciGVdBrbFRxgakMSuNYjP4SATjeimmN4J20vge3qbts7BHu7UoZGWsl2xbQemAxjyzbuMhobjoUFfquJQ4gL4EKIIInoqnMmtyx4w4zTELqrC+MIsUvLojeBWui6pKtsunj3Ehm46X0gev4nBEBkAdq1NCZoGBOFK2oa2xUcYBmGJFBjt/JDCOh0zR92wztpK0BuV3fb3iHY43rwDkz6ow67BsMJaNqmsQnHeDP1008//cIXvnAEromwrMYI6opIM8UhEOICOcYECiAceAd5dI3FGDAIJDVvypBwhaTRSTpENKoZvFfMqI1ua67eTcuonO6wqJliEJGwqu3Zj5mJAgSvIVgyuoCmbRqbcIwPUh+4onl69maKaQUmyrl8xBsce5u54gwkYHC6kuaILXKE7HV7RIbTtkJwJ9pT096aYc6nduJIggbB0EycizsGptZcpMDupANGOF34hhjeUVh0JcpuG3HFm0QQNNqafdRpOlo5hLhot4wEqgxBLyFGQdBo1xaOxvBjaQA+U6mrM1g0CswuIVKdDryGxygzrUxaF1NIltMWsEbI4BESfrzh4+qpU7PXaePoSLM1l64QAsIcFivZNB6H4DVWEExXNQpejbh6IK6pljKcQJgsdF2IohtBXaPbRlzxomCiKOjSOOp8mPB+8350sMycZOr2Jhm7Lshnx4xMMX0nOo7uatSSSb9ZsIrH0pXcbNIM9mZlr6CWSjJqRTL2EK4gPjRVuI7g6TWM1O4aCCd7Pud0pdG6SDg9S5iEBwdgJJ2ujLq7GjdjI3JNMMS725VcM8sIz2CH/e67qaQHThkZewhXqG1oqnAdQRUe/KY3HbWGYnfB3d0cVaq8kJmM0RlDwq5LO62fJY20pMDSnIGtQSPYbtQa4EosQGYCYbaXbhOiM/RHeBRWNcelTkQ2+c2BEHJqALQxIn2MI6GTJjz8gBY0sF3tBeManNFNLNl12aYA65RmhV15p5PTIsketQbNjL2zg7sb/dXYZYA3meHEa1LUGJFGW+20jjcumFiaM7CFaQTbjVoDXIkFyEwgzPbSbUJ0hv4Ij8Kq5rjUicgmvzkQQk4NgDZGpDcSCZ004eEHtKCBcT26A2O8DlqlSUmAxtRE14UQaFGMUXuyWnfCTZRWe7yI4HqQ4ByHgLGrir582iTqqjS2pQPB6Y4a7FoP2C5kLUZpjOVM6+ESPobgAIxEJRwg1k6bsYBZUgZYZsLP/duNUbQCZ8/wkc54jDKTYtXdDNwM13ie/NHzIpvhJoVvhQkEwE+I9uGVo3GT2UYT0ZqIScarMTS6Lmj2ZhOj9uQda8pK0irb4riQShsCxq4KwohKoq5KY1s6EJzuULNrJWC7kLUYpTGWM62HS/gYggMwEpVwgFg7bcYCZkkZYJkJP/dvN0bRCpw9w0c64zHKTIpVN4EPzqZhxHTARveAtgbeW06cAWaVxdXWIVmRm95mPiNwf4AdWg+ZMbpxY2z7NYemFOJ7OnHBDN4j39uvMAPMKsu6TrNqNr1XSHSDIWd3YKxPUUoUaLRit1d282ECBpMojCwA+VpowwTvLQbSSjavRkL8RGmkG0EI4cQeBSx4m4zFxaiuM7SHlLv7S2oXUvpdCsDSXUvVaGWNtawtHNdayAAxbXKtgde3mMUUZylrUVyXKwInRtdyUkvIOopdYIg420BAk9uYqOQFmIJ0YQIGE0GMLICUZDfMTjqwTFrJtJ3OgWMcgnS1qJZYumK8AizNFHedoY3C7qBLahdyuU4BWLprqRotqbGWtYXjNIYMENMm1xp4iuVsz6gWAK3oGkyXpXN813d9F5bnPOfBBcqEw+d3SY2KEeASNUG6eBMyQNRiDxkLNdBiEcgJNildF5mGY0m402ps2k1NjE6C4a7IMV26Ep4Q09FNXpl0e9ttQpghxAJwiUgHYtSukZZuixAb10OlR391haNDQXArJyZeo8JRitROMl0WNhtaY0dVhq+TjKAhuoiyGx0Ck7SLMQu0eMf6MhCvyvLvZvMm6f3mzYT3NjDWXbquaLu0gmwDdFsEzbhcod3qCkeXguBWpvvgHZiQEmy+hEFgA8KLhSW0ABVsYxTYEtUccYwB4ayWuAJO4YR8HZBEgowoI414LADIfuoSHtozC2S8lJ0Z2BxUG6859iTq7GCW8WE4cTIRJFbyY9+8T6m5J/MU/pU5SZQ5R6qnK8qZQACEa67iyD5e4KAce2bg5faMj7e+++zP1hnobe6aY8wn85o69+H3M3A8A4/ObvwSkM2m3Jtg71MhtLdpyRRjB4L9hIQGiFEmrUBXM2PpjxnkVXNE3Ug3iSzPtuehs+jVcjfldfbbwD2KjC4gGWMRGJVYQAgJGaADxSNENYzaIz500pVGFxDyqGRItTfhEVTKbge2fsgxymx+OAHttdSEh3NLIImsIZUIRtI2ZkoH55nV7VFkdPOpHUm0MsJjqB3fI2+O9jADmt+YWDlrulW2LYm6MEWnuzJOaoALUnupIcR7tfO+K9d5S4E90oxO0BljCdB7+iRktUYWKcP7xA0ji5yuLVEBeJsgpjU8IvCblnBAc7SHGdD8xsTKWdM1TdyJEnVhilXnCpakBrggspcaQrynr9krVHVnIT3SjO4GzqZb984Gc5/oGTQDbm03UvANSp1Yz/3mfeJEPctoZ8eM2U1mbFjWDaKNYBb5AQnfA6tmLAGJXS262t44gbcEzMVgkzRgM+OxdzPkiTW6ih1RxhWQsjM58u2K4QAuPMRYNSOuyyPH6BzwDYRgAc20sCgL2ghmiX0w97qdQk4sAdgbr1Ltbbwyb9ZiLkadpAGbiY69myFPrNF17YgyrnnMmA1icxgt0XglH3tX/rPJksl9Ng3qOmNxd8YmkT3aKWpuQrTOp10DwXYvO9VG7WVvzcYr/9i78p9NlsvO+TN07NtPerPie92LGeG6jZ4y7IMolNubRMg2NktbEiU4pYzrcJIlALXGe+LWfApzT+FJsHf9GVGvDouEFm8s7BY1rvy9oQ2R7jYmnG7XtgpCYIldcozpShjdRB2DgygStbcrWTXbmyjBSr5ZS7IEoN94L501n8LcU3gS7F1/RjSPGW+q0E52U5pPjs6ze3TXmedsWIr0p/3KskPzyjo3GPjs3gCe3aM7cTN48CoLbKcjkzJuBULgVCjeqK+WuAbYZMYYkKhjy8GnJZ/GADQbm+IUy1rMWlU4kZWDvgv2C6PgQD6RaaLNVpFN17HxIPvQzFgCVuXMQHPAkYo9llVEVwiCKMfesqtIEgnSfYybd2oY1ba9BztoGXgAhMbyT7FEOakD4hoAWTkAFwgXRsGBfCJzZOyuIm05ER9kH5oZy8sdM8Y62KbHKIE2p0inVGZUwjskGaM8LE0+EaPgdj+uamGMuMWMUchvWjKmeECMmyCEhGzSVmNqW13HFjMaHhGNcQlaByZGlv/8n//zv/7X//qLvuiLvv7rv/6bvumbvvEbv/Gbv/mbf9AP+kE//If/8B/5I3/kD/thP+xH/Igf8VN/6k/9uT/3536f7/N9UDAFszSmF1eMyMpMPWsXi0aBLQqArAgwUnTPCv2e76G8L/mSL/l3/+7f0VLtt33bt337t3877du93dv9lt/yW4wlxKTwgwGNdWH5ju/4ji/4gi9g+P/jf/yPr/u6r0MT8H2/7/dlyAyfloUZ+Jk/82fy7zfONTaapOvByotFkO6GysubeEmRMX7hF37hv//3//7/f7iwXv73//7frBqWH/gDf+CrvuqrPv3006wa/nHbq7/6qzOo6IuZkIwU+cxqaMmZ2ObH2+A7v/M7v/RLv5TCKI/VQUlU14VR2w/+wT+Ywl7nfHmN13iNy46904EtaYhojGstG368iKxDThZcvdXJxPJye8awnwTAwKyyR0hhsT+uIj/jMz7jn/7Tf0r23/AbfgPb5V2W8df/+l//F//iX7CHer/3ez8+G52akijsqaeeepd3eZe27+Ev+7Ive8lLXkIUu8KV8/+eL//hP/yHuF7t1V7tF/2iX/Tmb/7m7CYOtrPwAyBv8r/6q7/6Yz/2Y6H9/t//+8dLxIkV8Nn7O3/n7/ytv/W3/tN/+k/DZTf7xE3vavxf/+t/8V/Y+BeV/+Sf/JP/+T//5yCwt+Uz/+Vf/uVt/0k/6Se95Vu+5Vu8xVuwo2z71XBv0o0ZyD/6R//ob/yNv8EXFXv8TfH/73zRxW5dwMbA2vmlv/SX/oyf8TM2oy5l7JIMpLDP+ZzP4f96fvEXf/FlC+MfOt1UYZcaxTXJr8i30zoRiLaxcfJtGuM9ESDix0Y1ovi0fPInfzKr+cM//MM7RZhwQgavn7r2pgyNtH5zEhWLnNZprJctI1+53/It3/KbftNv+u///b//2B/7Yz/xEz+Rb0il1ijtFrnHSYUBq46uf/7P//nv/J2/k0re//3f/1f+yl8Zvsrs5j76oz/6dV/3df/0n/7TwzUE+ey9+MUv5kAptJ/4E38iBx0cIbrw4WeMHkB97dd+LQdT//bf/tt8Hn70j/7R7/Ee78EKUrbHlfEGkIJ5C5PiTYqF3e47vuM70mX3tLdnZJL//J//85/1WZ/FvsxAavsFv+AXvNZrvdYP+AE/4Pt//+///b7f9wPwn8t+1I/6URDGSA3pCtna/+bf/Juf8AmfkO8DFF7v9V7vx/24H8dBIgv6iPC9wMEjM8Dy/5wvSjGW13/913/7t397jqC1HLekztib2UYxR698sbHl878zZfLrGz/7Z/9svur4Tvq/zhcOEjmeZVfOwgqiQubwP/7H/8g6ijgHa+/wDu/AnshRZ0WYRVpjLb15Rwoa4cwY30lsMGthqYoKX+VVXoWqvvVbv/W4sLd+67desyfjJnAIm1EHriF1wNQVfhI9oceM1Mcyik71AXCCNwEKiuwx3d/J2VRYjZwvcJjzru/6rnxu/+Af/IPswZuTRGrSxtK0y2I+oh/2YR/GFsxhS+8WV50e70jNPo6C/9k/+2dG/Zgf82M4DmL5CT/hJ3TU0MTFbvFlL3sZB27/8l/+y6/5mq/5oA/6oL/39/7e+77v+7InXclYCGEhOwsgHOrXGIsgHLxaOGtjN8Fu0X0i++43fdM3fYM3eAPOHMMZIhd2Odz+mI/5GA8G+VS/0Ru9EZrs6fhUEztkLUkjFxzYO7/0pS/9iq/4Cg42WVgFfD2wU74w6SZB2Yyanc6HfuiHcpYKmS/a5z3veYz05/28nzdOC5RKFF0wCweRHP/+3b/7d/kCo8I/8Af+wGd+5mdyVsFqvcLm3QVT2O/5Pb9nFMaMMXBT0zIWFgCBgA6nsM/+7M9mU/k3/+bfWBh7/w/4gA+gsKZdCneike5SOnvk6L/cMaNWYjZTxrsnumdXjfBN2Y6C08eMuLBk7UYHu0cfe4JhEs4CHwsLmNaM4u5qlxzcZLBqtH/tr/21P/pH/yiW93mf9/nVv/pXh3+W5jwFFUJzX8AQLNixSLCABKqsK0YB39t8Dv/Vv/pXbFJ/4S/8hc0P5F/5K3/FY8Y/9af+FFFror/9t/82BL7S8XKUxIU5z4vN2+WN7BI0cnjCwSlHEPD53L7bu73br/pVvyr8MAHis7k4X+DwlyMju5SXY8Z//I//sdXCAUD4qq/6Ko6LOVbDwnEcY//Fv/gXJ8sKUjyxeJNaTJc9O19g7NqwcKTJsSrHfRx/tZRRbVkxNbN9sofFxRnDB3/wB/+sn/WzklSwRsXShWnEwl7sj/yRP8IpPAfObEi/+Tf/ZvbajmhPMBkJZ0EKC8t/+S//hfK81MMlF+aQg8ckShkwg+PVqJothX3kR36khbGWLewszeU3b/awf+yP/bEUxs6Rg8dRwynds9Gej3fdvEc4NOuUny1k0OhKWO2vzJGIVoVWvMZoUbGjmtnecAKa2RjC53/+5/MNwwXv5z//+fI3o1q/FQYm1gV7Pn5gwllwCdaoYaELWSMhAK4wcijBNyGfE44++ACvIbGYiK4ikQpoZnAAZ38cEfBJZrtfD9OkcV/i8z7v8zip9MMwEv3JP/kn//gf/+Ncv2d39t7v/d7v9V7vxUlxZ3dQbUn2Bhwvc8jA4Qwn49/wDd/Ats451M//+T+/OWB0WkpMywZ65jhfCP+0T/s0yC984QsxqABg78MOl6uQ7Ck4MfyIj/gILuUP/dFN8dGBEMyJ83u+53t6Se6t3uqt/vAf/sNv+IZvyLnqEBndaLadc20UOHnnOiAnsxwBcWybM+tk7JDGEOREnL0P5x+IMEb2HYhzdk9ICB2+YgXVZPNml8opBZcauEPCVyBfOey+6Y5A+XtGU1MYx55d2Pgi6XAEu+DoB6yFMYev/dqv3SKXwipHP6BF2tjlNecAv1L70HLBiJZywXT1nnsu0Zgiap0xxsgNLxn5OLFgT3Yw2wGLluM2TFLAVF+cpILW7zIGhiafrz5WMLsbjh3YEDVCDoBpdowB4IxIcJydvc9f/It/kSjOjzbvkCYdnHXByyGJCpyjcbjHmWDmYeWvlowX4MLVzL/0l/6SJ/Wf8imf8if+xJ9IDQ8pD/66jvTSxhs+6WIE8JH+7b/9t3MWxjU1Lpiyi+QQL+F7QIV4HYJdrnhwS4o7vHwl8N3ASSu3myHobSaWoRPBATiA5UyffRDhTKwXduGo1m2MQ0EOZ+Xs98Ecwn/cx30cK5cCDMlGa0kHbZgEQkPtF/7CX0hJXCrBwt6NI2WzK6J+FzkwNAp70YteZGF8GXOmwoaqCMYAmNmqAyDsbd4c6/zZP/tnLez3/b7f5yH8yL52kw6XA1w517GgaQpAFgRfbs/YCSRpCe4qm3xljKCxKrsCoqYxSQUUAyElCbqNt8ONivImSKJNb4zQxHzY2PK4SsXJAkciGM2SOlOVrtSQRILRJhGAi3psQwCOBPdOQMySqO6izCbOiT/eX/frft1HfdRHsV8Y2Q3sqEhtApmc0XOdkfNcOH/5L/9ljkmR1UXbgemGgFdmaJbEtVSuYHIQ+kN+yA9hT8FhVEKivAnUiStdjujf+Z3fmbXzQ3/oD/34j/94DnWTsQsItoxwDgAHQZxseSWBi6F/9a/+1U0ygtpVzhchRob5e3/v7+U6CbtFLsvkyh3F4E1Jgm7jVdPWKHPRckLg6QUZ2TK5uY9RZjh7gO94DmPXwuCbJRlTla7UkESCbjmnYc1y3kNhXPK2sL1KtJslnO4eJIIfL7ijIrUJZNLu7hk3w+7SyMBMl1H1UE+shNgrRJ0ojjIPc3CmBv/v//2/z4U8QMo+UeSAxrkMR6M8QcJ5B7uhA+aei+c/WPByfPe7ftfv2qNd2c6DhCyEcwjJ0eiqM2ZjdJuPi68Zbgqz72Y/yy2X9l4Bs+th0tjbclzPMdRP/sk/+QoixyFcYnbnyK6NDeCY3F4G+0mf9Emc5vPl+iEf8iHeAsLI0rQL8cHmzXk0X4oQeNjQM4YL1STwPWdhfEvlCVZ09F62wjUphf2hP/SHLIxHO1bCE2K5xJ6RwVxtOV/jZwcUgm6ZBbsAxZ2XDok9zES11IoHza76aAJUXls5e+1I9DZv8zY85QeZjwc3DfAq2DS8dtWUAA6za5BDy9c+dxs5muCc6+AqT/iCiHMKyRV0jBxsso/oesDYN0saNLups70a3/3d393zSu78cHTWBDGJenQYR2oJ7MG5FMi1RaaR0zdoSQrhCgvHSv/1v/5XDu44SOGhnAsVusjTMRPrzpHjLO7hOuS0JBUDWpPjMr9IOKTlMApXM4OjswkGzS4ti4JcCv9lv+yX0f3UT/1UrtumgHPKdsPXiYVxgy6nFwZSAzG06aYq7RLAEgISEjtnA7/8l/9yCBxrc7kDcPoSEUIsICD1WEm8EBLVnGC96QousWcc1SfZsNs99m6G3LbRAXd5WG6kTi448qw/z5fw/Z8n7645HB534HYzIh/4gR+I+GXVKIPjTe4F8/QfX/4Mc1XosffkrMy2hGk4F5gY9U//6T+d662cH+m1bX0U7NKCI6IyR8ce1/Cg6HUuzKdObiBwz4oute3dswp5E4ziB6e93M7i1IHTT279D9pel9uMrCC+7bjlsse5rL2n1PKw/Lbf9tu4acZm4GxcqHkbhW0mvWxhmyLHxl5HPTnHUWFeYs9IJsNMeeNtaqJ0xbEkaYwO7MTsakYZkPAIRkoaXTl7bfgB3CXgTJANnWNGnpiLTgjJpWbXA4amJXYOdnxMksc4eIVgr5JNuyLcGOHbmOPN3/27fzc7r1QSQGzSgbUHhAaIMSEENoFzLs4rsfBcEYd+ynbbZOzq0GbhQgTPWnIGzZ4RsrFGyQ/zFMChKzedYHJrm8cGTgmBM/J2zceY29x8e3G0yw3rf/AP/sEeuSfER0r50mK3pd0CiLXaPZFhb00CM1fq0HLFlmc2cXE8LlmXWdaWp+4xWlhydSDGdEMgRKygBHCYgthx8XC4hbEvNurEtkWSNJUEJLuyx8x4UyeWS+wZTyx9LSWWyyrIz1xkAJfSOYVMilNog0M9Wgjn2Qgv5PGKxaUuOQ1NuhxN8EnjvIanmr2IuXKOLTwQw4U/OHwzX+2I6Vi/va4Uzo88cePUlTvLTei5bdwczuDQ4SDXh2kysc05HfP4Cw8wci7Jbe7Toy7FdNSEWCprir0wXW7T52WhA0Ffc+RAGw5z4rRE8yDwCi6/G7gswxZ1YbiF/bSf9tNgZi2kwjZeKHUh4VKFXah244QH7+o7eNcQORoM14kVGKWUqxyL4Lht/WYmPPUA1G/LwK12gEl04B2uVIVd7CMLXHDkfRKMXOHiWeWuBKNdpfKIQ6QacAeZZ/o4muCwkT0FgUbZjm5csSPF0+C8p8UHrx9BDzOgS7IAXF3JJjbcWFo5AF4K4n4C1/s5bIyagoZwOzJkgEZaXkrhKI+HIjknpasyhAHsppUZEQFe3gf3iWLum3McF74gtIAQhtRxN2oAB8WD0Nxb4MiXOxhaDlqehUT/qaeeCic6qQcAp7srPi5SL8+fclDPyX6/D7oX2IXBsTw3V7AlaexiYNpV9njzTiCPClgYpxqpxxTpBiTK7LEfgC4pUYKDVkFi53mWDiIDogJbnCoPQB5QgJNkgr02iULAQnhWjHZprT/KgKYFEE2lbOMdgZKHcbObCvEmC4BHDtnc2StxeYvrbnhTZwDGJMrQUhivUnk3GQXuG4RpGeaitZs2dgDZucoG8Aw3nBXAYWm7lrUNx3poE5hxceL2ghe8ADuv2cIPE7CGY0kW3mwD+3RkmFhUCGhBsHZalkRh92CZN45ZRohR8BuEg4g4agcgo4ZzXsIrcH/51/yaXwPmVz/YDWnsNokAHlfyUDfh2QYkS2v9UQY0LYDWxEg35NC41ONjsDwB1oQwG6Qwi8GVLILu4k2dARitCpChJa8uW75HLYy7Q5BZksJu2iSNTlwHgCiWJmhZ23BSHpwL3gRYVWJBLhhg0bQa9abbzFMwuxW+fhVhfgkBRw3MmsCIS86BplHQWMC0ksGK0AWz7Imw0XNZZPUSolo02Qq5j/xO7/ROvkbG+bVJ19hNC5cpuYmBi3fXvAqzSTs28oIz2/dzn/vc23hOhdROVIbsHGrkoUuej2FD56oW16qs88IZ4PoDp/y8l3I8rlO8HHv6/PALX/jCU/gHnAxQjuvaYWLRm64chs/zRlxM6OFvpuBdmv/23/4bW/jqNZH2xitTS386wnfOaVmg8aVFy7M4dveksHdhrZYQjMHn8o8+lbGfDnjOFDLPpZ0ecttMB8jQdv/bQRgpJdMKyAQFQAseBAPxRmFTEyMEObzYxBLa4wW8/sXrExlditGScdnlgiNHjjzDwaMSHLawg8Oui0CBYwQ3YHfGhTZeU+WHpLhApstcCQ8/FgnYddH1gJFHSQZH5tpKs81XxaBFiizhJ2PIfK44d+MNCn6uij2jhKaBXSJILM8w8owIZ77RGYCQYaGLQuwpiRvcGPlW+Dk/5+fopRWoIBNLQJRDi9csIRhCdxAMxMt7O7zmwVE/i29MtqaBqvEuqXtGouSE2foYk9RA2yY3IVhCxP1eZ8+oJbTW1NiFaTEEZrqJikUQzsgeBQO7eJ6pwmhhgARGcA0ZLgkHrXzbS23eL3edcS8BFVt0AJnYlFn4ygKzEGuryLnt0dfLnnLbTdGWJwdnaI4ro9OeLgUzCo4dWMAcP3IA5Sia0zhj5PFX3tlgW+E2NxObqQ5BkFlShLYJ/CYVP4eDCK+IYU+ikPdAi4D3sq+upFDBF3W4xckVq1WkLQQmaR8wtl1CRzVOuDVw54pdEsZf+2t/LS0fA8lpwx8gmgEInm/dl968vSbA77xRzJolFt+y5+c5erAU7BLaKaBrhs/n0QXlh/CVcsy4J5gyRmHaaQWEky4ibd/Dm2R1kFoLi76CyTtSK5ukIe+BlCHIpA073bgenU1bk6WAA2TTMtGsOYEV6JIJBkQk4Vrwbi7xCtJ94zd+Yx4SjAixuOLFTjEYqUfOEO9AXVg0DmY0sUvAMphcJx6WIdJdp4hrfDxozdkx75BxhhUF0yVpAGeUfqr50af1bnJK2isjdq8TsXvytYoubMWJwmUlWAQpDFfTwA5w2BUnihuOXD/iNig7aJ8A73AILJBZfbHztJP3XmJRLa0hSSGAjN3NQAvvXPPgHns0jlvP0tRnGIJdU4AD4rqRzZvDVT7tnFBzxsNPWKYGQbr+DBd3iizYGuKlm80bvC5r8Vg0Sm6MhefJuQTMJqF9eFv/qaeeostDRVwq3fzRjax9qlXHshtnIAHJGItJf+tv/a38/DOfDruh2U2LvfNi32MmZHBSpKDLaKlO9GjP2KInYhKwRBqcwMYxng5Yi16DSMhZpnN909liSfYwNwE0mS1ypngNzc1EGrm4zp1lrnbxEzjsGX/H7/gdJtoM4aIkL37g4mm+/G6N1a782BEMHjQPGIfxxO46SycGSmPg7Jh4TJ2BH/90WGR54ofdWbpXBlzdI5afVmPXfGWRDjzbOGqSwfE2jlHAIy8cMrObZs84XOkyM7xtzXVGHsAer8P3/Ic/wEF2XRGxy+Vvlr2tpcV5uOLP/bk/Z2Ge97R3YMTVxx4wOHtdi7Gw5qRIBIObcE2sptUe61/i3jQ1oaUc0lnYnbPYTd3xAowKsLvXRgHQmnv8Y3vUUo+WdAPCvCZIPU8//TQXHFHjoWs+Kkk0AC+K8Y4Kd5z4pT8ut+GNQkBC9oqHkLL5UuHeS0IOwMGKM7WxKEcEvFYVLy4wezpoPEAX5gqiDNPH+joLXrpZ1nAseGmTGsBvnmPkxDx8jMECNcEBISioq2UPZkmaCsnFDxEhxYOBUV4BLzVxdAmNR3xY9Um9Mo8tBLqk4NEd9of03b8pjNe6LWxQu56IXwq0gjjhe8VDkAkh5AvBwYrrvK0JTnmPrjNiIpnF7bVWEy1pMdLtlFFrwlAOZ2hGKoWGQEiMmyCx5k32gEgBXJp5g5hDA98P5dLh5o1IsnMtkjdeOEDmpg2HTozoYVGP/mLsqhx1W8AJ5KljdIb3wu7Q3OwmhZXJ6dYsFACBA2E+WnitTVqG1N3cQ2+pMA+A4upzf5OMkPPSC3a6liRHy4Gg5ETJjJGuFWqJWhPg+J9YfGQ6nGhqQcdHfPiJT64acU7dhJ6HFa9lqNllNG5l7cdtCuN7naulB+QoAw6WLobhrEyMncUhtwW8aRycg+4I3+xi7NrOrta5oPsQXv1viru6xC1HWuEtJ3kkz0ssvAjM55YLjutjbrxRz9N8XFTiB6m4sfso7DS0OZbr/I+ksXFYxabxoED3jAzWX8k/YOrafCLqwqhB4LImFuZw7x3zO9u8vTjA72vtfRdaOb9C8rZv+7ZgbuXz49un/B7XGPJmd3OT2GTuGS9VmLuYPalj715U7OtYLrspRkqwGb5phD/PptdqWt2hykmbrHg1SlvblkpUjPLTRUqsJjiCSb0JYGqXH053G0OgG9o1QbJbMNfdOGDk/WVequUKjnltuRLHr+lA4/UJnzKxkq6t+RamRfG2gDGysGdseyscYENo5bRCXA3MNVpjeXvH3ROvoyiYwMG366Mbm65jo+IkBXiMxrPxYKM2B2sle7I9dplDTeOmMkZlWePecvWEOrkShUUd/t+ZR7jsHNlL8og4J4DQknoTJFzBcLrbGMKFmhERdGHc6Of7m5/80JXsALOc0iYqZNXSBbRF8baAQ257jMfAkIi0QlwNKODsmFFRwE0tqfKygl0JhRpuxWC8lxV8LPweBZgbkfysA5XwtJ3XwsAcRfL0IgdW3K/gxssN1rn+uv2lxHv7yMxfSgHy008/TTteoN4T4THAPdcpdos0l78XbVTWQsApaqdwFKTdIzsiHjsfhFRizZwreJuOS8NsD9yF+/W//tfzY24nHmsP8RvsWhhf2CmMnz1OYRkFGRuPAhjjsDwJXWe+272qHu0ZHaTt3qgGR1pCEtU0sHUA1iLi1RWOId1CwHvKEmbyGtXdxnjpJirglFybnCEOhzMUHr3GzkM5PNhMCn6pm8fZeECH82g2RDgYWYylVTndYZHZnCjwsdR+3KIg4Szrw7wAjeYNobsxnse9XJMiOWzEwTvUBqZ9OfbDzpWPGakEDVr0eVoYzG9ZgxVOnYJuw3lYwoO/gyNNI9gu1KaBdQGi5oh4aD9eXQaCDaHlgRV2QNyH4R9RYOfxb74+3+md3onnIv11ToxGpY0leXV1tzFeuokKiOAm4FEqHqnh5qGPmqYwNmPeeuC/Tp+oE3H4LBZGqz3dYZHZHHDI0TwAKOg9y/owL0CjUiF0N8ZrPbVznvQsmbntduuA23JNfH3Bg2qvWdtxOBccOX3mBJOdI+/G8MgY90k4ZODMi3Oo49g97zoWNN0r7YXs2ZlYXAqunGPvyudfg2Lk2tkp64sP4apwWQvHXIRwzHjZwAv56yQnZG90HjOuD3sncAAuAnDAyDEm/7eWH2ri5+N4QeD/Pl/4+VjeJuJiC/8UwcewR+zoHlQ7mKd0LYx/ScjTRTxva2H8DxwWCuMJM6qitr3CrlnMGu52eErlg3O8AW9650+5qGhNQz3drg/m6ELDooLeEFbZMMfeAaZLkkY2alqaIA4BhfZ2V5zse7S2K9si8SYjlk0Cdk5M2A/+xt/4Gzmh9pyaVwC9JtghkUqFxKbONoLtWoaB7JI02kYtQHJr6opUd4NbLczOG1mBe0aOGYd9s7vWJm3PPkSgUZJ7Rq7n8gtsqRDglbsRQleOKWwT1XljHAqxQ5aPJUYfXebWPC6N6+adGqLMxVn+mRdPZXNExm6IZ0IZFK8S8RYACzQuy7AnYuGblcPSpFOhu+JkTwpA09qeUbRRTGFUxSHkKIyfDmGBMwozikSrphYIqRCcOtsItqvakNIVtQDJrTkCuxvcakn6HFA6KLoKOb/rgiIh0NVRWOzaQmtvwg3sFlp7E4VRO+QAvCx2bdMdmnYTSPc89NGxLd2VoyUuu2ljb1m8UZaJV+ag4eUbmL2hP6rKPpGfjXC25Uc/OgLakSLMgDA5WhnrLq4VWKGtUdQzukbFS9ek0ASjBsOzZ0wx6kSfKJkKBgtskzReyOJOqsWzaf41oImehDYPLTnGtJkEi8zoGJTj4lFHFl6j4oIj/ymXf9vL/xnmHgjHbiz8vzNovDXEr3hxkZrHJ9kRn4fe7uZNCp6ipzD+wcOXfMmXnFJY/9qmQ8t6yaidlvYGB8DJJyVbVCtEtoEE27EtpSu/uyYl6upn05FQnW5qBbNgj6UrPh2v4aulE4mP9U/hHCtcymvBJuX0yi9/FHh3kM19/ERoK3fgsKu2ORBPpXEZvieioN4W38OnM1XwLZRTfip1L+Nl7R4zXjbqVvkXnk2vs9oWPq5sHixciOSSJcdr/I4hC1sOe0kuy7DwPDa3wjmf5cSWhYO7za3iZodpYfwwMK94WRi//LhXGLtvCxs1ONK1WuwaV1cUcBm+JyJTb6IOwCZz7hktCOpaX+LDIVmYABbTd+kYwxdsljhcdFkUBBBybnh0oJdcyQgYRrt+IcSrWpijK02jymkN6TKGy26U6YLTJZD/E8LW7DN3bEy8+sJPzPoSZMv69dhqDMGScrhhdy2ALdWMyRuO9dAaOwjptldMK1BKZiwJbC+/EUmXc1taCCEHtBHsOoq3pWIM0JsWOwpcrGR/wWPzfGLDNEu6FmOgRghtbJdYBbBZjIogXhaZcoIBvPqWbkKaZmw0wzlXfSRLCLs/djH85hOYVcz7Re6MuHJNl/evWXDxXxK5Q/IrfsWvcOaTq4sEJxGELClm9Y7wDuEaEWf3FEYUlfBlT2G8GUmFe4VdbfNG3zK6TSWCDIFu19xdR9dMLBqHyIPrjO2T0a1e5ALaa5oc7uKC1rmbfDpOSYJ0UUBcfXMNzXhHiN0EjqhLdaMctc2krfkZn/EZ/CQtd0h41+Xpp5/mSR3uTfP4Nz/Nj7GZ4r1q9+xG8a4hIFWNb4WRpaUS0kax7YgdXcPD9Aqj59TNDCHpNr0Ym5Ao7I071p+xYCb5V3zao0BIoto4suCSFk7ra5RA293QkiWWPdDMaIaMuPpYmimB7wCuM7LwLikn7BxCsjNizwjgZSpuHPPf7vnPEzxnw2+MR/NSIElTxnlFZzvruFZBdt/nV0FfDw6FsdfmQJI7jaMwHpCkMHWiH7U9e6dO1K1u3o/uwPSYgwNSekq0PgjuE1OuzHg7cBObYuUntSDdHDd1ohWPXKO84Y049sZNi8JKwOUiH0I4An4czMuL/EsA3o/GyN0YMG9u8FOv/rsSFAinNSQKGqMM6G/d2OX7oAzGzaOwkAXdNXuSdg3g9qZOwze77hm56IlXQjImRewAjbHYdZjZ+qMACFMMn8sIvHPC3XCw3uZAU1OR4ADt7TUcwo1v3iOp3RgvtXlzyOZekgd9uFfDD/zwBcxFQP7rJI9nv8mbvAl3/HglKeJjHnrUma4mS8DlkvkJJyAuAEZ235zju/tmvVAY/wStC+PIwHel4CPe4ZubtwTa3ipG9hYJX44pwhekba+Y9sGdlsRE8ZoAwRvXTEmK28YYEG8sjwtYCZfb+I9XXHViS+U3lyyGn1HwP2rx6/yf8zmfc1MV8itk6zuIp4izA3IfxDbB0iGj26497KHresx4rv1Af5VdLXv6w06gF1j33rFjRYyQa3b3tr1ryhqeDXiz7HhHLp6N5d/+8BM+/JcuLu2xB+HFU44ruWMzmDfV7UrOVuqy2Wi0MC4cdWFcPL29wtYBXmHzfvB2oGPI2BrExUSIMyMAirBrNe0KTtRaMZZ4VQsneQdQ1qEmRGNqiBd760tbWzlJvQIIER/16BqakGPh7UBOc7gxzb920agCT/P6O1087A0hfBPJSVK9dLGHGaBdMjti7FoUSSvBLpyA1gkOgc+YS/PBzcyEC3wjZX3mPFUBCLceQOubhbarjVEwdFDwng/3YRLY5SU8mgFxwRd3IDS78tsVnCg5o40Xvq5k3ATKZj47b3C8kFvfWE5p+de+/BAyj8ryNfmRH/mRL3rRi5jhUVh3EYn4WhUuldMOy+iqQMZISeByZBfGWZT/oLxlCUk3gPBIaWxLXBhjh6Y9IgC83ZXgtpdqJeB68H9UQDGJz7NMoeZISKsrXYG5EzW8djcDcWnvVrV2BXeiGJO3R4R3XfZqCDNlILUa4+2M0ni9ga9uTi7YCPrsUh1+zoR/EsS+jNcHuWIdZcBeSdibFhx7jptU6FaylgQKMoF+6uzisk673SISDrRoCvjJXozcaxrheJOusVJtUWevha8rwONT9sgtoqyjCN8Qy2j9SCVKTjPbApYZ5eHdCyhWhBUAAClHSURBVOykjZM3RhQinvJiHK6RnX+zwaPi3rThAjfHkoPQ3WQkS+wxDpA6YYohbG42SqkZZc6c+FCkMH5MIBkBSHU3ODWsluGyG5rguE693SLy4Gx6CF2hu1nQFXSuFuKorhZ7I1GZ1lbj0vjHf/zHY+HZNP7NPJz2MmPcvuSCI3cSuRDJ/2Jt75Uxj7xdITarb51JXbQtuzleCVxk5GUJMBeSxpDTXbO0+MjVrhWrycPGuPhRr5VwI5bMz42oXVbkeLr21HjsgQNGHkKEwG2Z6/xjJQtwqjfTrRUerMQujD3jdQrbLGY1ZvVt1hlvAqE9eBwEnzGSwCEF6BpMvCPQ2OjQTWCkrgbUMdakx+3VsmxGZRQjY4YWEObXf/3X81wOpzP8NjK/0tiBIQOeeuopaCTl2vmnfdqnbWa/lJF7gqfwU+cobHS7VGUlYG9mY55MgslhMl8Go5JWI0QvxlaOlOTQWirZw/H/JfATjbnMqouWwJXfauLwLcAuru6KFRyadFfNS1mSMUlNt9eeIs5aYOfoPy/lobG9c2pSmH3k0tjtJhNCBzZfbFQXfGJhHXIpfIU61XcglP1gz0j/UokfO9kBpO1RDeONl8qsHWjq5fPJT+nwphqfWA4Ynd4Eju7zn//8t3u7t0OTl2d5xOFA/BQXj5KdQhucnrS1TiwuI6q7EOy6Z+T3aH03oznBIccC6BrafiFGzT0jt7lyyGzBJnLCL9S5EQJ3YHkwiwtqqxqXQfnyY9nbQyUkUyHQvmlMyB7g3tS7vdu74eVAnhdXNmld2OaqSVR7M6uCuEY3sQOcUtgIuXI3U4fCWicWl9a/xDEjYSZQRWwmLO3aY3biK+BUn3EGqJZug1R7hYwJiWBGiitGgFni5X+/cCrNbQFuv/BoRZihyUz33d/93Tnr4beduYt9zdc5+GSSLpXvgdSc2hqksFFnj7o5TfOglZc3TN00LOmmsONK8IYZYLoO5Aaov3DjL3uPRCs/Ug2cASsUR6ddGLsbplL8ZwsO/73S2uJgLihzY4Ql14KbYF4sCnYrrS3BqbalBub3cvzmYKc8XHZ5lsDCfOoLcexJATALrcbhDTM0maO7puYXhiyM36ZcvdexpObU1mAUlm6P69F1RtzXKeXuYw8KPnDdUp3Ou+L8U02uMYO5Gc1rCQC8ndc10RYeUWYfyvWXr/mar+HHeC48pujYgfn45bhpuA662W6akzpH/c0ZmMeGeLgXY/aMUT4QMdE115on7x6xjqroXlN8Fdyz8B4Irjys17T83topX34HBR+4Ol1j3o2ha21tF19YmCtxDdQy1izlnV6h/4d2r7C9jJe1ZyPswNQ56pfz6N40bqhK7A0sXkWliduV9O3CKEdv4/AxBg8gf7RwUkkAxqalhiG4192sYVMcoyLt5ZfsOJnC/g7v8A7cH0wWyTLZ8bnvsyuHn3Ji58g9Pk55uJPoEBJ+KcBvEMjPPKzh1oPdGlKJdrtd5yooM8rkwsIREzfZuYrEI3W6lBqt5I7VIq0DwRlFA5lawND8T1sUYHjIUYDWfGndxqu4suJ2JaRdZuEqilcz1rtPELjV5vtO654x1TYgJJUEmCi01ID9YPFX1vndjc23uTmxTWGtrGCnFmMPCCfG3mygSRitWTCmMF6bGZwLuyl1ZSavdaZa7Xa7ThVa8OxsOn2AMYA1WSzyoyUwMMbotFRzglsNY7IAhsuQtBDAPi7QrSKhKaKxxVc8mHRTg67RWkASAdgpcDrMURsvuvBmS1yUJx4K3YXAawO+D8Oekf0jFgkplW7wJuADyetxn/7pn643BdhttYjLyQTa7cIaJ2mMsRAI5ucFafm3rnzY1FQwWeTTxRucwpqssS3BBA4vljd7szej/aqv+iqu1eINWWbzwabebGXqClO1GO02ExdG/sOB74yzIuhibA4Wj87cMw6XmmkVzHoJUDY0RTRa3mabNwW59i2BQIDhtCksFrzJIsAVS3upLYSEDwAheaMDyE9qcseSrpyDVlkJXQyW4bIrp2cPi661TV5cj86mY70asIKrxV45akzN6F5Z9sqB3Afk+Rue4+NZHL+EN6UyV/nWCo0jTR74YsVwTs3Pl8Z+IuCaJvdz+HxylfPEkANa1+lmFDLd4ACuUvEvTej6HxMTvq4XLIlavXFdCjz99NP8MzJC3DtfKvZCcsZyzOR3FSE89dRT2RMNvv8i5sTLHWNmRncoH3f5oVn2DnD8SfmVfKnC1vC2ZK7Wzbtp4gsLW0NuytJ1rpv32dl0Zhxg1oBRxCazjcFmSheAVKcPlmMijJ1xuAxJYDMvNA7lxHag6bTQWrPGzRaRkAE8T8uld7Y/zqa5Yqg3gc3UmHAAFggAFq9OcljB0zzck2kXWM5B6z+A99WrJJWfvHSTTk4Eu9v8Voi96wFzgZ8fvOHSKofMpkgBA4wCFISTMrTEPsLjbTtG3yl66UtfOuzhZxRJ1CA0QJhtDFY/XfmcqPJ2MIF5SAssRzWiPOX3csdwdc3y0+pKN2rYg4c3djmczbCfwsixoWrWbA20KSwWyDLT4grWG3LsAI0JBxjYIfKxM2kWxr+QpAvneIk4tCQ1ZLg0yolmd5vfCtofndHQT/zNgrWCK+gzpM2oHmrjTfKVjTlfYCziIcWFf565wehvRuxVO6I2Z4bzUH5Ni0t1nBXyDNoIubDLrQ8OWF72spflvOnCkAsJbhtWy/BdRvG8f8L/MEGK5zfls8W7Rrj6xuIRRNok7bk6WIPDNbKjhuUt3uItaDkvy9VGs6zkZL8+iDhzzvcZP9f6Vm/1VnuyXDDBxRG9/2M6tJ6EGAE96sbNOQXn/IOb+CufFco7hdj5ATHWFCNaObGcXkZmJrErOC5s5d+GxfFa7cOt++EFAq0yyB0w6pDWRizOVLcxykxUz2lwvJBjHIF24yVEywgJocPV75DEAjazx4hgcKK00JqOlocweL2PS8icCL/gBS9IGc0MTmBbrCT1+BQkXa4Y8r9BYCb7hQAyv1vB9s0/e0uFRpmxcWoIMxaAxrasOPXwMgMXWDkp41+5R+0YGBtOMmKJbOPVaD1wBFxj9c4PP17A0etetdgj1UD+sKS8AGhimUZheclLXoKF224c/oTQmhg9muZAiRs17SKwQ1JDjE3Qa3jahDRICt9K4lSG6y0xIh7sLpvCeOhKo6nTaqRNSW0JDqEtlETXVrsiYPeMFtaV72HD9aY2u+0Spw0zFkBqaGPwjV1n3BvJDdoteszChcbTC3Cm4Lem4bhaJ0yMYP4RIFtefjOimVfGb/3Wb/02b/M2hPOgGdcuL6XD2RyHjfyPjjt478rC+O9OPiv3Hu/xHv0TO8zkpSo/IK8rJeTOQgFc4eU+zItf/OIQ7gDwHcYxPkccfDUepOMa9NPn/3L2Uz/1UwetBxgcADk4YCgcdL3u/Oqv/uqtEz7bcBfWm3c4twQszDvUt5TiarJn1xk9wenpAG/KNUcCFtdTtzGGo2Cv0eDWjHEE0sUlU87pbaLUHG2yA6IZY5JqaXvIPLrIuRtfxfyiCSfClorXRIakq9HY1gyGkJD3eq/3ep3XeR2+xjkg7UdwFdlrCWfXwP8zgsBZ+fojCwk0kd0Mx25qwC7ea+FzdMbvZXCUysPq7NCjDyCqlYMFMmOkG9zpYgxo78DsdzhoRYqfvfJ25x1s3jyFylEqSfmH0T7JaKlYLA/AopHfCgNzMZQrMHjPPbe7efMgNxfBScRpPjWkpGAtKYxvYkvtlnCr1WjZBmKxaytB12gVwSiHrTqFyWydTdw0RZK9XUmkyCZTo1Fre7Zn7EUhLJtlrcaU1a5htIImND7wtquLBOsKsDuMI6STBsuhS6yXGLDoxQIIoUEScSmdk1ZovALIKbAhhkdkNbZLqbRmocXCpUZu5vALPfxGGYelRO1JrRm5F8HPmfD8GvvreM2y140d0EzxXguZn5Pi15vZHfPTQdYfsgOxC+4UB1gRCcSuzBibKablt/84qefpGfbX7LVjBygVsCoPSxK1fTWSiCsJnDTwP/aaCYY8+JwKeLGPHy2Oq4sEnwed7cIE3cY4QkZeu3I4nGc2+Np+y7d8Syy6TC0BC4BTjS4szCgbki7AwtoS3DUHm45WSwpjcz2QiuYpGUM+EGyXeG2fSWfTGfPdgGwZzBoZXamdml9R5p/VcUjCgZLPqbT3athcieWkmP+IQJdft+U3bmO/ELCX57kfTpE4oWbPRZEXhlyNwCGz//aL/dFrvdZrDZExnOG9pS67AB8L5VieL4asx9tIx8TyhBbPKjHSD/iAD+DL7MIsvE7+whe+EBr/oiD/Me3CqCsTOAD0J8i4M8Y/JIhOpiWbN/eO+G3wWy2stwcK47iedHx8urBU+HjBg0c0qdjFasCbZTUnewrBZrspcjXjg/oe/jEdvTVvjA+5D/6ueYnVKIhmjKt4LByM8JsRPB3GS2kcK63ip1ii1sBytYB5t9QPEgenHKKGeaE+u0WONNlF8gQPTwKNm6EXhp9C4H8i+zNrnIhZpOUZ2wPBTvcUTTgZo1GtI6bd5MTLXuBt3/ZtkfrMz/xM/jVK7ClssxJputQHd6KB2S3y2hLXcwnkO9Lbu5vKw0h5vi/MwSY/34k3FQpMBB4Z6cY4QkYKupB5PoGNk1c2ucLIBRbDZa7KWNhJjcJW2dMtmyksmwsdnGZ1YYN8epZbYt4fMz6aWNfZo/759trdxh/3cR/HP7rkNyN8wqZd18RjE6HL4Rj/WZjPITs4DlRP1+eGI0eOnOdyVeu93/u9fT3j9PADJsVwM5onLimPZ2XYyvfI/QHe49yG/T3f8z35R1Eoc8uYi4BcBr3ZLFwj46uRPS+ygF/yS37J6focnfE8Fq9/uE590/z08BOZvKjKf9TgH7FxJOtFcNZFx44uLgrj4TMLY19/G4WxwXB1iLVjYRxx+3vsXdiTgC93ndEPrXVnP9Kb/sA3OEJSK24Np7eJWovpaiMILRgAZw3kWOlTPuVTsPOR8H7fyjnFshZAVAo2O11PjXkkhdsp/ubjZlWbGdltcWDCDaIv+IIv4FzpRrZ1jpTZsv/Mn/kzVMjvuPARSj1r8ZnMcDbrbKMiLZWpaLXQYmyA4Pu///u/+Zu/OeCTP/mTOaTlH9ubBVqnCzbcruLgZGnAxY23f/u3ZzPgW4c1wjFgRE4EHNHzS2U8d82xPLfaWEd8b5Gih3AKtqp1RByK8l+ovvzLv5wK+ULlQkdG17KEj4IpjL12F8Yl1ME5sdszluxMHdthCvN3QPQ2/8QUt0e7rWNGB3l7dWeiN1McezdDehNJ8ei03UCeUOE4EcyPKvKC8KbaFYzHNbOlcuLGVzq/SuJt0NNTvPEbv/FHfdRHscXzUhofQo4jvuIrvuL08GZyjMOW/Y7v+I7sZ9lfAzgY4bPXnCcHUyF7bS8B8+tk/Lsozv2v8MsFPSJuKPNqPJcUOVF9+umn+a3sK19i5nfIP/ZjP9afleWhHzYnDu25SkO6443h2MtIeZiBCrklzXOCbC28Ud6b8fHmTXYK4xLEZmE9FZfC1MzUdWGM3fe1LhzvpRLdFPkVXRORcwYZRk9lvHwwwGxwtMdMQ9BJbGOMdnslaWS+OBzj/47zMklidSVj2y/Ex1HH3lWc+4/8DigvJvOECtscu6rBGcNUn1b7pncYRxd9RQBcMeTVbAB7yWxVFsA5I1/1r/u6r/sJn/AJHQJGEAVez+AghefGsbAv42Dqec97HvPsP4w3hUwFu8XOcSKvvvEB9tFcPjzsdHjfxmpTYUcFy6EbAJ8L8OxYMXKfxH1rezvW7S0WANthZ7ywBh6a459J+L8QuG3Nq+XMHmtwKB9s3uxP2W0x//5eFtk5ZuROdG65pHjrTEnWaXcYZaLM7pUbWWanPJ6t4ToAj/j1GHv40cEYfY7sPv/zP5/1y3xKfu5zn8uFZk41OntCWhC8avK4GBdMRmF8DfSzh2anHSkU18sOehTGVsp/haOwpqWejCgWgEZA1ykBy2bIGh5muzY1Mb7ipa6/HGw6I5ndHga4w+PqUWFkz8i5z6bak2Dk+Iu7vXwV8yYcL8NvltTDzOgcLy0WjcTGCPZTSqzGdHHBT5dNip8tYHfGDcenz58Ztgb+xbB7Rp4F0bLZcj+UXWd+3pWzbK5FvtEbvRGbOweVjIuDU9JRA2fuXAniST3+XzBXVDk7c1Phy4CbG+/yLu9CLCms1hFRZI89LgEulS2MPSP/DRnMJ9kvGGiGZ7zRN6RbM2pJoiYMzEnrJ33SJ33iJ35ijhkZL7tI3hdm1Cx0eUbd1IyUzzOvNnHSx8sq7A05EzfQLxV2i/xoeedN8a6puKzTboxr2TwlzhbFVOTzyMU+nmbl6UgWvo+54c6Sw3Oex2LtuLCCWKH87/Ic5XAXhfstXOjIZkNGswMsqQuTlhnrOimMhyLY5rswSrI23pGnKi4UZtR8AVMPhdlynMgTXV0YF83Z3row55zsvfGkmAYUZtltvFmcsd/vGS8xsa4YViq7b/7L+N5K6hWc7c8ZVyGBMVLEYI5NJ15u57HR85PRTz31FDtHfvLPAZy4Z5TMno7DHy6TrTes+eyxc+T2wuriCJHDGY62svdEzSFYHjX32OMS4IImJvCye8aoOQQzijuplr2Wjyu7eH5a2BeEB42x82IfP76weWWNXSdHTDxGzi9pGtglgbuMuLLiCIlxDdfLGTq3dHiUh3sUckbL0y3shlg72b83gUdf2Ruyu2fXQ17q6a1oZM8EYpcWqcHETmH8Wsr1C+NBC7N0YVRiMeYdxaQqAASZbbxZnLFf7mw6YSdW03xxAuPqSYlRWruwtDeuMVN0/QSG31HJvgJp2FHokNENTYWRHeMmISJ4WdYo8xoOQfG08A1ZXeGMs+nYDwCffw+IaPlu59t+6HNmx6O/LFwm51lc/z/fEDTE8oYr3cgGnA/o7No/FpZ1dCHISSvTNkbAiUsScTzIARoLN3AZ+OZPurIPYm/IQSUvO3Nm2meRpqNyQDS7hrjaG6PMdmFpL8dc/NcKVgrHqhy3Uu3mrpBHI1kpT58vVMiSg8ouJuIAknai0dWVWCtMF8C1FEqiMMrjmtLpheW0YKSwpDEVnVGcStbwlbxaoh+d5vSExH5be8YeQMpKVkCqEaSLK9X3F0tChgiB8HvBwjL4EDowWCZewCZHF3y98hO+hgyCgRHBG0JiAyA3obPIMdY2mrpO3zOO8K6QgxHOIlk4ReJaAR88a0hISjoFJEpASL60qNmyceml1aJycIC00T2ljOYYPnJJ4LIa+0cWrhJwUMyyt5eBbzEGRrMTpVpBunAyhEtt3pyQ8k3G/WvWDnsZ9tosnDGoFs2uAZy8gE0OxnDCj8gaIjkEgIVRFeVRGCWx8dDm0K9FCF8VIMjRZYslgCwSAGt4FxNCwo2NfnQ6qhPF/pxN6qbRHImM3EGtrQOtN4VEBaAcLNOuInyouiumFaQqRTTatlTTwCjLAbhgzDmIZAi4wGFqP2ibbxRkjUaRQmBt7YqsnBDCQTCaAYkKCB9LRqRmogQwY2Gb5owsIgFhYlEZS6eQuZcozCSKJWooRBNjMrZx1JNuRCIb1ybYpHEvhXsCuS1AXlPTbopgbB1orqzNSVYhUr1NKkKUXrtiWgHh7HQ40+coPkZdzR914goHzAIh6yglaQ9ziKzd5hOVwmDSZckMZOtdReSEoGYU5COVwE6KMXxwRpS8HQ4zOoAOjLgEXbZY5q3VsK8DupoLdbrWjMGornhPp8P3OI/XzihGkaP7eMt7QrIzJ2PtP7GztJZ6MIc9ijHA+837YN4eu+tye8Zel1nlARkMNI29KWBxp65rjSI8RpkKJmm8SRSAK0uMI3zY7RIVexKNsukqvjJjCYAZnRiHoEkxDrt8jethRdQMt8UYACY24nYlbM58BzYmZCztTc0BIUPT2Pxga7ObWLpaFFnt2RKkSaB1fjqqdVLSpYDi6kQtIFLQNMrXjmVzkhMFiFQGhTFJ4+0QMa4sw5vwYU9g7GGOsukqvjJjCYAZnRiHIBxcGIddvsYrb94dqBTpNmfeMkzaOGUHtDc1X27P2BLRXUHUBbYMSaCILZYAdIKbGax3pFMBl0sEQ8usqRO7oI1OOnxBmCgHC1ZLCAi2pkw0NdqN/jn30SkDIljkdIoIBiTdAETJ6TbGVoawpmhLK7ddZSyCQYsXe0fZzcBdKYltpi6Ypoir0w1jXLFH+VLgxPCkE9hSsEARWywBzgAtRpbuijezw8SexS78LE4XBDVjF7TRyYeftSCH2BG1WkJAsDVloqnRbvTPuc/Uzftye8ZM0I2DzZXR62Av42bgHvne/uTMACv3UuuuP3tPzihOrGRzpPeb94mz91hot7JnZDvIpsD3SXAAQ81mIcgXmrMg0+/D/grCm27PV5QBCKpplnZ1SONwMDZuzok44QIrATsWRKg/RjVTLV2wA2xOYpu5V08KOHHmRw0Jb/0uJoSAZraxo+TgdSwB2BlvoggBs3SsIVrU6ZBkJyr4VsF5gQ9ynTjJrlMHQm2WalcXRgeYbg8hQwNAk2lIuzqkcTgYGzfnRJxwgZWAMzTqj1HNVEsX7ACbk9hm7tWTAogKDjDFZl6NzUyKLiaEW9kzJuWNg9R9uvJxyLH39CzXZ1oJK8n1pGAw3uDr57pXeDJn4Apb43HIsfcuJ8FKzjbuuuMcjDf4Lqs6yHUre8YMEpAxN6CgzFRAG1UYrijAlJBEPUKMsRPCIl/QzE18Im0z1kTJTle1fL/RxZuvzbNCH55UAuRvFhAaHL9jN2kWYGsuNSNuNwRAL3uabY+UYITHi72jpOHV6ISAWaIjsGWKdCVEBYyAzZDNjEbdbNvZU3+DVJLiDUnxoys/CnQl2I7iMcZOCIt8wSCv3RNpa6CWzo5FtWfl5n1bv7WzN7N79jHj0ph3p36N2rOvzHvLkzkDl12DZ5vCXZ0v3/iM3W/eNz6lty34nHz/mMmND+PmVij5QheETY7HSiZK3gDswTmqwpgoj5UMpzVFQgawC2fYE34AWnlzIBFfRcIfIrETYnhEcIHteqwUTqIcu5wY1+wQ2hucOSREKVwBGGWqv8q2JcyIr14ta7VkNIo2ALJMWhZdgIhsMtsoU0vU7EanOWbR0q3k6Oy5IGxyepKTNwC1YJl2E+XqSFJTJGQAu3CGPeEHoJU3BxLxVST8IRI7IYZHBBfYLoMdgaZw7HJaahQAIdOFK8w2ZqsOCFP9oTm6Ke+678Aka6rU0oNMMkHPAkPqchPVQ014mHrpuvTYID80P/hoJVzQ5GPcfDQla2zXEIGp1xC7WDT22AkcA4GT8JaNlKCjmgZWQRBXNKPTTGmWB6FnPgqWrUumCiEI9hKFZgF0kYoORu20Gmm1wASzRCE4BDm0Hb7yYwm/LeKI042+xnaB9bYr2XsVM8zoRJOonmRFoIWpV0uMqXDYEy6Qdkrb/GTR2K4hBVOvIXaxaOyxEzgGAifhLRspQUeFpr4KGO3qjWZ0JNiVIx9Lz7wu2s3N+1auMybl6aCHkagef4wNiDIwTLvNeQLxqPmyFd74GDN7AaOkPfugXaqrZsYScCmRZwp5c3QXzipRBoZp9wkf9aj5stXe+BgzewGjpE371c+mh1xPB9juqEDjZiAu7LpoV6YWabTu++WbRQIYIB7e7iZEo/xU20bxiF31E2sB6RJobEIAWmjFdgkBsMhUIVERlHbQ7fDQ2kgK7YJ2NU4sYLWvFvltT6JIYYlRJm2WfJ9jCS0AIzp2ae12bbEk3QoMb/3mjBR7LmgymwDWmIL1aqTFrot2ZTYNfL95Z26dNLtgj+/i7UkOp4ETu9K07NmJOjtmNLgr6LCrYTSzBagQ/YDYJbM1xGVJa2GDYAi0XpCVFvKJQ0AksSeGXI22WdimcegPzugO8pPcZar7zGtzIDG6XhxO1pFeu01YR52Q1XVlC5oU0HlTbYDi0mjvN+8LZ3udugtDbo9wdsy4rmAso0oqOCc+uNxG16817WmNMhyssi1dFpgu4mieOx8QDIc2wrEkKiKxAPywnamcJ7INU9DtZiIIBpp9SK0ltWBi22iIFtQUDMEa2th5g5uQ2E0gs/mmgKyabbrN3BQcxhHeXqT0rjVIw66LNRUdXGJavLTuRAbT7S2HDNn8CB/r3W74nUhNE3Xl1tDM6Gu07XBLTfF0WaIpJiqB5/4zApZ4OxzcdruxAMYwdUGTKeh2M1HIKSwWgMZ2tWAzY5dsl5K6Kox4h7HFg0dUxFcgs/mmMFfagGauaqvFkrDf1nXGg4IyHaOs1JShSgjfjdVuyPmoQM6sHWQfSU/sjpJOjHrW0Ho+xZn/S41xncbrqF0q9c2Se0KGsjOzEjJjYxLCv9+8x0zeWbdXVjbIR/emV/eoLIQENyFejPm+DUFv78XGBgETi8YRRaz2pDgnnh29AmIEiG3xki44IOIAjK28yZE/XKPbmilJZbMMQrroKNVkLXKCQ0jsHmhBo7DkcIOosXbkJ1HAnn40NwkdvjLxxtjMxspKAw+XXVoJUZPZ3cZDZ2iaMUaB4bpG+JjAeO83b6ai542ZHJMZixOrd0TpGm10AhKF5TY277P/A+NgbF3rZFpXP4QuK6W3UUzbE2QgbQ9AAlkSjkVjRExhJbq0nBPP9owISoaDUSYWE0mOvkDjKW0XM/jqm264HleX38TnHznxy6Zv+qZvSg0Wb0udXXAmxFLHtIwuHGIdqSKZlpV54dhVgEas4VHDCIagy1bj4IxwQzSq39WCDbeNS0BUFghdUuxtFNOqJsdAWrM3nyzpQmAhJCKGW4muCNrN0OBgkUm4iSRHX6DxlLaLGfyexuF6vN1MiMXbMi1dcCbEUse0jC4cYp1YRTItVz+bjsRlJ8vAzSjrpm1OsN50UVjHibEJm1muYERzM9cVpG4p5LXPF9fuLaW4Ddkxq6N72Ywd3viyOvDdiq4gcrD5qUbbnGC96VLDZvYmXGFcmyFobubaJH8vMT66A9NT0zgTkVUiSHcl49LrzhgFuzJ7B68Luy5ziWn7c46UIrRNTnkYJSQdIMbNqPAjIlC/swymrk3NIXXHXQqzNvIye8EB2B0LbdZOjNDGSHHF2CKN4Zy4JOlmeIzQgi9UhpmaO0qMS+/qGsrSMArS7UBDcOnNBNqVeb95j4m9wS4z7CSjedub99nRvssNDuBqUpRhoMCtDUu6Z9vjy7+LgncYI3K1GhRcY68vu2o+dktP3Z0VcxtJWTsu6ygeeh7dNV45d2OhEhMJxpbstAwj/J6uvTFeqv6k6KjU1sZnOu6pu8JYHh0z5gsQlc2Z2lwxe0xLcTXQQkuhhuhSU0Kk7GYwCTTE8kIODSAhfF2OK7HNR2R8w7fXEBNtpmvyE4IzTAA1ZwgB1JmxCHTZnjKKREXnlCg5hBhFOkHHYmTBsrqaNjBkVyJ213WvU7Ca95v3mLee6ktN+NC5y641kxFAzRlCAK6MRaDL9pRSE3X139pBQpVT8jXnlMCVw9hcInWQfTATcgo4kD0l/BnKOZ6xY+/pQ3a10iJolBYxxu6eLnsbzCtXckrgynGGMy2MCM7euCTveY/tB7LHgc9o7/GMbXof3ZseI9+cQdfcgSsicuTTdsgqIgGONL/zxQhGpMWHV9dgnsnV5iXu7OLI5rDCApqZMhSJVIOhpmwTkmgoa980HofEG4BIMsZ4IejKDR8hXVv0N5kjcO12rj2vytHv7I0Nj2D4QzaEtm+SV/GEDBHDNdK22ioiAY60+807sxqwTlpcDTLV8tt1gJvsKhjkzi4By6PnGV1h2TsY3DFYupscGuX3ug8fAguuFg8Tl7Hdnkc82OCSSKDLKCwxJl2Musa4NJoLPLyxp5iIrHXGIqeVE74KYgkzo9gzhpCQoTy60BISF2N05nU55GaCWeBDECRW0MZVf5CPuwkXpEvUWRHnZXQLoTnBcugKDI+XbmO6myt6cLobWY0osGhUiq4uWhZc95v3+SQ9SzbvBzd8x5Dsri2rn2W1rxa2ldWoZU/kfAN79FDYSNRdmXv62E0xQg74F7oiFXBhyDOCkNXkjN1BzSPRhavymiVlgOhcuO5GbQepW3bQ9kQcab6WRjHdvXBOTDFCRhmX6kYq4FLhTyw5q8kZu1Sdj35rh+AIIeEc9UztrbCOapw6IqXXr9ZsIqEBEm6IXduuxJCQo9CJwBBYYuwojfECIgKw28ZgALGGwxTE2yLiY8LqxaKxw8GmaNeaK7QGYKK6QkVaKoQ2Rt8hD80YQzsRmCL1jIzd3eSEEO8obJQRGoHBcNSJmiJNiE4bG4cQKb33m/eYmZ405srpkhMsJ90oDBCpAAhEja7GxIawqU+s9hYBzye9dW9KJFN2atAGs9VT3zCO7lBIlgGIChMwRCSHgJfFboxDcHThZ1ztwt7dxpvK4W96O/xx4UyLwIJt77LmlHHj85BVsCqfMsxsBlRokdEZynqHcXSHQqQGICpMwBCRHAJeFrsxDsHRhZ9xtQt7dxtvKoe/6e3wx4UzLQILtr1UzWfHjC2R8ajVX4DDZZfYDjcKl4G6whScUuXKcb2igCuyZ7kfXiDDJYbZZWg0MG2ieoCJSgj8dcErAX6HWGEsBoZpIo1yzmUeXZrIhpsQyMFDdq0qloQkPK7kHS7susJsgKBeldt1WZwse1IhRBlmk4O7JI1rLCIYN72Se+0nY+sQ2+Fx3W/eTlcm59m3ec9jxmwfB8DpsD2g7bmuHLgneFP2K4/ryiPKJ+2mhoDObWjeYHlPvtSVNwOHduWN4bZn5srjuvKIbmNTvA3NzZk/uzfdIzdxLKO7rnsIzclXh0bbzcQxdniMFtCusyof3vzBzpJuojCCYxdoDCdeLfFiH+EJaWZoGOEbIh7KzQyWL/M8+lHBg9NJwXoN1HXlNjUnRWQDhnjbewiDdmE3OqOGBIYQC6AzBq/M1aJI2xOua3Q3+c2537ydIlpm1Zlp3HMF7m74GtUJ1ttrKokuC6KZFJENGJptT81ne8Z0EoDFjaBdYjgK2c1JrsaRQ05LJUVAZLHIRHNVCx/QWVb7/2nfDHcTiWEg/P5vfUM/9WNkNilFpXcHuz+iiT2e2I5Rl0q0YJOHHVdLNW7Z4MTiHSIY/SKMppx4xQC3aLINLY+fumC8qDXu8Ni/fJQCwAe35UudJjwc+LBIn9i4BVc4fJssJ5aeSTTtbW/P8U7T3nO857fpHgsn6U0Ata+K7c6MD9s+cCX4sH2cPnT23kF+t21f4nvWvqq6OzNG6D3H+/q7aVrWf0tj6aaIBemgmHB6Km5vXL4WQeg1zBDyGNve4Ha17KB9a6uOYBPenHteJSJlveF3OLVcqv2sN8zg5mwyud+l/v0hL8a8tPizySntHO/V/fbsneOdLs13xlXjsDNk3cQ9//Q+owP7/u+9z8jnZTTP8f4XrnI/wHvvD+Z//XVgHxncf2k9Dw6uXkPApUi8iug61NQYGkzVPBegd9gf3pJkws1hI9UcMjEfXMOYrSHiZnoW3i9fGxPrS6ixJ9h3gEsJRwD2ajocDq5eDVck3mA4GN22YDAcFAwXNPnQ2ITvYpJMlDlsFJpDJuaDaxizNUTcTM/C+9+N9/KdsYtsbBes/ATdn9/sBuf2ibmd3p541YG+ssbneN92rPtz632e5e+O9/XXgZ1H8NhSP3PTrvEW066Q89i4xhoFH9wr/5CssU9prFqDDUFBQQc2PhSJkcCseeAEdE/4l01bIhsOqyHZBudRh9NjARzy0ZEQgAKg7YfMJoj7RI0ARZqD8daSEJI5dA3l5209XUBiY0sCqSX2do2La1fIecy8sUbBB/fKPyRr7FMaq9ZgQ1BQ0IGND0ViJDBrHjgB3ZMXHu/Lt+kuj/rtFK5w0kdbY0iMtgmmgeHwhNP6fR+NQ05s1hgFTVhhQwiENtJoIy6iVpq39kRR6W2ZIduE4CgjHqbYinCZA1uOg49CVjlgthxklAAF1jaOzremNIysUdDemuLQQmhOax7Smizh10BO7yaMYnGRoYUYkiS9WZhwYg+HJ7j1V3WFnNisIQhW5LYbQiCukUYbcRHVOnucqHO80yKuhu79ATCA5jVWBxdfAAAAAElFTkSuQmCC;" vertex="1" parent="PzlkRYsVzpQkyw8jTia9-10">
          <mxGeometry x="38.44" y="120" width="83.12" height="30" as="geometry" />
        </mxCell>
        <mxCell id="PzlkRYsVzpQkyw8jTia9-23" value="" style="group" vertex="1" connectable="0" parent="1">
          <mxGeometry x="60" y="150" width="80" height="330" as="geometry" />
        </mxCell>
        <mxCell id="PzlkRYsVzpQkyw8jTia9-1" value="" style="rounded=0;whiteSpace=wrap;html=1;" vertex="1" parent="PzlkRYsVzpQkyw8jTia9-23">
          <mxGeometry width="80" height="330" as="geometry" />
        </mxCell>
        <mxCell id="PzlkRYsVzpQkyw8jTia9-3" value="" style="sketch=0;outlineConnect=0;fontColor=#232F3E;gradientColor=none;fillColor=#232F3D;strokeColor=none;dashed=0;verticalLabelPosition=bottom;verticalAlign=top;align=center;html=1;fontSize=12;fontStyle=0;aspect=fixed;pointerEvents=1;shape=mxgraph.aws4.client;" vertex="1" parent="PzlkRYsVzpQkyw8jTia9-23">
          <mxGeometry x="24.61" y="80" width="30.79" height="30" as="geometry" />
        </mxCell>
        <mxCell id="PzlkRYsVzpQkyw8jTia9-4" value="" style="sketch=0;outlineConnect=0;fontColor=#232F3E;gradientColor=none;fillColor=#232F3D;strokeColor=none;dashed=0;verticalLabelPosition=bottom;verticalAlign=top;align=center;html=1;fontSize=12;fontStyle=0;aspect=fixed;pointerEvents=1;shape=mxgraph.aws4.mobile_client;" vertex="1" parent="PzlkRYsVzpQkyw8jTia9-23">
          <mxGeometry x="26.86" y="150" width="26.28" height="50" as="geometry" />
        </mxCell>
        <mxCell id="PzlkRYsVzpQkyw8jTia9-5" value="client" style="text;html=1;strokeColor=none;fillColor=none;align=center;verticalAlign=middle;whiteSpace=wrap;rounded=0;" vertex="1" parent="PzlkRYsVzpQkyw8jTia9-23">
          <mxGeometry x="10" width="60" height="30" as="geometry" />
        </mxCell>
        <mxCell id="PzlkRYsVzpQkyw8jTia9-25" value="" style="group" vertex="1" connectable="0" parent="1">
          <mxGeometry x="510" y="310" width="50" height="20" as="geometry" />
        </mxCell>
        <mxCell id="PzlkRYsVzpQkyw8jTia9-20" value="" style="endArrow=classic;html=1;rounded=0;" edge="1" parent="PzlkRYsVzpQkyw8jTia9-25">
          <mxGeometry width="50" height="50" relative="1" as="geometry">
            <mxPoint as="sourcePoint" />
            <mxPoint x="50" as="targetPoint" />
          </mxGeometry>
        </mxCell>
        <mxCell id="PzlkRYsVzpQkyw8jTia9-24" value="" style="endArrow=classic;html=1;rounded=0;" edge="1" parent="PzlkRYsVzpQkyw8jTia9-25">
          <mxGeometry width="50" height="50" relative="1" as="geometry">
            <mxPoint x="50" y="20" as="sourcePoint" />
            <mxPoint y="20" as="targetPoint" />
          </mxGeometry>
        </mxCell>
        <mxCell id="PzlkRYsVzpQkyw8jTia9-26" value="" style="group" vertex="1" connectable="0" parent="1">
          <mxGeometry x="150" y="230" width="55" height="20" as="geometry" />
        </mxCell>
        <mxCell id="PzlkRYsVzpQkyw8jTia9-27" value="" style="endArrow=classic;html=1;rounded=0;" edge="1" parent="PzlkRYsVzpQkyw8jTia9-26">
          <mxGeometry width="50" height="50" relative="1" as="geometry">
            <mxPoint as="sourcePoint" />
            <mxPoint x="50" as="targetPoint" />
          </mxGeometry>
        </mxCell>
        <mxCell id="PzlkRYsVzpQkyw8jTia9-28" value="" style="endArrow=classic;html=1;rounded=0;" edge="1" parent="PzlkRYsVzpQkyw8jTia9-26">
          <mxGeometry width="50" height="50" relative="1" as="geometry">
            <mxPoint x="50" y="20" as="sourcePoint" />
            <mxPoint y="20" as="targetPoint" />
          </mxGeometry>
        </mxCell>
        <mxCell id="PzlkRYsVzpQkyw8jTia9-32" value="Auth requests" style="text;html=1;strokeColor=none;fillColor=none;align=center;verticalAlign=middle;whiteSpace=wrap;rounded=0;" vertex="1" parent="PzlkRYsVzpQkyw8jTia9-26">
          <mxGeometry x="-5" y="-40" width="60" height="30" as="geometry" />
        </mxCell>
        <mxCell id="PzlkRYsVzpQkyw8jTia9-29" value="" style="group" vertex="1" connectable="0" parent="1">
          <mxGeometry x="150" y="380" width="50" height="20" as="geometry" />
        </mxCell>
        <mxCell id="PzlkRYsVzpQkyw8jTia9-30" value="" style="endArrow=classic;html=1;rounded=0;" edge="1" parent="PzlkRYsVzpQkyw8jTia9-29">
          <mxGeometry width="50" height="50" relative="1" as="geometry">
            <mxPoint as="sourcePoint" />
            <mxPoint x="50" as="targetPoint" />
          </mxGeometry>
        </mxCell>
        <mxCell id="PzlkRYsVzpQkyw8jTia9-31" value="" style="endArrow=classic;html=1;rounded=0;" edge="1" parent="PzlkRYsVzpQkyw8jTia9-29">
          <mxGeometry width="50" height="50" relative="1" as="geometry">
            <mxPoint x="50" y="20" as="sourcePoint" />
            <mxPoint y="20" as="targetPoint" />
          </mxGeometry>
        </mxCell>
        <mxCell id="PzlkRYsVzpQkyw8jTia9-33" value="Other requests" style="text;html=1;strokeColor=none;fillColor=none;align=center;verticalAlign=middle;whiteSpace=wrap;rounded=0;" vertex="1" parent="1">
          <mxGeometry x="147.5" y="340" width="60" height="30" as="geometry" />
        </mxCell>
      </root>
    </mxGraphModel>
  </diagram>
</mxfile>
